<svg width="127" height="20" viewBox="0 0 127 20" fill="none" xmlns="http://www.w3.org/2000/svg">
<path d="M9.33557 0C14.2153 0 18.1711 3.89318 18.1711 8.69565V17.3913H14.1951V20H11.5445V14.7826H15.5205V8.69565C15.5205 5.33392 12.7514 2.6087 9.33557 2.6087C5.91975 2.6087 3.15067 5.33392 3.15067 8.69565C3.15067 11.4531 5.01367 13.7822 7.56846 14.5305V20H4.91779V16.2278C2.27688 14.7242 0.5 11.9142 0.5 8.69565C0.5 3.89318 4.45582 0 9.33557 0Z" fill-opacity="0.6"/>
<path d="M28.0951 12.8347V10.9913H31.0991C31.4879 10.9913 31.8413 10.9159 32.1594 10.7652C32.4775 10.6029 32.7249 10.3768 32.9016 10.0869C33.0901 9.78547 33.1843 9.42605 33.1843 9.00866C33.1843 8.60287 33.0901 8.24924 32.9016 7.94779C32.7249 7.64634 32.4775 7.42026 32.1594 7.26953C31.8413 7.10721 31.4879 7.02605 31.0991 7.02605H28.0951V5.18258H31.2759C32.0534 5.18258 32.7543 5.34489 33.3787 5.66953C34.0031 5.98258 34.492 6.42316 34.8454 6.99127C35.2106 7.55939 35.3932 8.23185 35.3932 9.00866C35.3932 9.78547 35.2106 10.4637 34.8454 11.0434C34.492 11.6116 34.0031 12.0521 33.3787 12.3652C32.7543 12.6782 32.0534 12.8347 31.2759 12.8347H28.0951ZM26.5223 17.3913V5.18258H28.7489V17.3913H26.5223Z" fill-opacity="0.6"/>
<path d="M37.2196 17.3913V9.00866H39.3578V17.3913H37.2196ZM39.3578 12.7478L38.5626 12.2782C38.6215 11.2463 38.8983 10.4174 39.3931 9.79127C39.8879 9.15359 40.6124 8.83475 41.5667 8.83475C41.9908 8.83475 42.3678 8.91011 42.6976 9.06084C43.0393 9.19997 43.3456 9.42605 43.6165 9.7391L42.2735 11.2174C42.1204 11.055 41.9496 10.9449 41.7611 10.8869C41.5844 10.8174 41.3723 10.7826 41.1249 10.7826C40.6066 10.7826 40.1824 10.9449 39.8526 11.2695C39.5227 11.5826 39.3578 12.0753 39.3578 12.7478Z" fill-opacity="0.6"/>
<path d="M44.6964 17.3913V9.00866H46.8346V17.3913H44.6964ZM45.7567 7.58258C45.415 7.58258 45.1264 7.46663 44.8908 7.23475C44.6552 6.99127 44.5374 6.69562 44.5374 6.34779C44.5374 5.99997 44.6552 5.71011 44.8908 5.47823C45.1264 5.24634 45.415 5.1304 45.7567 5.1304C46.1219 5.1304 46.4164 5.24634 46.6402 5.47823C46.8758 5.71011 46.9937 5.99997 46.9937 6.34779C46.9937 6.69562 46.8758 6.99127 46.6402 7.23475C46.4164 7.46663 46.1219 7.58258 45.7567 7.58258Z" fill-opacity="0.6"/>
<path d="M51.9453 17.3913L48.1283 9.00866H50.4786L53.306 15.8782H52.0337L54.8787 9.00866H57.1583L53.3413 17.3913H51.9453Z" fill-opacity="0.6"/>
<path d="M61.717 17.5652C60.9395 17.5652 60.2385 17.3739 59.6142 16.9913C59.0016 16.6087 58.5127 16.0927 58.1475 15.4434C57.794 14.7826 57.6173 14.0405 57.6173 13.2174C57.6173 12.3942 57.794 11.6521 58.1475 10.9913C58.5127 10.3304 59.0016 9.80866 59.6142 9.42605C60.2385 9.03185 60.9395 8.83475 61.717 8.83475C62.3414 8.83475 62.901 8.96808 63.3958 9.23475C63.8906 9.48982 64.2852 9.84344 64.5798 10.2956C64.8743 10.7478 65.0274 11.2637 65.0392 11.8434V14.5565C65.0274 15.1362 64.8743 15.6521 64.5798 16.1043C64.297 16.5565 63.9024 16.9159 63.3958 17.1826C62.901 17.4376 62.3414 17.5652 61.717 17.5652ZM62.0881 15.6C62.7714 15.6 63.3192 15.3797 63.7315 14.9391C64.1556 14.4869 64.3677 13.9072 64.3677 13.2C64.3677 12.7246 64.2735 12.3072 64.085 11.9478C63.8965 11.5884 63.6314 11.3101 63.2898 11.113C62.9481 10.9043 62.5476 10.8 62.0881 10.8C61.6405 10.8 61.2458 10.9043 60.9042 11.113C60.5625 11.3101 60.2915 11.5942 60.0913 11.9652C59.9028 12.3246 59.8085 12.7362 59.8085 13.2C59.8085 13.6753 59.9028 14.0927 60.0913 14.4521C60.2915 14.8116 60.5625 15.0956 60.9042 15.3043C61.2458 15.5014 61.6405 15.6 62.0881 15.6ZM64.244 17.3913V15.1478L64.5974 13.0956L64.244 11.0782V9.00866H66.3822V17.3913H64.244Z" fill-opacity="0.6"/>
<path d="M69.9162 17.3913V5.5304H72.0544V17.3913H69.9162ZM67.9193 10.8869V9.00866H74.0689V10.8869H67.9193Z" fill-opacity="0.6"/>
<path d="M79.3723 17.5652C78.5123 17.5652 77.7348 17.3797 77.0397 17.0087C76.3564 16.6261 75.8145 16.1043 75.414 15.4434C75.0134 14.7826 74.8131 14.0347 74.8131 13.2C74.8131 12.3768 75.0075 11.6347 75.3963 10.9739C75.7968 10.313 76.3329 9.79127 77.0044 9.40866C77.6759 9.02605 78.424 8.83475 79.2486 8.83475C80.0497 8.83475 80.7565 9.01446 81.3691 9.37388C81.9935 9.7333 82.4824 10.2319 82.8358 10.8695C83.1893 11.4956 83.366 12.2087 83.366 13.0087C83.366 13.1594 83.3542 13.3101 83.3306 13.4608C83.3189 13.6116 83.2953 13.7739 83.26 13.9478L76.1915 13.9652V12.3304H82.2173L81.3868 12.9913C81.3633 12.4811 81.2631 12.0579 81.0864 11.7217C80.9215 11.3739 80.6859 11.113 80.3796 10.9391C80.0733 10.7536 79.6904 10.6608 79.2309 10.6608C78.7479 10.6608 78.3297 10.7652 77.9763 10.9739C77.6346 11.171 77.3637 11.455 77.1634 11.8261C76.9749 12.1971 76.8807 12.6434 76.8807 13.1652C76.8807 13.6753 76.9808 14.1275 77.1811 14.5217C77.3931 14.9043 77.6818 15.2 78.047 15.4087C78.424 15.6058 78.8657 15.7043 79.3723 15.7043C79.7964 15.7043 80.1911 15.6347 80.5563 15.4956C80.9215 15.3449 81.2337 15.1246 81.4928 14.8347L82.8005 16.1217C82.3764 16.5971 81.8698 16.9565 81.2808 17.2C80.6918 17.4434 80.0556 17.5652 79.3723 17.5652Z" fill-opacity="0.6"/>
<path d="M88.9739 17.3913V5.18258H90.529L95.901 14.9565L94.6641 13.3217L99.7533 5.18258H101.308V17.3913H99.0995V8.97388L99.559 9.09562L95.901 14.9565H94.3813L90.7234 9.09562L91.1828 8.97388V17.3913H88.9739Z" fill-opacity="0.6"/>
<path d="M103.848 17.3913V9.00866H105.986V17.3913H103.848ZM104.908 7.58258C104.566 7.58258 104.278 7.46663 104.042 7.23475C103.807 6.99127 103.689 6.69562 103.689 6.34779C103.689 5.99997 103.807 5.71011 104.042 5.47823C104.278 5.24634 104.566 5.1304 104.908 5.1304C105.273 5.1304 105.568 5.24634 105.792 5.47823C106.027 5.71011 106.145 5.99997 106.145 6.34779C106.145 6.69562 106.027 6.99127 105.792 7.23475C105.568 7.46663 105.273 7.58258 104.908 7.58258Z" fill-opacity="0.6"/>
<path d="M114.048 17.3913V12.5739C114.048 12.0405 113.877 11.6058 113.535 11.2695C113.205 10.9333 112.775 10.7652 112.245 10.7652C111.88 10.7652 111.556 10.8463 111.273 11.0087C111.002 11.1594 110.79 11.3739 110.637 11.6521C110.484 11.9188 110.408 12.2261 110.408 12.5739L109.577 12.1391C109.577 11.4898 109.718 10.9217 110.001 10.4347C110.296 9.9362 110.69 9.54779 111.185 9.26953C111.692 8.97968 112.269 8.83475 112.917 8.83475C113.541 8.83475 114.101 8.99127 114.596 9.30431C115.09 9.61736 115.479 10.029 115.762 10.5391C116.045 11.0376 116.186 11.5594 116.186 12.1043V17.3913H114.048ZM108.269 17.3913V9.00866H110.408V17.3913H108.269Z" fill-opacity="0.6"/>
<path d="M121.852 17.5652C121.075 17.5652 120.374 17.3739 119.75 16.9913C119.125 16.6087 118.63 16.0927 118.265 15.4434C117.912 14.7826 117.735 14.0405 117.735 13.2174C117.735 12.3826 117.912 11.6405 118.265 10.9913C118.63 10.3304 119.119 9.80866 119.732 9.42605C120.356 9.03185 121.063 8.83475 121.852 8.83475C122.477 8.83475 123.036 8.96808 123.531 9.23475C124.038 9.48982 124.438 9.84344 124.733 10.2956C125.027 10.7478 125.181 11.2637 125.192 11.8434V14.5391C125.181 15.1188 125.027 15.6405 124.733 16.1043C124.438 16.5565 124.038 16.9159 123.531 17.1826C123.036 17.4376 122.477 17.5652 121.852 17.5652ZM122.206 15.6C122.665 15.6 123.066 15.5014 123.408 15.3043C123.749 15.0956 124.014 14.8116 124.203 14.4521C124.391 14.0927 124.486 13.6753 124.486 13.2C124.486 12.7246 124.391 12.3072 124.203 11.9478C124.014 11.5884 123.749 11.3101 123.408 11.113C123.066 10.9043 122.671 10.8 122.224 10.8C121.764 10.8 121.364 10.9043 121.022 11.113C120.68 11.3101 120.409 11.5942 120.209 11.9652C120.021 12.3246 119.926 12.7362 119.926 13.2C119.926 13.6753 120.021 14.0927 120.209 14.4521C120.409 14.8116 120.68 15.0956 121.022 15.3043C121.375 15.5014 121.77 15.6 122.206 15.6ZM126.5 17.3913H124.362V15.1478L124.715 13.0956L124.362 11.0782V4.83475H126.5V17.3913Z" fill-opacity="0.6"/>
</svg>
