<svg width="18" height="18" viewBox="0 0 18 18" fill="none" xmlns="http://www.w3.org/2000/svg">
<path d="M17 0L17.1025 0.00488281C17.6067 0.0562144 18 0.482323 18 1V17C18 17.5523 17.5523 18 17 18H1C0.447715 18 0 17.5523 0 17V1L0.00488281 0.897461C0.0562144 0.393331 0.482323 0 1 0H17ZM2 16H16V2H2V16ZM4 13V11C4 10.4477 4.44772 10 5 10C5.55228 10 6 10.4477 6 11V13C6 13.5523 5.55228 14 5 14C4.44772 14 4 13.5523 4 13ZM8 13V5C8 4.44772 8.44771 4 9 4C9.55229 4 10 4.44772 10 5V13C10 13.5523 9.55229 14 9 14C8.44771 14 8 13.5523 8 13ZM12 13V8C12 7.44772 12.4477 7 13 7C13.5523 7 14 7.44772 14 8V13C14 13.5523 13.5523 14 13 14C12.4477 14 12 13.5523 12 13Z" fill="currentColor"/>
</svg>
