<svg width="24" height="24" viewBox="0 0 24 24" fill="currentColor" xmlns="http://www.w3.org/2000/svg">
<path fill-rule="evenodd" clip-rule="evenodd" d="M8.29289 3.29289C8.48043 3.10536 8.73478 3 9 3H15C15.2652 3 15.5196 3.10536 15.7071 3.29289L18.4142 6H21C21.5523 6 22 6.44772 22 7V19C22 19.5523 21.5523 20 21 20H3C2.44772 20 2 19.5523 2 19V7C2 6.44772 2.44772 6 3 6H5.58579L8.29289 3.29289ZM9.41421 5L6.70711 7.70711C6.51957 7.89464 6.26522 8 6 8H4V18H20V8H18C17.7348 8 17.4804 7.89464 17.2929 7.70711L14.5858 5H9.41421ZM12 10C10.8954 10 10 10.8954 10 12C10 13.1046 10.8954 14 12 14C13.1046 14 14 13.1046 14 12C14 10.8954 13.1046 10 12 10ZM8 12C8 9.79086 9.79086 8 12 8C14.2091 8 16 9.79086 16 12C16 14.2091 14.2091 16 12 16C9.79086 16 8 14.2091 8 12Z" fill="currentColor"/>
</svg>
