<svg width="24" height="24" viewBox="0 0 24 24" fill="none" xmlns="http://www.w3.org/2000/svg">
<path fill-rule="evenodd" clip-rule="evenodd" d="M7.29277 7.29289C7.6833 6.90237 8.31646 6.90237 8.70698 7.29289L11.9999 10.5858L15.2928 7.29289C15.6833 6.90237 16.3165 6.90237 16.707 7.29289C17.0975 7.68342 17.0975 8.31658 16.707 8.70711L13.4141 12L16.707 15.2929C17.0975 15.6834 17.0975 16.3166 16.707 16.7071C16.3165 17.0977 15.6833 17.0977 15.2928 16.7071L11.9999 13.4142L8.70698 16.7071C8.31646 17.0977 7.6833 17.0977 7.29277 16.7071C6.90225 16.3166 6.90225 15.6834 7.29277 15.2929L10.5857 12L7.29277 8.70711C6.90225 8.31658 6.90225 7.68342 7.29277 7.29289Z" fill="currentColor" />
</svg>
