<svg width="249" height="80" viewBox="0 0 249 80" fill="none" xmlns="http://www.w3.org/2000/svg">
<g clip-path="url(#clip0_13803_4851)">
<path fill-rule="evenodd" clip-rule="evenodd" d="M24.1024 26.1987H24.7341H66.7187H66.9813L67.1665 26.3848L74.9992 34.2531L75.183 34.4377V34.6982V53.0435V53.6747H74.5513H32.6088H32.3472L32.1622 53.4898L24.2874 45.6215L24.1024 45.4366V45.1752V26.8299V26.1987ZM25.3657 28.3536V44.9138L31.9771 51.5198V34.9596L25.3657 28.3536ZM26.2591 27.461L32.8705 34.067H73.0321L66.4561 27.461H26.2591ZM73.9197 52.4124H33.2405V35.3293H73.9197V52.4124Z" fill="#e6e7eb"/>
<path d="M43.4732 45.6803C43.4732 47.0688 42.5889 48.247 40.357 48.247C39.3884 48.247 38.6304 48.0366 37.9146 47.742V45.8486C38.6304 46.2273 39.5148 46.4377 40.3149 46.4377C41.0308 46.4377 41.4098 46.2273 41.4098 45.8065C41.4098 44.5442 37.9146 44.9229 37.9146 42.3142C37.9146 40.7153 39.22 39.7054 40.9886 39.7054C41.7466 39.7054 42.4204 39.8738 43.1363 40.2945V42.3142C42.1678 41.7251 41.494 41.5147 40.9465 41.5147C40.2728 41.5147 39.9359 41.7672 39.9359 42.1459C39.8938 43.3661 43.4732 42.9033 43.4732 45.6803Z" fill="#e6e7eb"/>
<path d="M57.4119 39.9156L54.759 48.0784H52.7376L50.969 42.4402L49.1582 48.0364H47.1369L44.4839 39.8735H46.7579L48.2318 45.3435L49.9583 39.8735H51.9796L53.7062 45.3435L55.1801 39.8735H57.4119V39.9156Z" fill="#e6e7eb"/>
<path d="M70.0875 42.6929V48.0787H68.0662V43.0295C68.0662 42.1459 67.4345 41.641 66.7607 41.641C66.0448 41.641 65.4553 42.1459 65.4553 43.0295V48.0787H63.434V43.0295C63.434 42.1459 62.8023 41.641 62.1285 41.641C61.4126 41.641 60.8231 42.1459 60.8231 43.0295V48.0787H58.8018V39.9158H60.6968V40.5049C61.2863 39.9158 61.918 39.7054 62.676 39.7054C63.5182 39.7054 64.2762 40.0841 64.7815 40.7574C65.4553 40.0421 66.2975 39.7054 67.2661 39.7054C68.9084 39.7475 70.0875 40.9257 70.0875 42.6929Z" fill="#e6e7eb"/>
</g>
<path d="M94.1436 30V50" stroke="#e6e7eb" stroke-linecap="round"/>
<g>
<path d="M147.828 38.3136L149.14 30.8475H151.551C152.078 30.8475 152.502 30.9373 152.825 31.1144C153.147 31.2914 153.38 31.5291 153.523 31.8226C153.666 32.1186 153.727 32.4436 153.705 32.7977C153.691 33.2804 153.56 33.7049 153.31 34.0712C153.06 34.4375 152.716 34.7213 152.276 34.925C151.835 35.1288 151.323 35.2282 150.741 35.2282H149.268L148.725 38.3112H147.83L147.828 38.3136ZM149.395 34.5272H150.845C151.427 34.5272 151.893 34.3817 152.238 34.0906C152.582 33.7995 152.766 33.3944 152.786 32.8754C152.808 32.5115 152.706 32.2107 152.483 31.9682C152.259 31.7256 151.881 31.6043 151.347 31.6043H149.906L149.395 34.5272ZM151.847 38.3136L150.792 34.976H151.731L152.83 38.3136H151.85H151.847Z" fill="#e6e7eb"/>
<path d="M156.466 38.4398C156.017 38.4398 155.629 38.3404 155.299 38.1415C154.969 37.9426 154.719 37.6612 154.552 37.2998C154.385 36.936 154.312 36.5139 154.334 36.0312C154.356 35.5703 154.448 35.1434 154.61 34.7577C154.773 34.3696 154.996 34.03 155.277 33.739C155.559 33.4479 155.884 33.2199 156.253 33.0574C156.621 32.8948 157.024 32.8124 157.458 32.8124C157.941 32.8124 158.341 32.9118 158.659 33.1107C158.974 33.3096 159.207 33.574 159.358 33.9063C159.508 34.2362 159.571 34.6025 159.549 35.0003C159.542 35.1216 159.525 35.2574 159.501 35.4102C159.476 35.563 159.45 35.7037 159.421 35.8323H155.028L155.144 35.1386H158.664C158.712 34.8038 158.686 34.5224 158.579 34.2896C158.472 34.0592 158.312 33.8797 158.099 33.7559C157.885 33.6322 157.63 33.5692 157.33 33.5692C157.029 33.5692 156.73 33.6395 156.449 33.7778C156.168 33.916 155.925 34.1198 155.719 34.3866C155.513 34.6534 155.374 34.9857 155.304 35.3835L155.251 35.6819C155.173 36.0797 155.18 36.4314 155.273 36.7371C155.365 37.0427 155.527 37.278 155.758 37.4405C155.988 37.603 156.272 37.6855 156.607 37.6855C156.983 37.6855 157.308 37.603 157.582 37.4356C157.856 37.2683 158.069 37.0427 158.227 36.7589H159.113C158.962 37.0791 158.763 37.3677 158.511 37.6224C158.259 37.8795 157.96 38.0784 157.616 38.224C157.271 38.3695 156.888 38.4423 156.468 38.4423L156.466 38.4398Z" fill="#e6e7eb"/>
<path d="M161.905 38.4398C161.507 38.4398 161.182 38.3695 160.929 38.2312C160.677 38.0929 160.493 37.9086 160.381 37.6757C160.267 37.4453 160.219 37.1979 160.231 36.9335C160.245 36.5502 160.362 36.2179 160.582 35.9414C160.803 35.6649 161.109 35.4514 161.499 35.301C161.89 35.1506 162.339 35.0779 162.843 35.0779H164.262C164.318 34.7359 164.318 34.4545 164.258 34.2289C164.197 34.0057 164.078 33.8384 163.901 33.7268C163.724 33.6176 163.491 33.5619 163.207 33.5619C162.865 33.5619 162.557 33.6467 162.281 33.819C162.004 33.9888 161.805 34.241 161.684 34.5758H160.755C160.869 34.1925 161.055 33.8699 161.315 33.6104C161.575 33.3508 161.878 33.1519 162.227 33.0137C162.576 32.8754 162.943 32.8051 163.326 32.8051C163.809 32.8051 164.202 32.8948 164.505 33.0767C164.808 33.2586 165.014 33.5109 165.124 33.8335C165.233 34.1561 165.25 34.5394 165.172 34.9808L164.597 38.3088H163.787L163.903 37.3604C163.804 37.5108 163.687 37.649 163.556 37.7825C163.425 37.9134 163.278 38.0299 163.115 38.1293C162.952 38.2288 162.771 38.3064 162.572 38.3598C162.373 38.4131 162.152 38.4398 161.909 38.4398H161.905ZM162.171 37.683C162.421 37.683 162.659 37.6321 162.892 37.5278C163.122 37.4259 163.328 37.2852 163.51 37.1057C163.692 36.9286 163.838 36.7297 163.947 36.509C164.056 36.2883 164.117 36.0578 164.124 35.8153L164.134 35.7716H162.79C162.455 35.7716 162.169 35.8153 161.931 35.905C161.693 35.9948 161.512 36.1185 161.388 36.2786C161.264 36.4387 161.194 36.6279 161.179 36.8486C161.165 37.1057 161.242 37.307 161.414 37.4574C161.587 37.6078 161.837 37.6806 162.171 37.6806V37.683Z" fill="#e6e7eb"/>
<path d="M168.486 38.4398C168.037 38.4398 167.644 38.338 167.302 38.1366C166.96 37.9329 166.703 37.6515 166.528 37.2901C166.353 36.9262 166.278 36.5042 166.298 36.0215C166.319 35.5533 166.414 35.1216 166.586 34.731C166.756 34.3405 166.989 34.0033 167.28 33.7171C167.571 33.4333 167.904 33.2102 168.277 33.0501C168.651 32.89 169.051 32.8099 169.478 32.8099C170.118 32.8099 170.625 32.9797 170.999 33.3169C171.372 33.6541 171.567 34.1076 171.581 34.6777H170.664C170.657 34.3138 170.528 34.0422 170.276 33.8554C170.024 33.671 169.716 33.5789 169.354 33.5789C168.993 33.5789 168.631 33.6783 168.321 33.8772C168.008 34.0761 167.753 34.3526 167.559 34.7044C167.363 35.0561 167.256 35.4709 167.234 35.9463C167.219 36.2228 167.244 36.4702 167.309 36.6885C167.372 36.9044 167.469 37.0863 167.598 37.2319C167.726 37.3774 167.877 37.489 168.052 37.569C168.226 37.6466 168.42 37.6855 168.634 37.6855C168.876 37.6855 169.109 37.6418 169.332 37.5569C169.556 37.472 169.757 37.3483 169.934 37.1834C170.111 37.0208 170.247 36.8171 170.339 36.5745H171.256C171.12 36.9359 170.919 37.2585 170.647 37.5399C170.378 37.8213 170.058 38.042 169.687 38.2021C169.318 38.3622 168.918 38.4423 168.493 38.4423L168.486 38.4398Z" fill="#e6e7eb"/>
<path d="M174.298 38.3138C173.934 38.3138 173.643 38.258 173.425 38.144C173.204 38.03 173.056 37.8529 172.983 37.6103C172.908 37.3678 172.903 37.0597 172.966 36.6813L173.5 33.6954H172.636L172.775 32.9386H173.638L173.98 31.6384H174.769L174.533 32.9386H176.101L175.962 33.6954H174.395L173.862 36.6813C173.803 37.0161 173.837 37.2441 173.959 37.3629C174.08 37.4842 174.293 37.5448 174.599 37.5448H175.281L175.142 38.3138H174.301H174.298Z" fill="#e6e7eb"/>
<path d="M179.385 38.3136L180.697 30.8475H181.593L184.516 36.8825L185.571 30.8475H186.466L185.154 38.3136H184.258L181.347 32.2787L180.28 38.3136H179.385Z" fill="#e6e7eb"/>
<path d="M188.419 38.4398C188.021 38.4398 187.696 38.3695 187.443 38.2312C187.191 38.0929 187.007 37.9086 186.895 37.6757C186.781 37.4453 186.733 37.1979 186.745 36.9335C186.759 36.5502 186.876 36.2179 187.097 35.9414C187.317 35.6649 187.623 35.4514 188.014 35.301C188.404 35.1506 188.853 35.0779 189.357 35.0779H190.777C190.832 34.7359 190.832 34.4545 190.772 34.2289C190.711 34.0057 190.592 33.8384 190.415 33.7268C190.238 33.6176 190.005 33.5619 189.721 33.5619C189.379 33.5619 189.071 33.6467 188.792 33.819C188.516 33.9888 188.317 34.241 188.195 34.5758H187.266C187.38 34.1925 187.567 33.8699 187.827 33.6104C188.086 33.3508 188.39 33.1519 188.739 33.0137C189.088 32.8754 189.454 32.8051 189.838 32.8051C190.321 32.8051 190.714 32.8948 191.017 33.0767C191.32 33.2586 191.526 33.5109 191.635 33.8335C191.744 34.1561 191.761 34.5394 191.684 34.9808L191.109 38.3088H190.299L190.415 37.3604C190.316 37.5108 190.199 37.649 190.068 37.7825C189.937 37.9134 189.789 38.0299 189.627 38.1293C189.464 38.2288 189.282 38.3064 189.083 38.3598C188.884 38.4131 188.664 38.4398 188.421 38.4398H188.419ZM188.686 37.683C188.935 37.683 189.173 37.6321 189.406 37.5278C189.636 37.4259 189.843 37.2852 190.025 37.1057C190.207 36.9286 190.352 36.7297 190.461 36.509C190.57 36.2883 190.631 36.0578 190.638 35.8153L190.648 35.7716H189.304C188.969 35.7716 188.683 35.8153 188.445 35.905C188.208 35.9948 188.026 36.1185 187.902 36.2786C187.778 36.4387 187.708 36.6279 187.693 36.8486C187.679 37.1057 187.756 37.307 187.929 37.4574C188.101 37.6078 188.351 37.6806 188.686 37.6806V37.683Z" fill="#e6e7eb"/>
<path d="M194.689 38.3138C194.326 38.3138 194.035 38.258 193.814 38.144C193.593 38.03 193.445 37.8529 193.372 37.6103C193.297 37.3678 193.292 37.0597 193.355 36.6813L193.889 33.6954H193.025L193.164 32.9386H194.027L194.369 31.6384H195.158L194.922 32.9386H196.489L196.351 33.6954H194.784L194.25 36.6813C194.195 37.0161 194.226 37.2441 194.347 37.3629C194.469 37.4842 194.682 37.5448 194.988 37.5448H195.67L195.531 38.3138H194.689Z" fill="#e6e7eb"/>
<path d="M196.8 38.3136L197.748 32.9384H198.644L197.695 38.3136H196.8ZM198.508 31.7959C198.331 31.7959 198.185 31.7402 198.071 31.6262C197.957 31.5121 197.896 31.3666 197.889 31.1895C197.889 31.0125 197.947 30.8669 198.066 30.7529C198.183 30.6389 198.331 30.5831 198.508 30.5831C198.685 30.5831 198.823 30.6389 198.944 30.7529C199.066 30.8669 199.126 31.0125 199.126 31.1895C199.134 31.3666 199.075 31.5121 198.949 31.6262C198.825 31.7402 198.678 31.7959 198.508 31.7959Z" fill="#e6e7eb"/>
<path d="M200.897 38.3137L199.745 32.9385H200.672L201.567 37.4599L204.051 32.9385H204.99L201.94 38.3137H200.895H200.897Z" fill="#e6e7eb"/>
<path d="M207.221 38.4398C206.772 38.4398 206.384 38.3404 206.054 38.1415C205.725 37.9426 205.475 37.6612 205.307 37.2998C205.14 36.936 205.067 36.5139 205.089 36.0312C205.111 35.5703 205.203 35.1434 205.366 34.7577C205.528 34.3696 205.751 34.03 206.033 33.739C206.314 33.4479 206.639 33.2199 207.008 33.0574C207.377 32.8948 207.779 32.8124 208.213 32.8124C208.696 32.8124 209.096 32.9118 209.414 33.1107C209.73 33.3096 209.962 33.574 210.113 33.9063C210.263 34.2362 210.326 34.6025 210.304 35.0003C210.297 35.1216 210.28 35.2574 210.256 35.4102C210.232 35.563 210.205 35.7037 210.176 35.8323H205.783L205.899 35.1386H209.419C209.468 34.8038 209.441 34.5224 209.334 34.2896C209.227 34.0592 209.067 33.8797 208.854 33.7559C208.64 33.6322 208.386 33.5692 208.085 33.5692C207.784 33.5692 207.486 33.6395 207.204 33.7778C206.923 33.916 206.68 34.1198 206.474 34.3866C206.268 34.6534 206.13 34.9857 206.059 35.3835L206.006 35.6819C205.928 36.0797 205.936 36.4314 206.028 36.7371C206.12 37.0427 206.282 37.278 206.513 37.4405C206.743 37.603 207.027 37.6855 207.362 37.6855C207.738 37.6855 208.063 37.603 208.337 37.4356C208.611 37.2683 208.825 37.0427 208.982 36.7589H209.868C209.717 37.0791 209.519 37.3677 209.266 37.6224C209.014 37.8795 208.716 38.0784 208.371 38.224C208.027 38.3695 207.643 38.4423 207.224 38.4423L207.221 38.4398Z" fill="#e6e7eb"/>
<path d="M145.113 53.1077L146.833 43.4027H153.113L152.822 45.0667H148.621L148.218 47.3953H151.99L151.714 48.9623H147.929L147.485 51.4437H151.687L151.396 53.1077H145.115H145.113Z" fill="#e6e7eb"/>
<path d="M152.405 53.1075L155.566 49.6L153.625 46.1193H155.857L157.077 48.3654L159.074 46.1193H161.32L158.145 49.6122L160.085 53.1051H157.839L156.645 50.8444L154.622 53.1051H152.403L152.405 53.1075Z" fill="#e6e7eb"/>
<path d="M164.316 53.275C163.659 53.275 163.098 53.1465 162.632 52.8869C162.167 52.6274 161.812 52.2611 161.572 51.7857C161.332 51.3103 161.225 50.7621 161.255 50.1435C161.281 49.5614 161.407 49.018 161.628 48.5135C161.849 48.009 162.152 47.5651 162.535 47.1818C162.919 46.7986 163.37 46.4978 163.887 46.2795C164.403 46.0636 164.978 45.9545 165.606 45.9545C166.235 45.9545 166.79 46.083 167.241 46.3426C167.695 46.6021 168.035 46.9563 168.26 47.4026C168.486 47.8513 168.585 48.3704 168.559 48.9623C168.549 49.166 168.527 49.3698 168.488 49.5711C168.452 49.7748 168.411 49.9592 168.365 50.1266H162.708L162.928 48.9065H166.492C166.528 48.6396 166.499 48.4092 166.402 48.22C166.305 48.0308 166.164 47.8828 165.98 47.7761C165.796 47.6694 165.573 47.616 165.315 47.616C165.019 47.616 164.74 47.6864 164.476 47.8246C164.212 47.9629 163.984 48.1739 163.79 48.4553C163.595 48.7367 163.467 49.0908 163.401 49.5153L163.331 49.918C163.275 50.2406 163.287 50.5316 163.365 50.7839C163.443 51.0386 163.586 51.2351 163.794 51.3733C164.003 51.5116 164.267 51.5819 164.592 51.5819C164.898 51.5819 165.158 51.5213 165.376 51.4024C165.592 51.2836 165.776 51.1259 165.924 50.9319H168.059C167.838 51.3661 167.54 51.7639 167.164 52.1253C166.79 52.4867 166.358 52.7681 165.873 52.9718C165.388 53.1756 164.869 53.2775 164.314 53.2775L164.316 53.275Z" fill="#e6e7eb"/>
<path d="M172.843 53.275C172.185 53.275 171.622 53.1416 171.152 52.8724C170.681 52.6031 170.325 52.2344 170.084 51.7639C169.844 51.2933 169.742 50.7475 169.779 50.129C169.805 49.5371 169.934 48.9914 170.16 48.4941C170.385 47.9944 170.693 47.5554 171.081 47.177C171.47 46.7986 171.921 46.5002 172.433 46.2819C172.944 46.0661 173.512 45.9569 174.131 45.9569C175.036 45.9569 175.763 46.2043 176.307 46.6992C176.852 47.194 177.129 47.8804 177.139 48.7585H174.934C174.924 48.4359 174.817 48.1836 174.616 48.0041C174.412 47.8246 174.145 47.7349 173.81 47.7349C173.459 47.7349 173.143 47.8319 172.86 48.026C172.578 48.22 172.353 48.4844 172.188 48.8167C172.023 49.149 171.928 49.5274 171.911 49.9544C171.901 50.1848 171.921 50.3958 171.967 50.585C172.013 50.7742 172.088 50.9392 172.195 51.0774C172.302 51.2157 172.433 51.3224 172.59 51.3952C172.748 51.4704 172.927 51.5068 173.131 51.5068C173.362 51.5068 173.575 51.4655 173.769 51.383C173.963 51.3006 174.136 51.1817 174.288 51.0289C174.441 50.8761 174.558 50.6942 174.643 50.4807H176.848C176.634 51.0435 176.333 51.5359 175.94 51.9579C175.547 52.3776 175.084 52.705 174.553 52.9355C174.022 53.1659 173.451 53.2823 172.84 53.2823L172.843 53.275Z" fill="#e6e7eb"/>
<path d="M180.622 53.2749C180.013 53.2749 179.528 53.1463 179.174 52.8868C178.817 52.6273 178.582 52.2658 178.468 51.7977C178.352 51.332 178.344 50.7789 178.446 50.141L179.155 46.1217H181.221L180.557 49.9348C180.474 50.4515 180.511 50.8468 180.668 51.1209C180.826 51.3926 181.134 51.5309 181.597 51.5309C181.893 51.5309 182.165 51.4654 182.415 51.3368C182.665 51.2083 182.876 51.0215 183.053 50.7741C183.227 50.5291 183.344 50.2307 183.4 49.879L184.052 46.1217H186.131L184.911 53.11H183.094V52.0572C182.818 52.4186 182.473 52.7121 182.061 52.9377C181.648 53.1633 181.17 53.2773 180.625 53.2773L180.622 53.2749Z" fill="#e6e7eb"/>
<path d="M188.996 53.1077L190.411 45.0521H187.597L187.888 43.4027H195.611L195.32 45.0521H192.506L191.078 53.1077H188.999H188.996Z" fill="#e6e7eb"/>
<path d="M197.591 53.275C196.953 53.275 196.4 53.1343 195.934 52.853C195.468 52.5716 195.114 52.1811 194.874 51.6814C194.634 51.1817 194.527 50.6238 194.556 50.0028C194.583 49.4304 194.706 48.8967 194.922 48.4019C195.138 47.9071 195.437 47.4802 195.818 47.1188C196.196 46.7573 196.635 46.4735 197.135 46.2649C197.634 46.0563 198.161 45.952 198.716 45.952C199.364 45.952 199.92 46.0903 200.388 46.3668C200.854 46.6433 201.213 47.0266 201.462 47.5166C201.712 48.0065 201.819 48.5741 201.78 49.2218C201.761 49.8039 201.642 50.34 201.419 50.83C201.198 51.32 200.895 51.7444 200.511 52.1059C200.128 52.4673 199.689 52.7511 199.194 52.9597C198.699 53.1683 198.166 53.2726 197.593 53.2726L197.591 53.275ZM197.87 51.4728C198.202 51.4728 198.498 51.3806 198.758 51.1962C199.017 51.0119 199.223 50.7548 199.381 50.4273C199.539 50.0999 199.626 49.7215 199.645 49.297C199.672 48.9647 199.641 48.6857 199.548 48.4577C199.456 48.2321 199.318 48.0575 199.134 47.9386C198.949 47.8198 198.731 47.7591 198.481 47.7591C198.158 47.7591 197.865 47.8537 197.6 48.0429C197.336 48.2321 197.127 48.4892 196.97 48.8118C196.812 49.1345 196.72 49.5153 196.693 49.9495C196.684 50.2648 196.725 50.534 196.817 50.7596C196.909 50.9852 197.047 51.1623 197.232 51.286C197.416 51.4097 197.63 51.4728 197.87 51.4728Z" fill="#e6e7eb"/>
<path d="M202.777 53.1076L203.997 46.1194H205.841L205.826 47.3662C206.057 47.0799 206.316 46.8301 206.603 46.6167C206.889 46.4032 207.207 46.2407 207.551 46.1242C207.898 46.0078 208.264 45.952 208.653 45.952L208.264 48.1569H207.559C207.289 48.1569 207.037 48.186 206.797 48.2467C206.557 48.3073 206.343 48.4043 206.159 48.5378C205.974 48.6712 205.817 48.8555 205.688 49.0859C205.56 49.3164 205.467 49.6026 205.412 49.9446L204.856 53.1052H202.777V53.1076Z" fill="#e6e7eb"/>
<path d="M212.039 53.275C211.381 53.275 210.819 53.1416 210.348 52.8724C209.877 52.6031 209.521 52.2344 209.281 51.7639C209.041 51.2933 208.939 50.7475 208.975 50.129C209.002 49.5371 209.13 48.9914 209.356 48.4941C209.582 47.9944 209.89 47.5554 210.278 47.177C210.666 46.7986 211.117 46.5002 211.629 46.2819C212.143 46.0661 212.708 45.9569 213.327 45.9569C214.232 45.9569 214.96 46.2043 215.503 46.6992C216.049 47.194 216.325 47.8804 216.335 48.7585H214.13C214.12 48.4359 214.014 48.1836 213.812 48.0041C213.608 47.8246 213.342 47.7349 213.007 47.7349C212.655 47.7349 212.34 47.8319 212.056 48.026C211.774 48.22 211.549 48.4844 211.384 48.8167C211.217 49.149 211.124 49.5274 211.107 49.9544C211.098 50.1848 211.117 50.3958 211.163 50.585C211.209 50.7742 211.284 50.9392 211.391 51.0774C211.498 51.2157 211.629 51.3224 211.787 51.3952C211.944 51.4704 212.124 51.5068 212.328 51.5068C212.558 51.5068 212.771 51.4655 212.966 51.383C213.16 51.3006 213.332 51.1817 213.485 51.0289C213.638 50.8761 213.754 50.6942 213.839 50.4807H216.044C215.83 51.0435 215.53 51.5359 215.137 51.9579C214.744 52.3776 214.28 52.705 213.749 52.9355C213.218 53.1659 212.648 53.2823 212.036 53.2823L212.039 53.275Z" fill="#e6e7eb"/>
<path d="M217.196 53.1077L218.943 43.1262H221.022L220.316 47.1043C220.602 46.7719 220.954 46.4978 221.369 46.2795C221.784 46.0637 222.247 45.9545 222.756 45.9545C223.348 45.9545 223.821 46.0782 224.178 46.3281C224.534 46.5779 224.772 46.9393 224.891 47.4099C225.012 47.8805 225.012 48.4578 224.891 49.1418L224.185 53.1077H222.118L222.797 49.3237C222.88 48.8071 222.839 48.4068 222.674 48.1254C222.506 47.8441 222.189 47.7034 221.718 47.7034C221.422 47.7034 221.15 47.7762 220.901 47.9193C220.651 48.0624 220.442 48.2589 220.277 48.5087C220.11 48.7585 219.991 49.0593 219.916 49.411L219.278 53.1125H217.199L217.196 53.1077Z" fill="#e6e7eb"/>
<path d="M128.455 36.2034C128.744 37.814 128.263 39.6842 127.56 41.0013C126.303 43.3566 124.477 44.0745 122.208 45.2777C121.466 45.6221 119.686 46.26 118.975 46.6384C114.169 49.1975 115.389 52.6952 118.048 54.6091C119.327 55.5284 120.935 56.0814 122.371 55.9868C117.124 56.324 109.495 48.0793 114.555 43.7228C118.713 40.145 124.945 40.8048 128.455 36.2034Z" fill="#e6e7eb"/>
<path d="M124.467 55.4337C124.838 53.4956 126.56 52.1712 127.999 50.9681C138.146 42.5875 126.014 38.6895 130.687 29.688C130.687 29.688 130.645 31.5266 131.526 33.2585C132.872 35.9049 134.468 36.0165 136.989 39.5555C138.047 41.0424 138.345 42.915 137.855 44.659C136.089 50.9317 127.395 49.959 124.467 55.4361V55.4337Z" fill="#e6e7eb"/>
<path d="M124.469 55.4385C122.162 44.4407 132.099 47.1477 130.206 37.4548C132.019 41.6027 133.789 43.9774 130.803 48.3071C128.969 50.9656 125.529 52.3143 124.469 55.4385Z" fill="#e6e7eb"/>
<path d="M122.371 55.9867C119.154 56.2293 114.344 53.1221 115.991 49.3114C116.983 47.0168 119.586 46.3667 121.665 45.4158C123.545 44.5547 125.204 43.6645 126.708 42.2722C122.728 47.0507 118.781 49.2095 122.371 55.9867Z" fill="#e6e7eb"/>
<path d="M120.78 35.0683C124.319 31.7937 124.581 28.3905 122.553 24.3058C122.466 24.1287 122.393 24.0001 122.393 24.0001C129.527 26.5204 126.478 32.8973 120.78 35.0683Z" fill="#e6e7eb"/>
<path d="M118.177 38.8498C119.043 34.8718 123.004 34.343 125.287 31.6263C127.312 29.0381 126.553 26.1734 123.936 24.6865C125.99 25.8557 127.916 27.5658 128.295 29.8483C129.122 35.4321 122.829 38.4981 118.177 38.8474V38.8498Z" fill="#e6e7eb"/>
</g>
<defs>
<clipPath id="clip0_13803_4851">
<rect width="51.3754" height="27.7705" fill="white" transform="translate(24.0181 26.1147)"/>
</clipPath>
</defs>
</svg>
