<svg width="21" height="20" viewBox="0 0 21 20" fill="none" xmlns="http://www.w3.org/2000/svg">
<path d="M12.1667 17.5V14.1666C12.1667 13.7064 11.7936 13.3333 11.3333 13.3333H9.66667C9.20643 13.3333 8.83333 13.7064 8.83333 14.1666V17.5C8.83333 17.9602 8.46024 18.3333 8 18.3333C7.53976 18.3333 7.16667 17.9602 7.16667 17.5V15.8333H6.84847C5.96182 15.8333 5.15108 15.3324 4.75456 14.5393C4.64036 14.3109 4.40689 14.1666 4.15153 14.1666H3.83333C3.3731 14.1666 3 13.7935 3 13.3333C3 12.8731 3.3731 12.5 3.83333 12.5H4.15153C5.03818 12.5 5.84892 13.0009 6.24544 13.7939C6.35964 14.0223 6.59311 14.1666 6.84847 14.1666H7.16667C7.16667 13.7004 7.296 13.265 7.51823 12.8914C6.46803 12.5569 5.53914 12.0318 4.84489 11.3045C4.18072 10.6086 3.74064 9.73651 3.63558 8.71822C3.54139 7.8049 3.72162 6.82228 4.18083 5.79342C4.11374 5.55586 4.07702 5.30713 4.05713 5.07402C4.02393 4.68488 4.03324 4.26592 4.0791 3.8704C4.12452 3.47882 4.20895 3.07709 4.34115 2.73189C4.45358 2.43834 4.67769 1.97671 5.13135 1.75289C5.24598 1.69636 5.37218 1.66663 5.5 1.66663C5.857 1.66662 6.28418 1.78777 6.63607 1.90507C7.01842 2.03254 7.43248 2.1986 7.80713 2.35917C8.18403 2.52071 8.53259 2.68177 8.78613 2.80188C8.87941 2.84607 8.96031 2.88507 9.02539 2.91663H11.9746C12.0397 2.88507 12.1206 2.84607 12.2139 2.80188C12.4674 2.68177 12.816 2.52071 13.1929 2.35917C13.5675 2.19861 13.9816 2.03253 14.3639 1.90507C14.7158 1.78778 15.143 1.66662 15.5 1.66663L15.5968 1.67232C15.6926 1.68353 15.786 1.71118 15.8727 1.75452C16.1207 1.87851 16.2832 2.07299 16.3846 2.22408C16.4914 2.38327 16.573 2.55926 16.6361 2.72782C16.7625 3.06564 16.8481 3.46255 16.8973 3.85331C16.9469 4.24736 16.9633 4.66716 16.9355 5.05855C16.9188 5.29412 16.8845 5.54833 16.8175 5.79179C17.2774 6.82136 17.4587 7.80432 17.3644 8.71822C17.2594 9.73651 16.8193 10.6086 16.1551 11.3045C15.4607 12.032 14.5315 12.5569 13.481 12.8914C13.7033 13.2651 13.8333 13.7002 13.8333 14.1666V17.5C13.8333 17.9602 13.4602 18.3333 13 18.3333C12.5398 18.3333 12.1667 17.9602 12.1667 17.5ZM5.86947 3.41142C5.81372 3.58215 5.76489 3.8064 5.73519 4.06246C5.70084 4.35863 5.6945 4.6653 5.71729 4.93241C5.74137 5.21458 5.79257 5.38816 5.82878 5.46057C5.94608 5.69517 5.94606 5.97141 5.82878 6.20601C5.36207 7.13943 5.22918 7.91802 5.29411 8.54732C5.35831 9.16957 5.62146 9.70384 6.05094 10.1538C6.93295 11.0777 8.55113 11.6666 10.5 11.6666C12.4489 11.6666 14.0671 11.0777 14.9491 10.1538C15.3785 9.70384 15.6417 9.16957 15.7059 8.54732C15.7708 7.91802 15.6379 7.13943 15.1712 6.20601C15.0539 5.97141 15.0539 5.69517 15.1712 5.46057C15.204 5.39494 15.2535 5.22596 15.2738 4.94055C15.2928 4.67191 15.2815 4.36227 15.2437 4.06165C15.2122 3.81171 15.1633 3.5898 15.1094 3.41711C15.0419 3.43679 14.9691 3.45955 14.8913 3.48547C14.5706 3.59235 14.2032 3.73886 13.8488 3.89075C13.4967 4.04167 13.1679 4.19316 12.9268 4.30741C12.8065 4.36439 12.7085 4.41203 12.6411 4.44495L12.5451 4.49296C12.543 4.49399 12.5411 4.49412 12.5402 4.49459L12.5394 4.4954C12.4237 4.55326 12.296 4.58329 12.1667 4.58329H8.83333C8.73626 4.58329 8.64012 4.56656 8.54932 4.53365L8.46061 4.4954L8.4598 4.49459C8.45887 4.49412 8.45699 4.49399 8.45492 4.49296L8.35889 4.44495C8.2915 4.41203 8.19352 4.36439 8.07324 4.30741C7.83206 4.19316 7.50332 4.04167 7.1512 3.89075C6.79682 3.73886 6.42936 3.59236 6.10872 3.48547C6.02278 3.45683 5.94271 3.43241 5.86947 3.41142Z" fill="currentColor"/>
</svg>
