<svg width="24" height="24" viewBox="0 0 24 24" fill="none" xmlns="http://www.w3.org/2000/svg">
<path d="M6.44719 10.6008C6.83769 10.2105 7.47077 10.2105 7.86125 10.6008C8.25169 10.9913 8.25162 11.6244 7.86125 12.0149L5.85441 14.0227C4.71564 15.1615 4.71565 17.007 5.85441 18.1457L5.96281 18.2492C7.10749 19.2836 8.87423 19.249 9.97746 18.1457L11.9853 16.1389C12.3758 15.7485 13.0089 15.7485 13.3993 16.1389C13.7898 16.5294 13.7897 17.1624 13.3993 17.553L11.3925 19.5608C9.53262 21.4207 6.55275 21.4784 4.62297 19.7346L4.43938 19.5608C2.51956 17.641 2.51956 14.5275 4.43938 12.6076L6.44719 10.6008ZM14.1376 8.4553C14.5304 8.13493 15.1104 8.15851 15.4765 8.52464C15.8666 8.91518 15.8668 9.5483 15.4765 9.9387L9.9384 15.4768C9.548 15.8672 8.91489 15.8669 8.52434 15.4768C8.13381 15.0863 8.13381 14.4532 8.52434 14.0627L14.0614 8.52464L14.1376 8.4553ZM12.7909 4.26585C14.7207 2.52208 17.7006 2.57979 19.5605 4.43968L19.7343 4.62327C21.4219 6.49087 21.4219 9.34162 19.7343 11.2092L19.5605 11.3928L17.5527 13.3996C17.1621 13.7901 16.5291 13.7901 16.1386 13.3996C15.7482 13.0091 15.7482 12.3761 16.1386 11.9856L18.1454 9.97776L18.2489 9.86937C19.25 8.76156 19.25 7.07092 18.2489 5.96312L18.1454 5.85472C17.0422 4.75148 15.2755 4.71682 14.1308 5.7512L14.0224 5.85472L12.0146 7.86155C11.6241 8.25197 10.991 8.25201 10.6005 7.86155C10.2101 7.47105 10.2101 6.83799 10.6005 6.44749L12.6073 4.43968L12.7909 4.26585Z" fill="currentColor"/>
</svg>
