<svg width="16" height="20" viewBox="0 0 16 20" fill="none" xmlns="http://www.w3.org/2000/svg">
<path d="M11 5C11 4.49336 10.84 3.71081 10.3887 3.08398C9.97406 2.50819 9.274 2 8 2C6.726 2 6.02594 2.50819 5.61133 3.08398C5.16001 3.71081 5 4.49336 5 5V6H11V5ZM2 18H14V8H2V18ZM7 14V12C7 11.4477 7.44772 11 8 11C8.55229 11 9 11.4477 9 12V14C9 14.5523 8.55229 15 8 15C7.44772 15 7 14.5523 7 14ZM13 6H15C15.5523 6 16 6.44772 16 7V19C16 19.5523 15.5523 20 15 20H1C0.447715 20 0 19.5523 0 19V7C0 6.44772 0.447715 6 1 6H3V5C3 4.17339 3.23977 2.95579 3.98828 1.91602C4.77368 0.825186 6.07408 0 8 0C9.92592 0 11.2263 0.825186 12.0117 1.91602C12.7602 2.95579 13 4.17339 13 5V6Z" fill="currentColor" fill-opacity="0.6"/>
</svg>
