<svg width="15" height="14" viewBox="0 0 15 14" fill="none" xmlns="http://www.w3.org/2000/svg">
<path d="M9.5 12.9999V12.3333H8.16667V12.9999C8.16667 13.3681 7.86819 13.6666 7.5 13.6666C7.13181 13.6666 6.83334 13.3681 6.83334 12.9999V12.3333H5.5V12.9999C5.5 13.3681 5.20153 13.6666 4.83334 13.6666C4.46515 13.6666 4.16667 13.3681 4.16667 12.9999V12.3333H2.83334C2.46515 12.3333 2.16667 12.0348 2.16667 11.6666V10.3333H1.5C1.13181 10.3333 0.833336 10.0348 0.833336 9.66659C0.833336 9.2984 1.13181 8.99992 1.5 8.99992H2.16667V7.66659H1.5C1.13181 7.66659 0.833336 7.36811 0.833336 6.99992C0.833336 6.63173 1.13181 6.33325 1.5 6.33325H2.16667V4.99992H1.5C1.13181 4.99992 0.833336 4.70144 0.833336 4.33325C0.833336 3.96506 1.13181 3.66659 1.5 3.66659H2.16667V2.33325L2.16992 2.26489C2.20415 1.92881 2.48822 1.66659 2.83334 1.66659H4.16667V0.999919C4.16667 0.631729 4.46515 0.333252 4.83334 0.333252C5.20153 0.333252 5.5 0.631729 5.5 0.999919V1.66659H6.83334V0.999919C6.83334 0.631729 7.13181 0.333252 7.5 0.333252C7.86819 0.333252 8.16667 0.631729 8.16667 0.999919V1.66659H9.5V0.999919C9.5 0.631729 9.79848 0.333252 10.1667 0.333252C10.5349 0.333252 10.8333 0.631729 10.8333 0.999919V1.66659H12.1667L12.235 1.66984C12.5711 1.70406 12.8333 1.98813 12.8333 2.33325V3.66659H13.5C13.8682 3.66659 14.1667 3.96506 14.1667 4.33325C14.1667 4.70144 13.8682 4.99992 13.5 4.99992H12.8333V6.33325H13.5C13.8682 6.33325 14.1667 6.63173 14.1667 6.99992C14.1667 7.36811 13.8682 7.66659 13.5 7.66659H12.8333V8.99992H13.5C13.8682 8.99992 14.1667 9.2984 14.1667 9.66659C14.1667 10.0348 13.8682 10.3333 13.5 10.3333H12.8333V11.6666C12.8333 12.0348 12.5349 12.3333 12.1667 12.3333H10.8333V12.9999C10.8333 13.3681 10.5349 13.6666 10.1667 13.6666C9.79848 13.6666 9.5 13.3681 9.5 12.9999ZM3.5 10.9999H11.5V2.99992H3.5V10.9999ZM9.5 4.33325C9.86819 4.33325 10.1667 4.63173 10.1667 4.99992V8.99992C10.1667 9.17673 10.0964 9.34625 9.97136 9.47127C9.84633 9.5963 9.67681 9.66659 9.5 9.66659H5.5C5.13181 9.66659 4.83334 9.36811 4.83334 8.99992V4.99992C4.83334 4.63173 5.13181 4.33325 5.5 4.33325H9.5ZM6.16667 8.33325H8.83334V5.66659H6.16667V8.33325Z" fill="currentColor" fill-opacity="0.8"/>
</svg>
