<svg width="20" height="20" viewBox="0 0 20 20" fill="none" xmlns="http://www.w3.org/2000/svg">
<path d="M10 2.5C13.1488 2.50003 15.8428 4.44046 16.9548 7.1875C17.1272 7.61395 16.9213 8.09954 16.495 8.2723C16.0683 8.44499 15.582 8.23911 15.4093 7.8125C14.5433 5.67331 12.4467 4.16669 10 4.16667C8.12917 4.16667 6.27717 5.27398 5.00081 6.66667H7.5C7.96024 6.66667 8.33333 7.03976 8.33333 7.5C8.33333 7.96024 7.96024 8.33333 7.5 8.33333H3.33333C2.8731 8.33333 2.5 7.96024 2.5 7.5V3.33333C2.5 2.8731 2.8731 2.5 3.33333 2.5C3.79357 2.5 4.16667 2.8731 4.16667 3.33333V5.13265C5.6707 3.66063 7.75295 2.5 10 2.5ZM17.5 16.6667C17.5 17.1269 17.1269 17.5 16.6667 17.5C16.2065 17.5 15.8333 17.1269 15.8333 16.6667V14.8665C14.3293 16.3387 12.2472 17.5 10 17.5C6.8512 17.4999 4.15721 15.5595 3.04525 12.8125C2.87281 12.3861 3.07876 11.9005 3.50505 11.7277C3.93166 11.555 4.41797 11.7609 4.59066 12.1875C5.45667 14.3267 7.55336 15.8333 10 15.8333C11.8708 15.8333 13.7228 14.726 14.9992 13.3333H12.5C12.0398 13.3333 11.6667 12.9602 11.6667 12.5C11.6667 12.0398 12.0398 11.6667 12.5 11.6667H16.6667C17.1269 11.6667 17.5 12.0398 17.5 12.5V16.6667Z" fill="currentColor"/>
</svg>
