<svg width="20" height="20" viewBox="0 0 20 20" fill="none" xmlns="http://www.w3.org/2000/svg">
<path fill-rule="evenodd" clip-rule="evenodd" d="M9.1665 3.33341C5.94484 3.33341 3.33317 5.94509 3.33317 9.16675C3.33317 12.3884 5.94484 15.0001 9.1665 15.0001C10.7776 15.0001 12.2347 14.3481 13.2913 13.2915C14.3478 12.235 14.9998 10.7778 14.9998 9.16675C14.9998 5.94509 12.3882 3.33341 9.1665 3.33341ZM1.6665 9.16675C1.6665 5.02461 5.02437 1.66675 9.1665 1.66675C13.3086 1.66675 16.6665 5.02461 16.6665 9.16675C16.6665 10.9373 16.0522 12.5654 15.0264 13.8481L17.2558 16.0775C17.5812 16.4029 17.5812 16.9306 17.2558 17.256C16.9303 17.5814 16.4027 17.5814 16.0773 17.256L13.8479 15.0266C12.5652 16.0525 10.937 16.6667 9.1665 16.6667C5.02437 16.6667 1.6665 13.3089 1.6665 9.16675Z" fill="currentColor"/>
</svg>
