<svg width="20" height="20" viewBox="0 0 20 20" fill="none" xmlns="http://www.w3.org/2000/svg">
<path d="M2.75469 3.15017C2.99824 2.91521 3.35973 2.85091 3.6694 2.98741L17.8361 9.23741C18.1381 9.37066 18.3333 9.66981 18.3333 9.99994C18.3333 10.3301 18.1381 10.6292 17.8361 10.7625L3.6694 17.0125C3.35973 17.149 2.99824 17.0847 2.75469 16.8497C2.51114 16.6145 2.43376 16.2551 2.55938 15.9407L4.93568 9.99994L2.55938 4.05918C2.43376 3.74481 2.51114 3.38534 2.75469 3.15017ZM6.60723 9.69069C6.68655 9.8892 6.68655 10.1107 6.60723 10.3092L4.86488 14.663L15.4354 9.99994L4.86488 5.33604L6.60723 9.69069Z" fill="currentColor"/>
</svg>
