<svg width="20" height="19" viewBox="0 0 20 19" fill="none" xmlns="http://www.w3.org/2000/svg">
<path fill-rule="evenodd" clip-rule="evenodd" d="M10 0C10.3513 0 10.6768 0.184299 10.8575 0.485504L13.6199 5.08952L19.1644 6.01361C19.5143 6.07193 19.8072 6.31129 19.934 6.64263C20.0608 6.97396 20.0025 7.34767 19.7809 7.62469L16.0598 12.276L16.9864 17.8356C17.0482 18.2066 16.8967 18.5809 16.5941 18.8044C16.2916 19.0278 15.8892 19.0626 15.5528 18.8944L10 16.118L4.44723 18.8944C4.11081 19.0626 3.70846 19.0278 3.40591 18.8044C3.10336 18.5809 2.95178 18.2066 3.01362 17.8356L3.94021 12.276L0.219143 7.62469C-0.00247703 7.34767 -0.0607335 6.97396 0.0660497 6.64263C0.192833 6.31129 0.485675 6.07193 0.835613 6.01361L6.38011 5.08952L9.14252 0.485504C9.32324 0.184299 9.64875 0 10 0ZM10 2.94365L7.8575 6.5145C7.70676 6.76574 7.45342 6.93823 7.16441 6.98639L2.84559 7.7062L5.78088 11.3753C5.95839 11.5972 6.03312 11.8841 5.98641 12.1644L5.30925 16.2273L9.5528 14.1056C9.83433 13.9648 10.1657 13.9648 10.4472 14.1056L14.6908 16.2273L14.0136 12.1644C13.9669 11.8841 14.0416 11.5972 14.2191 11.3753L17.1544 7.7062L12.8356 6.98639C12.5466 6.93823 12.2933 6.76574 12.1425 6.5145L10 2.94365Z" fill="currentColor"/>
</svg>
