<svg width="140" height="28" viewBox="0 0 140 28" fill="none" xmlns="http://www.w3.org/2000/svg">
<path d="M12 28V0H20.72V4.04H27.24V0H35.96V28H27.24V17.92H20.72V28H12ZM20.72 13.88V8.08H27.24V13.88H20.72Z" fill="white"/>
<path d="M41 28V0H62V4.04H49.72V11.88H60.92V15.92H49.72V23.96H62V28H41Z" fill="white"/>
<path d="M85.44 28H76.72L67 0H76.32L81.08 14.84L85.84 0H95.16L85.44 28Z" fill="white"/>
<path d="M100.033 28V0H108.753V23.96H120.353V28H100.033Z" fill="white"/>
<path d="M125.793 28V0H134.513V28H125.793Z" fill="white"/>
<path d="M0 28V0H12V4.04H27.24V0H35.96V28H27.24V17.92H12V28H0ZM20.72 13.88V8.08H27.24V13.88H20.72Z" fill="white"/>
</svg>
