<svg width="265" height="82" viewBox="0 0 265 82" fill="none" xmlns="http://www.w3.org/2000/svg">
<path d="M225.529 33.9676V21.7474H232.931V23.0742H226.891V32.6409H232.896V33.9676H225.529ZM226.158 28.3463V27.0196H231.954V28.3463H226.158Z" fill="#001A72"/>
<path d="M215.113 33.9676L210.382 21.7474H211.918L214.955 29.708C215.095 30.0688 215.217 30.3889 215.322 30.6682C215.427 30.9475 215.52 31.2152 215.601 31.4712C215.695 31.7156 215.782 31.96 215.863 32.2044C215.945 32.4488 216.032 32.7165 216.125 33.0075L215.671 33.0249C215.788 32.6292 215.898 32.2626 216.003 31.9251C216.119 31.5876 216.236 31.2443 216.352 30.8951C216.48 30.5343 216.637 30.1154 216.823 29.6382L219.844 21.7474H221.38L216.509 33.9676H215.113Z" fill="#001A72"/>
<path d="M201.49 33.9676V32.6758H203.463V23.0393H201.49V21.7474H206.797V23.0393H204.824V32.6758H206.797V33.9676H201.49Z" fill="#001A72"/>
<path d="M192.85 33.9676V23.0742H189.358V21.7474H197.843V23.0742H194.212V33.9676H192.85Z" fill="#001A72"/>
<path d="M176.474 33.9676L181.153 21.7474H182.706L187.35 33.9676H185.866L182.881 26.042C182.799 25.8208 182.706 25.5648 182.602 25.2738C182.508 24.9712 182.404 24.6628 182.287 24.3486C182.183 24.0227 182.078 23.7085 181.973 23.4059C181.88 23.1033 181.793 22.8356 181.711 22.6029H182.06C181.967 22.8938 181.868 23.1906 181.764 23.4932C181.671 23.7841 181.572 24.0809 181.467 24.3835C181.362 24.6745 181.257 24.9654 181.153 25.2564C181.048 25.5473 180.943 25.8383 180.838 26.1293L177.871 33.9676H176.474ZM178.464 30.5983L178.97 29.2716H184.749L185.307 30.5983H178.464Z" fill="#001A72"/>
<path d="M162.174 33.9676V21.7474H163.414L171.409 32.3266L171.165 32.6409C171.13 32.4547 171.101 32.1753 171.078 31.8029C171.066 31.4305 171.049 31.0115 171.025 30.546C171.014 30.0688 171.002 29.5742 170.99 29.0621C170.979 28.55 170.967 28.0496 170.956 27.5608C170.956 27.072 170.956 26.6297 170.956 26.234V21.7474H172.317V33.9676H171.043L163.082 23.5281L163.292 23.1615C163.327 23.627 163.356 24.0867 163.379 24.5406C163.414 24.9945 163.437 25.431 163.449 25.8499C163.472 26.2689 163.49 26.653 163.501 27.0021C163.513 27.3513 163.519 27.648 163.519 27.8925C163.53 28.1369 163.536 28.3114 163.536 28.4162V33.9676H162.174Z" fill="#001A72"/>
<path d="M146.145 33.9676V23.0742H142.654V21.7474H151.138V23.0742H147.507V33.9676H146.145Z" fill="#001A72"/>
<path d="M135.273 34.1422C134.4 34.1422 133.597 33.9909 132.864 33.6883C132.131 33.3741 131.496 32.9376 130.961 32.379C130.426 31.8087 130.007 31.1395 129.704 30.3714C129.413 29.6033 129.268 28.7653 129.268 27.8575C129.268 26.9614 129.413 26.1409 129.704 25.396C130.007 24.6396 130.431 23.982 130.978 23.4234C131.525 22.8531 132.16 22.4166 132.881 22.114C133.603 21.8115 134.394 21.6602 135.256 21.6602C135.826 21.6602 136.39 21.7533 136.949 21.9395C137.508 22.114 138.02 22.3585 138.485 22.6727C138.962 22.9869 139.352 23.3477 139.655 23.755L138.712 24.7327C138.421 24.3835 138.084 24.0809 137.7 23.8249C137.327 23.5688 136.931 23.371 136.512 23.2313C136.093 23.0917 135.675 23.0218 135.256 23.0218C134.604 23.0218 133.993 23.144 133.422 23.3884C132.864 23.6212 132.381 23.9529 131.974 24.3835C131.566 24.8141 131.246 25.3262 131.013 25.9198C130.792 26.5133 130.682 27.1592 130.682 27.8575C130.682 28.5791 130.792 29.2425 131.013 29.8477C131.246 30.4529 131.572 30.9766 131.991 31.4188C132.422 31.8495 132.922 32.187 133.492 32.4314C134.074 32.6641 134.72 32.7805 135.43 32.7805C135.849 32.7805 136.268 32.7223 136.687 32.6059C137.106 32.4779 137.49 32.3034 137.839 32.0822C138.188 31.8611 138.485 31.6109 138.73 31.3316L139.428 32.4663C139.16 32.7922 138.799 33.0831 138.345 33.3392C137.903 33.5836 137.414 33.7814 136.879 33.9327C136.344 34.0724 135.808 34.1422 135.273 34.1422Z" fill="#001A72"/>
<path d="M115.523 33.9676L120.202 21.7474H121.755L126.399 33.9676H124.915L121.93 26.042C121.848 25.8208 121.755 25.5648 121.651 25.2738C121.558 24.9712 121.453 24.6628 121.336 24.3486C121.232 24.0227 121.127 23.7085 121.022 23.4059C120.929 23.1033 120.842 22.8356 120.76 22.6029H121.109C121.016 22.8938 120.917 23.1906 120.813 23.4932C120.72 23.7841 120.621 24.0809 120.516 24.3835C120.411 24.6745 120.306 24.9654 120.202 25.2564C120.097 25.5473 119.992 25.8383 119.887 26.1293L116.92 33.9676H115.523ZM117.513 30.5983L118.019 29.2716H123.798L124.357 30.5983H117.513Z" fill="#001A72"/>
<path d="M104.514 33.9676V21.7474H111.916V23.0742H105.876V32.6409H111.881V33.9676H104.514ZM105.142 28.3463V27.0196H110.938V28.3463H105.142Z" fill="#001A72"/>
<path d="M91.0691 33.9676V21.7474H95.8524C96.5624 21.7474 97.2025 21.9162 97.7728 22.2537C98.3547 22.5796 98.8144 23.0277 99.1519 23.5979C99.4894 24.1682 99.6581 24.8141 99.6581 25.5357C99.6581 26.2107 99.4952 26.8217 99.1693 27.3687C98.8435 27.9157 98.4012 28.3522 97.8426 28.678C97.2839 28.9923 96.6555 29.1494 95.9572 29.1494H92.4308V33.9676H91.0691ZM98.5234 33.9676L95.4509 28.5907L96.7602 28.1369L100.147 33.9676H98.5234ZM92.4308 27.8226H96.0794C96.51 27.8226 96.8882 27.7237 97.2141 27.5258C97.54 27.328 97.796 27.0603 97.9822 26.7228C98.1685 26.3737 98.2616 25.978 98.2616 25.5357C98.2616 25.0585 98.151 24.6337 97.9299 24.2613C97.7087 23.8889 97.4003 23.5979 97.0046 23.3884C96.6206 23.179 96.1783 23.0742 95.6779 23.0742H92.4308V27.8226Z" fill="#001A72"/>
<path d="M89.2467 58.3683L95.9507 41.4267H99.4359L106.092 58.3683H101.929L98.734 49.7765C98.6049 49.4377 98.4759 49.0746 98.3468 48.6874C98.2177 48.3001 98.0886 47.9048 97.9595 47.5015C97.8305 47.082 97.7014 46.6786 97.5723 46.2914C97.4594 45.888 97.3625 45.5169 97.2819 45.178L98.0079 45.1538C97.9111 45.5572 97.7982 45.9525 97.6691 46.3398C97.5562 46.727 97.4352 47.1142 97.3061 47.5015C97.1931 47.8726 97.064 48.2517 96.9188 48.639C96.7736 49.0101 96.6365 49.3973 96.5074 49.8007L93.3127 58.3683H89.2467ZM92.4414 55.1252L93.7241 52.0273H101.517L102.776 55.1252H92.4414Z" fill="#001A72"/>
<path d="M111.696 58.6345C110.744 58.6345 109.929 58.4328 109.252 58.0295C108.59 57.61 108.074 57.013 107.703 56.2385C107.348 55.464 107.17 54.5363 107.17 53.4552V45.5169H111.067V52.9228C111.067 53.4391 111.147 53.8828 111.309 54.2539C111.47 54.625 111.712 54.9154 112.035 55.1252C112.358 55.3188 112.745 55.4156 113.197 55.4156C113.535 55.4156 113.842 55.3592 114.116 55.2462C114.407 55.1333 114.649 54.98 114.842 54.7864C115.052 54.5766 115.213 54.3427 115.326 54.0845C115.439 53.8102 115.496 53.5117 115.496 53.189V45.5169H119.392V58.3683H115.738L115.568 55.7303L116.294 55.4398C116.101 56.053 115.778 56.6015 115.326 57.0856C114.875 57.5535 114.334 57.9327 113.705 58.2231C113.076 58.4974 112.406 58.6345 111.696 58.6345Z" fill="#001A72"/>
<path d="M127.466 58.6345C126.353 58.6345 125.361 58.3522 124.489 57.7875C123.634 57.2066 122.957 56.416 122.456 55.4156C121.956 54.3991 121.706 53.2455 121.706 51.9547C121.706 50.6639 121.956 49.5183 122.456 48.518C122.957 47.5015 123.642 46.7028 124.514 46.1219C125.385 45.5411 126.385 45.2507 127.515 45.2507C128.096 45.2507 128.652 45.3394 129.185 45.5169C129.717 45.6944 130.201 45.9364 130.637 46.243C131.072 46.5495 131.427 46.9045 131.702 47.3079C131.976 47.6951 132.137 48.0985 132.186 48.518L131.266 48.7358V40.4586H135.163V58.3683H131.556L131.339 55.4398L132.113 55.5608C132.065 55.9642 131.903 56.3514 131.629 56.7225C131.371 57.0937 131.032 57.4244 130.613 57.7148C130.193 57.9891 129.709 58.207 129.16 58.3683C128.628 58.5458 128.063 58.6345 127.466 58.6345ZM128.459 55.4156C129.056 55.4156 129.572 55.2704 130.008 54.98C130.443 54.6896 130.774 54.2862 131 53.7699C131.242 53.2536 131.363 52.6485 131.363 51.9547C131.363 51.2448 131.242 50.6316 131 50.1153C130.774 49.599 130.443 49.1956 130.008 48.9052C129.572 48.6148 129.056 48.4696 128.459 48.4696C127.862 48.4696 127.345 48.6148 126.91 48.9052C126.49 49.1956 126.159 49.599 125.917 50.1153C125.675 50.6316 125.554 51.2448 125.554 51.9547C125.554 52.6485 125.675 53.2536 125.917 53.7699C126.159 54.2862 126.49 54.6896 126.91 54.98C127.345 55.2704 127.862 55.4156 128.459 55.4156Z" fill="#001A72"/>
<path d="M138.413 58.3683V45.5169H142.285V58.3683H138.413ZM140.349 42.9756C139.623 42.9756 139.05 42.8062 138.631 42.4674C138.227 42.1124 138.026 41.6122 138.026 40.9668C138.026 40.386 138.235 39.91 138.655 39.5389C139.074 39.1678 139.639 38.9823 140.349 38.9823C141.075 38.9823 141.64 39.1597 142.043 39.5147C142.447 39.8535 142.648 40.3376 142.648 40.9668C142.648 41.5638 142.439 42.0479 142.019 42.419C141.616 42.7901 141.059 42.9756 140.349 42.9756Z" fill="#001A72"/>
<path d="M151.732 58.6103C150.393 58.6103 149.199 58.3199 148.15 57.739C147.118 57.1582 146.295 56.3676 145.682 55.3672C145.085 54.3669 144.786 53.2213 144.786 51.9305C144.786 50.6397 145.085 49.4941 145.682 48.4938C146.295 47.4934 147.118 46.7028 148.15 46.1219C149.199 45.5411 150.393 45.2507 151.732 45.2507C153.072 45.2507 154.257 45.5411 155.29 46.1219C156.339 46.7028 157.162 47.4934 157.759 48.4938C158.356 49.4941 158.654 50.6397 158.654 51.9305C158.654 53.2213 158.356 54.3669 157.759 55.3672C157.162 56.3676 156.339 57.1582 155.29 57.739C154.257 58.3199 153.072 58.6103 151.732 58.6103ZM151.732 55.2704C152.313 55.2704 152.83 55.1252 153.281 54.8348C153.733 54.5443 154.088 54.149 154.346 53.6489C154.604 53.1487 154.725 52.5759 154.709 51.9305C154.725 51.2851 154.604 50.7123 154.346 50.2121C154.088 49.6958 153.733 49.2924 153.281 49.002C152.83 48.7116 152.313 48.5664 151.732 48.5664C151.151 48.5664 150.627 48.7116 150.159 49.002C149.707 49.2924 149.352 49.6958 149.094 50.2121C148.836 50.7123 148.715 51.2851 148.731 51.9305C148.715 52.5759 148.836 53.1487 149.094 53.6489C149.352 54.149 149.707 54.5443 150.159 54.8348C150.627 55.1252 151.151 55.2704 151.732 55.2704Z" fill="#001A72"/>
<path d="M159.202 58.3683L165.906 41.4267H169.391L176.047 58.3683H171.884L168.689 49.7765C168.56 49.4377 168.431 49.0746 168.302 48.6874C168.173 48.3001 168.044 47.9048 167.915 47.5015C167.786 47.082 167.656 46.6786 167.527 46.2914C167.414 45.888 167.318 45.5169 167.237 45.178L167.963 45.1538C167.866 45.5572 167.753 45.9525 167.624 46.3398C167.511 46.727 167.39 47.1142 167.261 47.5015C167.148 47.8726 167.019 48.2517 166.874 48.639C166.729 49.0101 166.592 49.3973 166.462 49.8007L163.268 58.3683H159.202ZM162.396 55.1252L163.679 52.0273H171.472L172.731 55.1252H162.396Z" fill="#001A72"/>
<path d="M177.918 58.3683V41.4267H185.227C186.292 41.4267 187.236 41.6687 188.059 42.1528C188.898 42.6368 189.56 43.2983 190.044 44.1374C190.544 44.9764 190.794 45.9203 190.794 46.969C190.794 48.0662 190.544 49.0504 190.044 49.9217C189.56 50.7769 188.898 51.4545 188.059 51.9547C187.236 52.4549 186.292 52.705 185.227 52.705H182.033V58.3683H177.918ZM181.96 49.0988H184.647C185.001 49.0988 185.324 49.0101 185.615 48.8326C185.905 48.6551 186.139 48.4131 186.316 48.1065C186.494 47.8 186.583 47.445 186.583 47.0416C186.583 46.6221 186.494 46.2672 186.316 45.9767C186.139 45.6863 185.905 45.4604 185.615 45.2991C185.324 45.1377 185.001 45.057 184.647 45.057H181.96V49.0988Z" fill="#001A72"/>
<path d="M193.362 58.3683V54.9074H196.218V44.8876H193.362V41.4267H203.212V44.8876H200.332V54.9074H203.212V58.3683H193.362Z" fill="#001A72"/>
<path fill-rule="evenodd" clip-rule="evenodd" d="M54.5419 15.9154C59.2698 15.9728 61.8376 22.5082 62.9671 26.1761C66.7322 25.3005 73.5617 24.1628 75.9704 28.201C78.3908 32.2575 73.975 37.5589 71.3339 40.2679C74.0728 43.0599 78.6441 48.3379 76.3457 52.3144C74.0604 56.2681 67.1594 55.0769 63.4351 54.1471C63.0615 55.4817 62.5051 57.1641 61.7233 58.765H59.3892C60.3884 56.9745 61.0449 54.8688 61.4083 53.5767C59.4076 52.9517 57.2863 52.1158 55.1159 51.1009C52.988 52.071 50.9258 52.8605 48.9826 53.4421C49.8209 56.1825 51.7052 62.0187 55.2198 62.0615C56.001 62.071 56.7034 61.788 57.3318 61.3139V63.6995C56.6935 63.9772 56.0009 64.13 55.2502 64.1209C50.5395 64.0637 48.1081 57.6949 46.9768 53.9776C43.1745 54.8651 36.2914 55.8299 33.8641 51.7615C31.4536 47.7192 35.7931 42.6141 38.4769 39.8796C35.7065 37.0666 31.2624 31.6529 33.5765 27.6493C35.8972 23.6342 42.7189 24.948 46.5632 25.9485C47.5849 22.2791 49.834 15.8584 54.5419 15.9154ZM69.859 41.6906C68.3797 43.036 66.6706 44.3731 64.7887 45.6611C64.6287 47.9996 64.3393 50.1859 63.9214 52.1577C66.8608 52.8877 72.7949 54.2428 74.5186 51.2607C76.2262 48.3064 71.8638 43.7428 69.859 41.6906ZM39.9978 41.3347C38.0217 43.3494 33.8654 47.7413 35.6633 50.7549C37.4697 53.7824 44.0481 52.5328 46.4266 51.9771C45.928 49.9587 45.5455 47.7617 45.2944 45.4668C43.3159 44.1088 41.5326 42.7204 39.9978 41.3347ZM62.5622 47.1114C60.9265 48.1265 59.2422 49.0675 57.5219 49.9414C59.0273 50.591 60.4938 51.1424 61.8924 51.5834C62.1806 50.2018 62.4044 48.703 62.5622 47.1114ZM47.5851 46.9707C47.8064 48.5337 48.0915 50.0328 48.4344 51.4372C49.7873 51.0273 51.2077 50.51 52.6742 49.8941C50.9384 48.9907 49.2415 48.0118 47.5851 46.9707ZM54.8201 31.2422C52.1524 32.4769 49.5872 33.9131 47.1492 35.5335C46.9661 38.4605 47.0106 41.4073 47.279 44.3397C49.7765 45.9968 52.3822 47.5022 55.0764 48.817C57.7329 47.5497 60.3077 46.1131 62.7574 44.5011C62.9053 41.5873 62.8665 38.657 62.6156 35.7392C60.133 34.0521 57.5232 32.548 54.8201 31.2422ZM64.8249 37.3181C64.9358 39.2133 64.9614 41.1111 64.9127 43.0045C66.1625 42.0901 67.3133 41.1587 68.3431 40.2272C67.2723 39.2478 66.0931 38.2718 64.8249 37.3181ZM44.9775 37.055C43.7125 37.9901 42.5378 38.9494 41.4777 39.9124C42.549 40.8731 43.7514 41.8401 45.0645 42.7991C44.9434 40.8848 44.9139 38.9674 44.9775 37.055ZM74.1718 29.2076C72.3837 26.21 66.278 27.5372 63.5186 28.177C64.0037 30.1574 64.3694 32.3333 64.6079 34.6317C66.5192 35.9785 68.2757 37.3848 69.8208 38.8046C71.733 36.8402 75.9773 32.2347 74.1718 29.2076ZM46.0686 27.9358C43.2333 27.1944 37.1334 25.7096 35.4033 28.7028C33.6722 31.6978 37.9923 36.4649 39.9523 38.458C41.4785 37.0637 43.2257 35.6835 45.1295 34.3694C45.3127 32.0982 45.6294 29.9304 46.0686 27.9358ZM61.5067 28.7039C60.1339 29.1048 58.7129 29.5997 57.2685 30.1817C58.9967 31.0766 60.6834 32.0497 62.3229 33.0981C62.1117 31.5481 61.8384 30.074 61.5067 28.7039ZM48.0934 28.5243C47.7944 29.8991 47.5552 31.3633 47.3809 32.8922C48.9877 31.89 50.6441 30.9631 52.3435 30.1158C50.8929 29.498 49.4666 28.9636 48.0934 28.5243ZM54.5721 17.9748C51.0466 17.932 49.4107 23.5749 48.5859 26.534C50.5806 27.1663 52.6737 27.987 54.7895 28.9664C56.8892 28.0396 58.9676 27.2766 60.9569 26.7009C60.1342 24.0424 58.1015 18.0177 54.5721 17.9748Z" fill="#919FCF"/>
<path d="M54.1768 34.3645L54.2742 34.3657L54.2955 34.3661C57.1968 34.4397 59.5181 36.8166 59.5181 39.7293V41.7307C59.899 41.6446 60.2953 41.5988 60.7022 41.5988C61.2559 41.5988 61.79 41.6835 62.2925 41.8396C63.0968 39.896 65.0098 38.526 67.2467 38.526L67.3853 38.5278C70.2395 38.6002 72.5332 40.9034 72.6053 43.7525L72.6071 43.8908V57.7181C72.6071 60.6306 70.2856 63.0078 67.3853 63.0813L67.2467 63.0831C65.0097 63.0831 63.0968 61.713 62.2925 59.7693C61.79 59.9255 61.256 60.0103 60.7022 60.0103C60.2953 60.0103 59.899 59.9643 59.5181 59.8782V60.3433C59.5181 63.2558 57.1967 65.633 54.2963 65.7066L54.1578 65.7083C51.5521 65.7083 49.3861 63.8495 48.8997 61.3905C48.5329 61.481 48.1513 61.5342 47.7591 61.5447L47.6134 61.5466C44.8574 61.5466 42.5931 59.4672 42.2881 56.7973C41.8964 56.8886 41.4883 56.9376 41.0688 56.9376C38.1042 56.9376 35.7085 54.5313 35.7085 51.5726V48.5C35.7085 45.5413 38.1042 43.1351 41.0688 43.1351C41.4882 43.1351 41.8964 43.1838 42.2881 43.2751C42.5932 40.6053 44.8575 38.526 47.6134 38.526L47.7591 38.528C48.1512 38.5385 48.5329 38.5913 48.8997 38.6818C49.3862 36.223 51.5522 34.3643 54.1578 34.3643L54.1768 34.3645Z" fill="white"/>
<path d="M69.0362 43.8908C69.0362 42.8985 68.2335 42.0969 67.2467 42.0969C66.26 42.0969 65.4573 42.8985 65.4573 43.8908V57.7181C65.4573 58.7105 66.26 59.5122 67.2467 59.5122C68.2335 59.5122 69.0362 58.7104 69.0362 57.7181V43.8908ZM60.7022 45.1696C59.7154 45.1697 58.9127 45.9713 58.9127 46.9636V54.6454C58.9127 55.6377 59.7154 56.4394 60.7022 56.4395C61.689 56.4395 62.4918 55.6377 62.4918 54.6454V46.9636C62.4918 45.9712 61.6889 45.1696 60.7022 45.1696ZM39.2793 51.5726C39.2793 52.5649 40.082 53.3667 41.0688 53.3667C42.0556 53.3667 42.8583 52.5649 42.8583 51.5726V48.5C42.8583 47.5077 42.0556 46.7059 41.0688 46.7059C40.082 46.7059 39.2793 47.5077 39.2793 48.5V51.5726ZM45.8237 56.1818C45.8237 57.1741 46.6266 57.9758 47.6134 57.9758C48.6001 57.9757 49.4028 57.1741 49.4029 56.1818V43.8908C49.4028 42.8985 48.6001 42.0969 47.6134 42.0969C46.6266 42.0969 45.8237 42.8985 45.8237 43.8908V56.1818ZM55.9473 39.7293C55.9473 38.768 55.194 37.9855 54.2498 37.9375L54.1578 37.9352C53.171 37.9352 52.3683 38.737 52.3683 39.7293V60.3433C52.3683 61.3357 53.171 62.1375 54.1578 62.1375C55.1446 62.1375 55.9473 61.3357 55.9473 60.3433V39.7293ZM57.931 44.3999C58.6201 43.6536 59.6061 43.1859 60.7022 43.1858C61.7982 43.1858 62.7844 43.6535 63.4735 44.3999V43.8908C63.4735 41.8059 65.1613 40.1131 67.2467 40.1131C69.3322 40.1131 71.02 41.8059 71.02 43.8908V57.7181C71.02 59.803 69.3322 61.496 67.2467 61.496C65.1613 61.496 63.4735 59.803 63.4735 57.7181V57.209C62.7844 57.9554 61.7983 58.4233 60.7022 58.4233C59.6061 58.4233 58.6201 57.9554 57.931 57.209V60.3433C57.931 62.4283 56.2432 64.1213 54.1578 64.1213C52.0723 64.1213 50.3845 62.4283 50.3845 60.3433V58.7453C49.6954 59.4917 48.7094 59.9595 47.6134 59.9596C45.5279 59.9596 43.8399 58.2667 43.8399 56.1818V54.1364C43.1508 54.8828 42.1648 55.3505 41.0688 55.3505C38.9833 55.3505 37.2955 53.6575 37.2955 51.5726V48.5C37.2955 46.4151 38.9833 44.7221 41.0688 44.7221C42.1647 44.7221 43.1508 45.1898 43.8399 45.936V43.8908C43.8399 41.8059 45.5279 40.1131 47.6134 40.1131C48.7094 40.1131 49.6954 40.5808 50.3845 41.3272V39.7293C50.3845 37.6444 52.0723 35.9514 54.1578 35.9514L54.2552 35.9525C56.2956 36.0043 57.931 37.677 57.931 39.7293V44.3999Z" fill="#001A72"/>
</svg>
