<svg width="24" height="24" viewBox="0 0 24 24" fill="none" xmlns="http://www.w3.org/2000/svg">
<path d="M20.3303 3.675C18.7767 2.8925 17.1156 2.32381 15.3789 2C15.1656 2.41512 14.9164 2.97346 14.7446 3.41762C12.8985 3.11874 11.0693 3.11874 9.25716 3.41762C9.08539 2.97346 8.83055 2.41512 8.61536 2C6.87681 2.32381 5.21376 2.89459 3.66019 3.67914C0.526643 8.77669 -0.322811 13.7476 0.101917 18.648C2.18025 20.3188 4.19441 21.3338 6.17457 21.9979C6.66349 21.2736 7.09953 20.5035 7.47518 19.692C6.75975 19.3994 6.07453 19.0382 5.42707 18.6189C5.59884 18.482 5.76686 18.3387 5.92918 18.1914C9.87819 20.1798 14.1689 20.1798 18.0707 18.1914C18.235 18.3387 18.403 18.482 18.5728 18.6189C17.9235 19.0403 17.2364 19.4014 16.521 19.6941C16.8966 20.5035 17.3308 21.2757 17.8216 22C19.8036 21.3358 21.8197 20.3209 23.898 18.648C24.3964 12.9672 23.0467 8.04194 20.3303 3.675ZM8.01318 15.6343C6.82772 15.6343 5.85555 14.4429 5.85555 12.9921C5.85555 11.5413 6.80696 10.3479 8.01318 10.3479C9.21942 10.3479 10.1916 11.5392 10.1708 12.9921C10.1727 14.4429 9.21942 15.6343 8.01318 15.6343ZM15.9867 15.6343C14.8013 15.6343 13.8291 14.4429 13.8291 12.9921C13.8291 11.5413 14.7805 10.3479 15.9867 10.3479C17.193 10.3479 18.1651 11.5392 18.1444 12.9921C18.1444 14.4429 17.193 15.6343 15.9867 15.6343Z" fill="#020F3C"/>
</svg>
