<svg width="24" height="25" viewBox="0 0 24 25" fill="none" xmlns="http://www.w3.org/2000/svg">
<g clip-path="url(#clip0_14741_22859)">
<path d="M14.1286 15.4668C15.048 18.1911 15.6662 21.0079 15.9722 23.8668C14.6954 24.3137 13.3522 24.5414 11.9995 24.54C9.61969 24.5437 7.29307 23.8367 5.31783 22.5096C6.23822 20.8044 7.49256 19.302 9.00608 18.0918C10.5196 16.8816 12.2613 15.9885 14.1274 15.4656L14.1286 15.4668ZM23.4892 16.0224C22.6321 18.8379 20.7725 21.2416 18.2622 22.7784C17.9266 20.1413 17.3398 17.5423 16.5099 15.0168C18.8836 14.7716 21.2812 15.117 23.4892 16.0224ZM12.1735 10.722C12.572 11.5356 12.9452 12.366 13.2897 13.2096C9.13286 14.4277 5.60517 17.2001 3.43948 20.9508C2.22253 19.7041 1.28932 18.2092 0.70371 16.5684C0.118097 14.9277 -0.1061 13.1798 0.0464604 11.4444C4.0588 12.294 8.29197 12.0468 12.1735 10.722ZM21.2652 4.91284C23.2648 7.3544 24.2297 10.4812 23.9536 13.6248C21.3134 12.6312 18.4665 12.3136 15.6721 12.7008C15.2863 11.7261 14.864 10.7662 14.4059 9.82324C16.9772 8.62599 19.3032 6.96085 21.2652 4.91284ZM6.31761 1.96804C8.1112 4.00208 9.69174 6.21442 11.0345 8.57044C7.62803 9.65518 3.99754 9.83303 0.501344 9.08644C1.42151 6.03757 3.51305 3.47778 6.31761 1.96804ZM11.9995 0.540042C14.8656 0.540042 17.4977 1.54444 19.5608 3.22084C17.7743 5.09421 15.6483 6.61147 13.2957 7.69204C11.9707 5.3206 10.4191 3.08296 8.66284 1.01044C9.7474 0.697627 10.8707 0.539268 11.9995 0.540042Z" fill="#020F3C"/>
</g>
<defs>
<clipPath id="clip0_14741_22859">
<rect width="24" height="24" fill="white" transform="translate(0 0.540039)"/>
</clipPath>
</defs>
</svg>
