<svg width="265" height="82" viewBox="0 0 265 82" fill="none" xmlns="http://www.w3.org/2000/svg">
<path d="M59.838 34.0347C60.3508 36.908 59.4945 40.2493 58.2397 42.5998C55.9992 46.8026 52.7379 48.0824 48.69 50.2287C47.3655 50.8412 44.1889 51.9815 42.9193 52.6588C34.3454 57.2252 36.5212 63.4697 41.2662 66.8808C43.5466 68.5191 46.4195 69.5051 48.9787 69.3408C39.6132 69.9433 26.0055 55.2283 35.0325 47.455C42.4512 41.066 53.5694 42.2462 59.833 34.0347H59.838Z" fill="url(#paint0_linear_14741_22798)"/>
<path d="M52.7232 68.3541C53.3854 64.8932 56.4575 62.5278 59.0267 60.3816C77.1354 45.4275 55.4816 38.4659 63.8264 22.4014C63.8264 22.4014 63.7518 25.683 65.3251 28.7704C67.73 33.4962 70.578 33.6904 75.0741 40.0046C76.9611 42.6588 77.4939 46.0002 76.6176 49.1125C73.4658 60.3069 57.9512 58.574 52.7282 68.3441L52.7232 68.3541Z" fill="url(#paint1_linear_14741_22798)"/>
<path d="M52.723 68.3676C48.6053 48.7376 66.3356 53.5729 62.9599 36.2734C66.1962 43.6783 69.3529 47.916 64.0254 55.6395C60.7542 60.3802 54.615 62.7904 52.723 68.3676Z" fill="url(#paint2_linear_14741_22798)"/>
<path d="M48.9832 69.3425C43.2424 69.7757 34.6586 64.2283 37.6012 57.426C39.3687 53.3327 44.0142 52.1724 47.7235 50.4743C51.0794 48.9356 54.0369 47.3521 56.7206 44.8672C49.6156 53.3924 42.5752 57.2517 48.9832 69.3425Z" fill="url(#paint3_linear_14741_22798)"/>
<path d="M46.1406 32.0118C52.459 26.1706 52.922 20.0954 49.3072 12.8051C49.1529 12.4914 49.0184 12.2573 49.0184 12.2573C61.7498 16.754 56.3077 28.1376 46.1406 32.0118Z" fill="url(#paint4_linear_14741_22798)"/>
<path d="M41.5001 38.7574C43.0436 31.6563 50.1138 30.7102 54.1866 25.8699C57.8014 21.2487 56.4471 16.1395 51.7768 13.4854C55.4413 15.5718 58.8769 18.6244 59.554 22.6978C61.0278 32.6622 49.8051 38.1349 41.5001 38.7574Z" fill="url(#paint5_linear_14741_22798)"/>
<path d="M94.4022 37.5951L96.7423 24.2744H101.044C101.985 24.2744 102.742 24.4338 103.32 24.7525C103.897 25.0712 104.31 25.4895 104.564 26.0173C104.818 26.5452 104.928 27.1228 104.888 27.7602C104.863 28.6217 104.629 29.3836 104.186 30.0359C103.743 30.6883 103.125 31.1962 102.339 31.5597C101.552 31.9232 100.641 32.1025 99.6003 32.1025H96.9763L96.0054 37.6051H94.4071L94.4022 37.5951ZM97.1954 30.8377H99.7845C100.825 30.8377 101.652 30.5787 102.269 30.0559C102.886 29.538 103.21 28.8109 103.25 27.8847C103.29 27.2373 103.106 26.6995 102.707 26.2663C102.309 25.8331 101.632 25.6189 100.681 25.6189H98.1115L97.2004 30.8327L97.1954 30.8377ZM101.577 37.5951L99.6949 31.6394H101.368L103.33 37.5951H101.577Z" fill="#001A72"/>
<path d="M109.812 37.8245C109.011 37.8245 108.319 37.6453 107.726 37.2917C107.139 36.9381 106.691 36.4352 106.392 35.7878C106.093 35.1405 105.964 34.3836 106.003 33.5221C106.043 32.6954 106.208 31.9385 106.496 31.2463C106.79 30.5542 107.183 29.9466 107.686 29.4287C108.189 28.9109 108.767 28.5025 109.429 28.2087C110.086 27.9149 110.803 27.7705 111.58 27.7705C112.441 27.7705 113.158 27.9498 113.721 28.3033C114.284 28.6569 114.702 29.13 114.966 29.7225C115.235 30.3101 115.344 30.9625 115.309 31.6746C115.294 31.8887 115.269 32.1327 115.225 32.4066C115.18 32.6805 115.13 32.9295 115.08 33.1585H107.238L107.447 31.9236H113.726C113.816 31.326 113.766 30.8231 113.572 30.4097C113.382 29.9964 113.094 29.6827 112.715 29.4586C112.337 29.2345 111.879 29.125 111.346 29.125C110.813 29.125 110.275 29.2495 109.778 29.4985C109.275 29.7474 108.841 30.106 108.473 30.584C108.105 31.0621 107.856 31.6547 107.731 32.3618L107.637 32.8946C107.497 33.6067 107.507 34.2342 107.676 34.7769C107.841 35.3247 108.129 35.743 108.543 36.0318C108.956 36.3256 109.459 36.47 110.056 36.47C110.729 36.47 111.311 36.3207 111.799 36.0219C112.287 35.7231 112.67 35.3197 112.949 34.8118H114.528C114.259 35.3845 113.9 35.8974 113.452 36.3555C113.004 36.8137 112.471 37.1722 111.854 37.4311C111.236 37.6901 110.554 37.8196 109.807 37.8196L109.812 37.8245Z" fill="#001A72"/>
<path d="M119.521 37.8245C118.809 37.8245 118.232 37.7 117.779 37.451C117.331 37.2021 117.002 36.8734 116.798 36.4601C116.594 36.0468 116.504 35.6086 116.529 35.1355C116.554 34.4483 116.763 33.8607 117.156 33.3677C117.55 32.8747 118.097 32.4913 118.794 32.2273C119.492 31.9634 120.293 31.829 121.194 31.829H123.724C123.823 31.2214 123.823 30.7135 123.714 30.3151C123.604 29.9168 123.395 29.618 123.076 29.4188C122.758 29.2246 122.345 29.125 121.842 29.125C121.234 29.125 120.682 29.2794 120.184 29.5831C119.691 29.8869 119.332 30.34 119.118 30.9326H117.46C117.664 30.2454 117.998 29.6727 118.461 29.2096C118.924 28.7465 119.467 28.393 120.089 28.144C120.711 27.895 121.364 27.7705 122.051 27.7705C122.912 27.7705 123.614 27.9298 124.152 28.2535C124.69 28.5772 125.058 29.0254 125.257 29.603C125.451 30.1807 125.481 30.8629 125.342 31.6497L124.316 37.5855H122.872L123.081 35.8924C122.902 36.1613 122.698 36.4103 122.464 36.6443C122.23 36.8784 121.966 37.0875 121.672 37.2618C121.379 37.4411 121.055 37.5755 120.701 37.6702C120.348 37.7648 119.955 37.8146 119.521 37.8146V37.8245ZM119.994 36.47C120.438 36.47 120.866 36.3804 121.279 36.1962C121.692 36.0119 122.061 35.7629 122.384 35.4442C122.708 35.1255 122.967 34.772 123.166 34.3786C123.36 33.9852 123.47 33.5719 123.48 33.1436L123.5 33.0689H121.1C120.502 33.0689 119.994 33.1486 119.566 33.3079C119.143 33.4673 118.819 33.6864 118.595 33.9752C118.371 34.2591 118.252 34.6027 118.222 34.9911C118.197 35.4492 118.336 35.8078 118.64 36.0767C118.944 36.3456 119.397 36.475 119.989 36.475L119.994 36.47Z" fill="#001A72"/>
<path d="M131.262 37.822C130.46 37.822 129.758 37.6427 129.151 37.2792C128.544 36.9157 128.08 36.4127 127.772 35.7654C127.463 35.118 127.324 34.3611 127.364 33.4996C127.403 32.663 127.573 31.8961 127.876 31.199C128.18 30.5018 128.593 29.8993 129.111 29.3914C129.629 28.8834 130.226 28.4851 130.889 28.2012C131.551 27.9174 132.268 27.7729 133.03 27.7729C134.17 27.7729 135.076 28.0767 135.743 28.6793C136.41 29.2818 136.754 30.0885 136.779 31.1044H135.141C135.126 30.457 134.897 29.969 134.444 29.6403C133.996 29.3117 133.443 29.1474 132.796 29.1474C132.148 29.1474 131.506 29.3266 130.948 29.6802C130.391 30.0337 129.938 30.5267 129.589 31.1542C129.241 31.7816 129.046 32.5236 129.007 33.3702C128.982 33.8631 129.027 34.3063 129.141 34.6947C129.256 35.0832 129.425 35.4068 129.654 35.6658C129.883 35.9247 130.152 36.1239 130.46 36.2634C130.769 36.4028 131.118 36.4725 131.496 36.4725C131.929 36.4725 132.343 36.3978 132.741 36.2434C133.139 36.0891 133.498 35.87 133.816 35.5762C134.135 35.2824 134.374 34.9238 134.538 34.4906H136.176C135.937 35.1379 135.574 35.7106 135.091 36.2136C134.608 36.7165 134.035 37.1099 133.378 37.3937C132.716 37.6776 132.009 37.822 131.247 37.822H131.262Z" fill="#001A72"/>
<path d="M141.633 37.5946C140.986 37.5946 140.468 37.495 140.075 37.2908C139.681 37.0866 139.417 36.7729 139.283 36.3397C139.149 35.9064 139.139 35.3587 139.253 34.6814L140.204 29.3531H138.661L138.91 28.0036H140.453L141.06 25.6831H142.47L142.051 28.0036H144.85L144.601 29.3531H141.802L140.851 34.6814C140.752 35.279 140.807 35.6824 141.021 35.9015C141.235 36.1156 141.618 36.2251 142.161 36.2251H143.381L143.132 37.5946H141.628H141.633Z" fill="#001A72"/>
<path d="M150.71 37.5951L153.05 24.2744H154.648L159.861 35.0455L161.743 24.2744H163.341L161.001 37.5951H159.403L154.21 26.824L152.308 37.5951H150.71Z" fill="#001A72"/>
<path d="M166.828 37.8245C166.116 37.8245 165.538 37.7 165.085 37.451C164.637 37.2021 164.308 36.8734 164.104 36.4601C163.9 36.0468 163.81 35.6086 163.84 35.1355C163.865 34.4483 164.074 33.8607 164.468 33.3677C164.861 32.8747 165.409 32.4913 166.106 32.2273C166.803 31.9634 167.604 31.829 168.506 31.829H171.035C171.134 31.2214 171.134 30.7135 171.025 30.3151C170.915 29.9168 170.706 29.618 170.388 29.4188C170.069 29.2246 169.656 29.125 169.153 29.125C168.545 29.125 167.993 29.2794 167.495 29.5831C167.002 29.8869 166.643 30.34 166.429 30.9326H164.771C164.975 30.2454 165.309 29.6727 165.772 29.2096C166.235 28.7465 166.778 28.393 167.4 28.144C168.023 27.895 168.675 27.7705 169.362 27.7705C170.223 27.7705 170.925 27.9298 171.463 28.2535C172.001 28.5772 172.369 29.0254 172.568 29.603C172.763 30.1807 172.792 30.8629 172.653 31.6497L171.627 37.5855H170.183L170.393 35.8924C170.213 36.1613 170.009 36.4103 169.775 36.6443C169.541 36.8784 169.277 37.0875 168.983 37.2618C168.69 37.4411 168.366 37.5755 168.013 37.6702C167.659 37.7648 167.266 37.8146 166.833 37.8146L166.828 37.8245ZM167.306 36.47C167.749 36.47 168.177 36.3804 168.59 36.1962C169.003 36.0119 169.372 35.7629 169.695 35.4442C170.019 35.1255 170.278 34.772 170.477 34.3786C170.671 33.9852 170.781 33.5719 170.791 33.1436L170.811 33.0689H168.411C167.813 33.0689 167.306 33.1486 166.877 33.3079C166.454 33.4673 166.131 33.6864 165.906 33.9752C165.682 34.2591 165.563 34.6027 165.533 34.9911C165.508 35.4492 165.648 35.8078 165.951 36.0767C166.255 36.3456 166.708 36.475 167.301 36.475L167.306 36.47Z" fill="#001A72"/>
<path d="M178.015 37.5946C177.368 37.5946 176.85 37.495 176.456 37.2908C176.063 37.0866 175.799 36.7729 175.665 36.3397C175.53 35.9064 175.52 35.3587 175.635 34.6814L176.586 29.3531H175.042L175.291 28.0036H176.835L177.442 25.6831H178.851L178.433 28.0036H181.231L180.982 29.3531H178.184L177.233 34.6814C177.134 35.279 177.188 35.6824 177.402 35.9015C177.617 36.1156 178 36.2251 178.543 36.2251H179.763L179.514 37.5946H178.01H178.015Z" fill="#001A72"/>
<path d="M181.784 37.5922L183.477 28.0013H185.075L183.382 37.5922H181.784ZM184.831 25.9646C184.512 25.9646 184.253 25.865 184.049 25.6608C183.845 25.4567 183.741 25.1977 183.726 24.879C183.726 24.5603 183.83 24.3014 184.039 24.0972C184.248 23.893 184.512 23.7935 184.831 23.7935C185.15 23.7935 185.394 23.893 185.613 24.0972C185.827 24.3014 185.936 24.5603 185.936 24.879C185.951 25.1977 185.842 25.4567 185.623 25.6608C185.399 25.865 185.14 25.9646 184.831 25.9646Z" fill="#001A72"/>
<path d="M189.093 37.5958L187.037 28.0049H188.69L190.288 36.077L194.725 28.0049H196.398L190.956 37.5958H189.088H189.093Z" fill="#001A72"/>
<path d="M200.376 37.8245C199.579 37.8245 198.882 37.6453 198.294 37.2917C197.702 36.9381 197.259 36.4352 196.96 35.7878C196.661 35.1405 196.532 34.3836 196.572 33.5221C196.611 32.6954 196.776 31.9385 197.065 31.2463C197.358 30.5542 197.752 29.9466 198.255 29.4287C198.757 28.9109 199.335 28.5025 199.997 28.2087C200.654 27.9149 201.371 27.7705 202.148 27.7705C203.01 27.7705 203.727 27.9498 204.289 28.3033C204.852 28.6569 205.27 29.13 205.534 29.7225C205.798 30.3101 205.912 30.9625 205.877 31.6746C205.863 31.8887 205.838 32.1327 205.793 32.4066C205.748 32.6805 205.698 32.9295 205.648 33.1585H197.806L198.016 31.9236H204.294C204.384 31.326 204.334 30.8231 204.14 30.4097C203.951 29.9964 203.662 29.6827 203.283 29.4586C202.905 29.2345 202.447 29.125 201.914 29.125C201.381 29.125 200.844 29.2495 200.346 29.4985C199.843 29.7474 199.41 30.106 199.041 30.584C198.673 31.0621 198.424 31.6547 198.299 32.3618L198.205 32.8946C198.065 33.6067 198.08 34.2342 198.245 34.7769C198.409 35.3247 198.698 35.743 199.111 36.0318C199.524 36.3256 200.027 36.47 200.625 36.47C201.297 36.47 201.879 36.3207 202.367 36.0219C202.855 35.7231 203.239 35.3197 203.517 34.8118H205.096C204.827 35.3845 204.468 35.8974 204.02 36.3555C203.572 36.8137 203.039 37.1722 202.422 37.4311C201.805 37.6901 201.122 37.8196 200.376 37.8196V37.8245Z" fill="#001A72"/>
<path d="M89.5579 63.9986L92.625 46.6792H103.833L103.315 49.6471H95.8166L95.0996 53.8052H101.826L101.333 56.5988H94.5818L93.7901 61.0257H101.289L100.771 63.9936H89.5629L89.5579 63.9986Z" fill="#7394FF"/>
<path d="M102.572 63.9995L108.214 57.74L104.748 51.5303H108.732L110.907 55.539L114.467 51.5303H118.475L112.809 57.7649L116.275 63.9995H112.267L110.141 59.9659L106.531 63.9995H102.572Z" fill="#7394FF"/>
<path d="M123.823 64.2943C122.653 64.2943 121.652 64.0652 120.816 63.6021C119.984 63.139 119.352 62.4867 118.924 61.6351C118.495 60.7836 118.306 59.8076 118.356 58.7021C118.406 57.6613 118.63 56.6952 119.023 55.7939C119.421 54.8926 119.959 54.1008 120.641 53.4186C121.323 52.7364 122.13 52.1986 123.051 51.8102C123.972 51.4217 124.998 51.2275 126.118 51.2275C127.239 51.2275 128.229 51.4566 129.036 51.9197C129.843 52.3828 130.45 53.0153 130.853 53.812C131.257 54.6137 131.436 55.54 131.386 56.5957C131.371 56.9592 131.326 57.3227 131.262 57.6862C131.197 58.0497 131.122 58.3784 131.038 58.6772H120.945L121.343 56.5011H127.702C127.766 56.023 127.712 55.6147 127.542 55.276C127.368 54.9374 127.119 54.6735 126.785 54.4843C126.457 54.295 126.059 54.2004 125.6 54.2004C125.073 54.2004 124.575 54.3249 124.102 54.5739C123.634 54.8229 123.225 55.1964 122.877 55.6993C122.528 56.2023 122.299 56.8347 122.185 57.5916L122.06 58.3087C121.961 58.8863 121.981 59.4042 122.12 59.8574C122.26 60.3105 122.518 60.6641 122.887 60.9081C123.26 61.1571 123.733 61.2816 124.311 61.2816C124.854 61.2816 125.322 61.177 125.71 60.9579C126.098 60.7437 126.422 60.4649 126.686 60.1163H130.495C130.097 60.8931 129.569 61.6003 128.902 62.2426C128.234 62.885 127.468 63.388 126.601 63.7515C125.735 64.115 124.809 64.2943 123.818 64.2943H123.823Z" fill="#7394FF"/>
<path d="M139.04 64.2943C137.869 64.2943 136.864 64.0553 136.022 63.5772C135.181 63.0992 134.548 62.4369 134.115 61.5953C133.687 60.7537 133.503 59.7827 133.573 58.6772C133.622 57.6215 133.846 56.6504 134.255 55.7591C134.658 54.8677 135.206 54.0859 135.898 53.4087C136.59 52.7314 137.396 52.1986 138.308 51.8102C139.224 51.4217 140.234 51.2275 141.34 51.2275C142.958 51.2275 144.253 51.6707 145.223 52.5521C146.194 53.4335 146.692 54.6585 146.707 56.2272H142.774C142.759 55.6495 142.57 55.2014 142.206 54.8777C141.843 54.554 141.365 54.3946 140.772 54.3946C140.145 54.3946 139.582 54.5689 139.079 54.9125C138.576 55.2611 138.178 55.7292 137.879 56.3218C137.581 56.9144 137.416 57.5916 137.386 58.3485C137.372 58.7618 137.401 59.1353 137.486 59.4739C137.571 59.8126 137.705 60.1064 137.894 60.3504C138.084 60.5994 138.318 60.7886 138.601 60.9181C138.88 61.0525 139.204 61.1172 139.567 61.1172C139.981 61.1172 140.359 61.0425 140.707 60.8931C141.056 60.7437 141.365 60.5346 141.634 60.2607C141.907 59.9869 142.117 59.6632 142.266 59.2847H146.199C145.821 60.2906 145.278 61.167 144.581 61.919C143.879 62.6709 143.058 63.2535 142.107 63.6619C141.156 64.0752 140.14 64.2794 139.049 64.2794L139.04 64.2943Z" fill="#7394FF"/>
<path d="M152.916 64.2982C151.826 64.2982 150.964 64.0692 150.332 63.6061C149.695 63.1429 149.276 62.4956 149.072 61.664C148.868 60.8324 148.853 59.8464 149.037 58.706L150.297 51.5303H153.981L152.796 58.3326C152.647 59.2588 152.712 59.9609 152.996 60.4489C153.274 60.937 153.827 61.1809 154.654 61.1809C155.181 61.1809 155.669 61.0664 156.113 60.8324C156.556 60.6033 156.939 60.2697 157.253 59.8315C157.566 59.3933 157.771 58.8604 157.87 58.238L159.035 51.5353H162.745L160.569 64.0045H157.327V62.1221C156.834 62.7645 156.217 63.2874 155.485 63.6957C154.753 64.0991 153.897 64.3032 152.926 64.3032L152.916 64.2982Z" fill="#7394FF"/>
<path d="M167.858 63.9986L170.382 49.6222H165.358L165.876 46.6792H179.658L179.14 49.6222H174.116L171.567 63.9986H167.858Z" fill="#7394FF"/>
<path d="M183.198 64.2968C182.057 64.2968 181.072 64.0429 180.24 63.5399C179.409 63.037 178.776 62.3398 178.348 61.4485C177.92 60.5571 177.731 59.5611 177.78 58.4556C177.83 57.4348 178.049 56.4787 178.438 55.5973C178.826 54.7159 179.359 53.954 180.031 53.3066C180.708 52.6642 181.49 52.1563 182.381 51.7828C183.272 51.4093 184.213 51.2251 185.199 51.2251C186.354 51.2251 187.345 51.4741 188.182 51.9671C189.013 52.4601 189.655 53.1473 190.099 54.0187C190.542 54.8951 190.731 55.906 190.666 57.0613C190.631 58.1021 190.417 59.0582 190.024 59.9296C189.626 60.806 189.088 61.563 188.406 62.2053C187.719 62.8477 186.937 63.3557 186.056 63.7291C185.174 64.1026 184.218 64.2869 183.198 64.2869V64.2968ZM183.691 61.08C184.283 61.08 184.811 60.9156 185.274 60.5869C185.737 60.2583 186.105 59.8002 186.389 59.2126C186.668 58.625 186.827 57.9527 186.857 57.1958C186.907 56.6032 186.847 56.1052 186.683 55.6969C186.519 55.2935 186.27 54.9848 185.941 54.7706C185.612 54.5565 185.224 54.447 184.776 54.447C184.198 54.447 183.676 54.6163 183.203 54.9549C182.735 55.2935 182.356 55.7517 182.077 56.3293C181.799 56.9069 181.634 57.5842 181.584 58.356C181.569 58.9187 181.644 59.4018 181.808 59.8051C181.973 60.2085 182.222 60.5222 182.55 60.7463C182.879 60.9704 183.257 61.08 183.691 61.08Z" fill="#7394FF"/>
<path d="M192.449 63.9954L194.624 51.5262H197.916L197.891 53.7522C198.304 53.2392 198.767 52.7961 199.275 52.4176C199.788 52.0391 200.35 51.7453 200.968 51.5412C201.585 51.337 202.242 51.2324 202.934 51.2324L202.242 55.1664H200.983C200.505 55.1664 200.052 55.2212 199.623 55.3257C199.195 55.4353 198.817 55.6046 198.483 55.8436C198.155 56.0827 197.871 56.4113 197.642 56.8196C197.413 57.233 197.243 57.7459 197.149 58.3534L196.158 63.9954H192.449Z" fill="#7394FF"/>
<path d="M208.974 64.2943C207.804 64.2943 206.798 64.0553 205.957 63.5772C205.115 63.0992 204.478 62.4369 204.05 61.5953C203.622 60.7537 203.438 59.7827 203.507 58.6772C203.557 57.6215 203.781 56.6504 204.189 55.7591C204.593 54.8677 205.14 54.0859 205.832 53.4087C206.525 52.7314 207.331 52.1986 208.242 51.8102C209.158 51.4217 210.169 51.2275 211.275 51.2275C212.893 51.2275 214.187 51.6707 215.158 52.5521C216.129 53.4335 216.627 54.6585 216.642 56.2272H212.708C212.694 55.6495 212.504 55.2014 212.141 54.8777C211.777 54.554 211.299 54.3946 210.707 54.3946C210.08 54.3946 209.517 54.5689 209.014 54.9125C208.511 55.2611 208.113 55.7292 207.814 56.3218C207.515 56.9144 207.351 57.5916 207.321 58.3485C207.306 58.7618 207.336 59.1353 207.421 59.4739C207.505 59.8126 207.64 60.1064 207.829 60.3504C208.018 60.5994 208.252 60.7886 208.536 60.9181C208.815 61.0525 209.139 61.1172 209.502 61.1172C209.915 61.1172 210.294 61.0425 210.642 60.8931C210.991 60.7437 211.299 60.5346 211.568 60.2607C211.842 59.9869 212.051 59.6632 212.201 59.2847H216.134C215.756 60.2906 215.213 61.167 214.516 61.919C213.814 62.6709 212.992 63.2535 212.041 63.6619C211.09 64.0752 210.075 64.2794 208.984 64.2794L208.974 64.2943Z" fill="#7394FF"/>
<path d="M218.176 63.9985L221.293 46.186H225.002L223.743 53.2871C224.255 52.6945 224.883 52.2015 225.625 51.8131C226.367 51.4247 227.193 51.2305 228.099 51.2305C229.155 51.2305 230.001 51.4546 230.634 51.8978C231.266 52.341 231.694 52.9883 231.908 53.8299C232.122 54.6714 232.122 55.7023 231.908 56.9223L230.649 63.9985H226.964L228.174 57.246C228.323 56.3247 228.249 55.6077 227.95 55.1047C227.651 54.6018 227.084 54.3478 226.242 54.3478C225.714 54.3478 225.226 54.4773 224.783 54.7312C224.34 54.9852 223.967 55.3387 223.668 55.7819C223.369 56.2251 223.155 56.7629 223.026 57.3904L221.885 63.9985H218.176Z" fill="#7394FF"/>
<defs>
<linearGradient id="paint0_linear_14741_22798" x1="32.0749" y1="51.6977" x2="59.9874" y2="51.6977" gradientUnits="userSpaceOnUse">
<stop stop-color="#2A47FF"/>
<stop offset="1" stop-color="#D0E2FF"/>
</linearGradient>
<linearGradient id="paint1_linear_14741_22798" x1="52.7232" y1="45.3827" x2="77.0209" y2="45.3827" gradientUnits="userSpaceOnUse">
<stop stop-color="#2A47FF"/>
<stop offset="1" stop-color="#D0E2FF"/>
</linearGradient>
<linearGradient id="paint2_linear_14741_22798" x1="66.8883" y1="52.3181" x2="52.1006" y2="52.3181" gradientUnits="userSpaceOnUse">
<stop stop-color="#2A47FF"/>
<stop offset="1" stop-color="#D0E2FF"/>
</linearGradient>
<linearGradient id="paint3_linear_14741_22798" x1="46.8622" y1="44.8622" x2="46.8622" y2="69.3624" gradientUnits="userSpaceOnUse">
<stop stop-color="#2A47FF"/>
<stop offset="1" stop-color="#D0E2FF"/>
</linearGradient>
<linearGradient id="paint4_linear_14741_22798" x1="56.4422" y1="22.1321" x2="46.1406" y2="22.1321" gradientUnits="userSpaceOnUse">
<stop stop-color="#2A47FF"/>
<stop offset="1" stop-color="#D0E2FF"/>
</linearGradient>
<linearGradient id="paint5_linear_14741_22798" x1="41.5001" y1="26.1189" x2="59.6785" y2="26.1189" gradientUnits="userSpaceOnUse">
<stop stop-color="#2A47FF"/>
<stop offset="1" stop-color="#D0E2FF"/>
</linearGradient>
</defs>
</svg>
