<svg width="24" height="25" viewBox="0 0 24 25" fill="none" xmlns="http://www.w3.org/2000/svg">
<g clip-path="url(#clip0_14741_22855)">
<path fill-rule="evenodd" clip-rule="evenodd" d="M12 0.915039C5.37 0.915039 0 6.28504 0 12.915C0 18.225 3.435 22.71 8.205 24.3C8.805 24.405 9.03 24.045 9.03 23.73C9.03 23.445 9.015 22.5 9.015 21.495C6 22.05 5.22 20.76 4.98 20.085C4.845 19.74 4.26 18.675 3.75 18.39C3.33 18.165 2.73 17.61 3.735 17.595C4.68 17.58 5.355 18.465 5.58 18.825C6.66 20.64 8.385 20.13 9.075 19.815C9.18 19.035 9.495 18.51 9.84 18.21C7.17 17.91 4.38 16.875 4.38 12.285C4.38 10.98 4.845 9.90004 5.61 9.06004C5.49 8.76004 5.07 7.53004 5.73 5.88004C5.73 5.88004 6.735 5.56504 9.03 7.11004C9.99 6.84004 11.01 6.70504 12.03 6.70504C13.05 6.70504 14.07 6.84004 15.03 7.11004C17.325 5.55004 18.33 5.88004 18.33 5.88004C18.99 7.53004 18.57 8.76004 18.45 9.06004C19.215 9.90004 19.68 10.965 19.68 12.285C19.68 16.89 16.875 17.91 14.205 18.21C14.64 18.585 15.015 19.305 15.015 20.43C15.015 22.035 15 23.325 15 23.73C15 24.045 15.225 24.42 15.825 24.3C18.2072 23.4958 20.2772 21.9647 21.7437 19.9224C23.2101 17.8801 23.9993 15.4293 24 12.915C24 6.28504 18.63 0.915039 12 0.915039Z" fill="#020F3C"/>
</g>
<defs>
<clipPath id="clip0_14741_22855">
<rect width="24" height="24" fill="white" transform="translate(0 0.540039)"/>
</clipPath>
</defs>
</svg>
