<svg width="24" height="25" viewBox="0 0 24 25" fill="none" xmlns="http://www.w3.org/2000/svg">
<g clip-path="url(#clip0_14741_22856)">
<path d="M11.999 0.540039C15.2529 0.54004 15.6597 0.556085 16.9414 0.613281C17.9372 0.633693 18.923 0.822422 19.8555 1.17188C20.6522 1.48009 21.3753 1.95152 21.9795 2.55469C22.5837 3.15789 23.0555 3.88036 23.3643 4.67578C23.7202 5.61871 23.9094 6.61646 23.9229 7.62402C23.9975 8.89711 23.9973 9.30976 24 12.5586C24 15.8091 23.9831 16.2152 23.9258 17.4951C23.9058 18.4914 23.7176 19.4731 23.3672 20.4043C23.0581 21.1994 22.5865 21.9223 21.9824 22.5254C21.3782 23.1286 20.654 23.5996 19.8574 23.9082C18.9251 24.2575 17.9399 24.4462 16.9443 24.4658C15.6717 24.5403 15.2544 24.54 12 24.54C8.74557 24.54 8.33898 24.523 7.05566 24.4658C6.058 24.4331 5.073 24.2306 4.14355 23.8672C3.34669 23.5593 2.62299 23.0883 2.01855 22.4854C1.41417 21.8824 0.941847 21.1605 0.632812 20.3652C0.28231 19.4326 0.0942174 18.4503 0.0742188 17.4551C-0.00041475 16.1831 0 15.7677 0 12.5186C7.01638e-07 9.2696 0.016912 8.8633 0.0742188 7.58203C0.0930882 6.58861 0.28225 5.6057 0.632812 4.67578C0.941328 3.8802 1.41333 3.15696 2.01758 2.55371C2.62177 1.9506 3.3458 1.47983 4.14258 1.17188C5.07435 0.822728 6.05868 0.633892 7.05371 0.613281C8.32648 0.540102 8.74447 0.540039 11.999 0.540039ZM11.9902 6.36133C8.58674 6.36156 5.82931 9.11388 5.8291 12.5117C5.8291 15.9097 8.58662 18.6628 11.9902 18.6631C13.6243 18.6631 15.1922 18.0149 16.3477 16.8613C17.503 15.7078 18.1523 14.1429 18.1523 12.5117C18.1522 10.8807 17.5028 9.3165 16.3477 8.16309C15.1922 7.00955 13.6243 6.36133 11.9902 6.36133ZM12 8.54004C14.2091 8.54004 16 10.3309 16 12.54C16 14.7492 14.2091 16.54 12 16.54C9.79098 16.5399 8.00002 14.7491 8 12.54C8 10.331 9.79097 8.54017 12 8.54004ZM18.3965 4.7002C18.2079 4.7002 18.0209 4.73655 17.8467 4.80859C17.6725 4.88064 17.5142 4.98701 17.3809 5.12012C17.2476 5.25319 17.1415 5.41113 17.0693 5.58496C16.9972 5.75885 16.9609 5.94558 16.9609 6.13379C16.9608 6.32209 16.9972 6.50861 17.0693 6.68262C17.1415 6.85671 17.2474 7.01521 17.3809 7.14844C17.5142 7.28149 17.6725 7.38699 17.8467 7.45898C18.0211 7.531 18.2087 7.56756 18.3975 7.56738C19.1902 7.56722 19.8329 6.92658 19.833 6.13379C19.833 5.94558 19.7958 5.75885 19.7236 5.58496C19.6515 5.41113 19.5453 5.25319 19.4121 5.12012C19.2788 4.98701 19.1205 4.88064 18.9463 4.80859C18.7721 4.73655 18.5851 4.7002 18.3965 4.7002Z" fill="#020F3C"/>
</g>
<defs>
<clipPath id="clip0_14741_22856">
<rect width="24" height="24" fill="white" transform="translate(0 0.540039)"/>
</clipPath>
</defs>
</svg>
