<svg width="24" height="25" viewBox="0 0 24 25" fill="none" xmlns="http://www.w3.org/2000/svg">
<g clip-path="url(#clip0_14741_22858)">
<path d="M22.2857 0.540039H1.70893C0.766071 0.540039 0 1.31682 0 2.2704V22.8097C0 23.7633 0.766071 24.54 1.70893 24.54H22.2857C23.2286 24.54 24 23.7633 24 22.8097V2.2704C24 1.31682 23.2286 0.540039 22.2857 0.540039ZM7.25357 21.1115H3.69643V9.6579H7.25893V21.1115H7.25357ZM5.475 8.09361C4.33393 8.09361 3.4125 7.16682 3.4125 6.03111C3.4125 4.8954 4.33393 3.96861 5.475 3.96861C6.61071 3.96861 7.5375 4.8954 7.5375 6.03111C7.5375 7.17218 6.61607 8.09361 5.475 8.09361ZM20.5875 21.1115H17.0304V15.54C17.0304 14.2115 17.0036 12.5025 15.1821 12.5025C13.3286 12.5025 13.0446 13.949 13.0446 15.4436V21.1115H9.4875V9.6579H12.9V11.2222H12.9482C13.425 10.3222 14.5875 9.37397 16.3179 9.37397C19.9179 9.37397 20.5875 11.7472 20.5875 14.8329V21.1115Z" fill="#020F3C"/>
</g>
<defs>
<clipPath id="clip0_14741_22858">
<rect width="24" height="24" fill="white" transform="translate(0 0.540039)"/>
</clipPath>
</defs>
</svg>
