<svg width="57" height="57" viewBox="0 0 57 57" fill="none" xmlns="http://www.w3.org/2000/svg">
<path d="M0.535278 12.2573C0.535278 5.62991 5.90786 0.257324 12.5353 0.257324H44.5353C51.1627 0.257324 56.5353 5.62991 56.5353 12.2573V44.2573C56.5353 50.8847 51.1627 56.2573 44.5353 56.2573H12.5353C5.90786 56.2573 0.535278 50.8847 0.535278 44.2573V12.2573Z" fill="#3D61D6"/>
<path d="M21.2268 32.2567C20.9503 32.5651 20.9762 33.0393 21.2847 33.3158C21.5931 33.5923 22.0673 33.5664 22.3437 33.2579L21.7853 32.7573L21.2268 32.2567ZM17.8518 27.7567C17.5753 28.0651 17.6012 28.5393 17.9097 28.8158C18.2181 29.0923 18.6923 29.0664 18.9687 28.7579L18.4103 28.2573L17.8518 27.7567ZM14.4768 23.2567C14.2003 23.5651 14.2262 24.0393 14.5347 24.3158C14.8431 24.5923 15.3173 24.5664 15.5937 24.2579L15.0353 23.7573L14.4768 23.2567ZM17.0656 15.727C16.7727 15.4341 16.2978 15.4341 16.0049 15.727C15.7121 16.0199 15.7121 16.4948 16.0049 16.7877L16.5353 16.2573L17.0656 15.727ZM40.0049 40.7877C40.2978 41.0805 40.7727 41.0805 41.0656 40.7877C41.3585 40.4948 41.3585 40.0199 41.0656 39.727L40.5353 40.2573L40.0049 40.7877ZM23.0555 17.805C22.659 17.9249 22.4348 18.3435 22.5546 18.74C22.6745 19.1365 23.0931 19.3607 23.4896 19.2408L23.2725 18.5229L23.0555 17.805ZM41.4815 24.2691C41.7585 24.5771 42.2327 24.6022 42.5407 24.3252C42.8487 24.0482 42.8738 23.574 42.5968 23.266L42.0391 23.7676L41.4815 24.2691ZM28.5353 22.9756C28.1211 22.9756 27.7853 23.3114 27.7853 23.7256C27.7853 24.1398 28.1211 24.4756 28.5353 24.4756V23.7256V22.9756ZM38.0824 28.7591C38.3579 29.0684 38.832 29.0958 39.1413 28.8203C39.4506 28.5448 39.478 28.0707 39.2025 27.7614L38.6425 28.2602L38.0824 28.7591ZM21.7853 32.7573L22.3437 33.2579C23.8552 31.5718 26.0671 30.5073 28.5353 30.5073V29.7573V29.0073C25.6273 29.0073 23.0136 30.2634 21.2268 32.2567L21.7853 32.7573ZM30.0353 37.2573H29.2853C29.2853 37.6715 28.9495 38.0073 28.5353 38.0073V38.7573V39.5073C29.7779 39.5073 30.7853 38.5 30.7853 37.2573H30.0353ZM28.5353 38.7573V38.0073C28.1211 38.0073 27.7853 37.6715 27.7853 37.2573H27.0353H26.2853C26.2853 38.5 27.2926 39.5073 28.5353 39.5073V38.7573ZM27.0353 37.2573H27.7853C27.7853 36.8431 28.1211 36.5073 28.5353 36.5073V35.7573V35.0073C27.2926 35.0073 26.2853 36.0147 26.2853 37.2573H27.0353ZM28.5353 35.7573V36.5073C28.9495 36.5073 29.2853 36.8431 29.2853 37.2573H30.0353H30.7853C30.7853 36.0147 29.7779 35.0073 28.5353 35.0073V35.7573ZM18.4103 28.2573L18.9687 28.7579C20.5132 27.035 22.5309 25.7324 24.8217 25.0474L24.6068 24.3289L24.392 23.6103C21.8326 24.3756 19.5782 25.8309 17.8518 27.7567L18.4103 28.2573ZM16.5353 16.2573L16.0049 16.7877L19.5683 20.351L20.0986 19.8206L20.6289 19.2903L17.0656 15.727L16.5353 16.2573ZM20.0986 19.8206L19.5683 20.351L24.0765 24.8592L24.6068 24.3289L25.1372 23.7985L20.6289 19.2903L20.0986 19.8206ZM15.0353 23.7573L15.5937 24.2579C16.962 22.7316 18.6049 21.4489 20.4464 20.4851L20.0986 19.8206L19.7508 19.1561C17.7499 20.2034 15.9644 21.5972 14.4768 23.2567L15.0353 23.7573ZM24.6068 24.3289L24.0765 24.8592L29.6532 30.4359L30.1836 29.9056L30.7139 29.3753L25.1372 23.7985L24.6068 24.3289ZM30.1836 29.9056L29.6532 30.4359L40.0049 40.7877L40.5353 40.2573L41.0656 39.727L30.7139 29.3753L30.1836 29.9056ZM28.5353 29.7573V30.5073C29.053 30.5073 29.5589 30.5541 30.0491 30.6434L30.1836 29.9056L30.318 29.1678C29.7395 29.0623 29.1436 29.0073 28.5353 29.0073V29.7573ZM23.2725 18.5229L23.4896 19.2408C25.0857 18.7582 26.7795 18.4985 28.5353 18.4985V17.7485V16.9985C26.6308 16.9985 24.7909 17.2803 23.0555 17.805L23.2725 18.5229ZM28.5353 17.7485V18.4985C33.6752 18.4985 38.294 20.7253 41.4815 24.2691L42.0391 23.7676L42.5968 23.266C39.1368 19.4193 34.1182 16.9985 28.5353 16.9985V17.7485ZM28.5353 23.7256V24.4756C32.3315 24.4756 35.7405 26.1298 38.0824 28.7591L38.6425 28.2602L39.2025 27.7614C36.588 24.8261 32.7773 22.9756 28.5353 22.9756V23.7256Z" fill="white"/>
</svg>
