<svg width="57" height="57" viewBox="0 0 57 57" fill="none" xmlns="http://www.w3.org/2000/svg">
<path d="M0.535278 12.2573C0.535278 5.62991 5.90786 0.257324 12.5353 0.257324H44.5353C51.1627 0.257324 56.5353 5.62991 56.5353 12.2573V44.2573C56.5353 50.8847 51.1627 56.2573 44.5353 56.2573H12.5353C5.90786 56.2573 0.535278 50.8847 0.535278 44.2573V12.2573Z" fill="#3D61D6"/>
<path d="M33.0353 14.7573H24.0353V18.8288L22.6127 19.6417L19.094 17.6101L14.594 25.4044L18.0353 27.3912V29.1233L14.594 31.1101L19.094 38.9044L22.6126 36.8729L24.0353 37.6859V41.7573H33.0353V37.6859L34.4581 36.8729L37.9767 38.9044L42.4767 31.1101L39.0353 29.1232V27.3913L42.4767 25.4044L37.9767 17.6101L34.4579 19.6417L33.0353 18.8288V14.7573Z" stroke="white" stroke-width="1.5" stroke-linecap="round" stroke-linejoin="round"/>
<path d="M33.0353 28.2573C33.0353 30.7426 31.0206 32.7573 28.5353 32.7573C26.05 32.7573 24.0353 30.7426 24.0353 28.2573C24.0353 25.772 26.05 23.7573 28.5353 23.7573C31.0206 23.7573 33.0353 25.772 33.0353 28.2573Z" stroke="white" stroke-width="1.5" stroke-linecap="round" stroke-linejoin="round"/>
</svg>
