<svg width="163" height="26" viewBox="0 0 163 26" fill="none" xmlns="http://www.w3.org/2000/svg">
<path d="M11.3951 0C17.6884 0 22.7902 5.06113 22.7902 11.3043V22.6087H17.6624V26H14.2439V19.2174H19.3716V11.3043C19.3716 6.93409 15.8004 3.3913 11.3951 3.3913C6.98975 3.3913 3.41853 6.93409 3.41853 11.3043C3.41853 14.889 5.8212 17.9168 9.11607 18.8896V26H5.69754V21.0961C2.29162 19.1415 0 15.4885 0 11.3043C0 5.06113 5.10175 0 11.3951 0Z" fill="#3D61D6"/>
<path d="M35.5889 16.6852V14.2887H39.4632C39.9646 14.2887 40.4204 14.1907 40.8306 13.9947C41.2408 13.7837 41.5599 13.4898 41.7878 13.113C42.0309 12.7211 42.1524 12.2539 42.1524 11.7113C42.1524 11.1837 42.0309 10.724 41.7878 10.3321C41.5599 9.94025 41.2408 9.64633 40.8306 9.45039C40.4204 9.23938 39.9646 9.13387 39.4632 9.13387H35.5889V6.73735H39.6911C40.6939 6.73735 41.5979 6.94836 42.4031 7.37039C43.2084 7.77735 43.8389 8.3501 44.2947 9.08865C44.7657 9.8272 45.0012 10.7014 45.0012 11.7113C45.0012 12.7211 44.7657 13.6029 44.2947 14.3565C43.8389 15.095 43.2084 15.6678 42.4031 16.0747C41.5979 16.4817 40.6939 16.6852 39.6911 16.6852H35.5889ZM33.5605 22.6087V6.73735H36.4321V22.6087H33.5605Z" fill="#020F3C"/>
<path d="M47.3566 22.6087V11.7113H50.1142V22.6087H47.3566ZM50.1142 16.5721L49.0887 15.9617C49.1646 14.6202 49.5217 13.5426 50.1598 12.7287C50.7979 11.8997 51.7323 11.4852 52.963 11.4852C53.5099 11.4852 53.9961 11.5831 54.4216 11.7791C54.8622 11.96 55.2572 12.2539 55.6066 12.6608L53.8746 14.5826C53.6771 14.3716 53.4568 14.2284 53.2137 14.153C52.9858 14.0626 52.7123 14.0173 52.3932 14.0173C51.7247 14.0173 51.1777 14.2284 50.7523 14.6504C50.3269 15.0573 50.1142 15.6979 50.1142 16.5721Z" fill="#020F3C"/>
<path d="M56.9993 22.6087V11.7113H59.7569V22.6087H56.9993ZM58.3667 9.85735C57.9261 9.85735 57.5539 9.70662 57.25 9.40517C56.9462 9.08865 56.7942 8.7043 56.7942 8.25213C56.7942 7.79996 56.9462 7.42314 57.25 7.12169C57.5539 6.82025 57.9261 6.66952 58.3667 6.66952C58.8377 6.66952 59.2176 6.82025 59.5062 7.12169C59.8101 7.42314 59.9621 7.79996 59.9621 8.25213C59.9621 8.7043 59.8101 9.08865 59.5062 9.40517C59.2176 9.70662 58.8377 9.85735 58.3667 9.85735Z" fill="#020F3C"/>
<path d="M66.3481 22.6087L61.4254 11.7113H64.4565L68.103 20.6417H66.4621L70.1313 11.7113H73.0712L68.1485 22.6087H66.3481Z" fill="#020F3C"/>
<path d="M78.9505 22.8347C77.9478 22.8347 77.0438 22.586 76.2385 22.0887C75.4484 21.5913 74.8179 20.9205 74.3469 20.0765C73.8911 19.2173 73.6632 18.2527 73.6632 17.1826C73.6632 16.1124 73.8911 15.1478 74.3469 14.2887C74.8179 13.4295 75.4484 12.7513 76.2385 12.2539C77.0438 11.7414 77.9478 11.4852 78.9505 11.4852C79.7558 11.4852 80.4775 11.6585 81.1156 12.0052C81.7537 12.3368 82.2627 12.7965 82.6425 13.3843C83.0224 13.9721 83.2199 14.6429 83.2351 15.3965V18.9234C83.2199 19.6771 83.0224 20.3478 82.6425 20.9356C82.2779 21.5234 81.7689 21.9907 81.1156 22.3373C80.4775 22.6689 79.7558 22.8347 78.9505 22.8347ZM79.4291 20.28C80.3103 20.28 81.0168 19.9936 81.5486 19.4208C82.0956 18.833 82.3691 18.0794 82.3691 17.16C82.3691 16.542 82.2475 15.9994 82.0044 15.5321C81.7613 15.0649 81.4195 14.7031 80.9789 14.4469C80.5383 14.1756 80.0217 14.04 79.4291 14.04C78.8518 14.04 78.3428 14.1756 77.9022 14.4469C77.4616 14.7031 77.1121 15.0724 76.8538 15.5547C76.6107 16.022 76.4892 16.5571 76.4892 17.16C76.4892 17.7779 76.6107 18.3205 76.8538 18.7878C77.1121 19.255 77.4616 19.6243 77.9022 19.8956C78.3428 20.1518 78.8518 20.28 79.4291 20.28ZM82.2095 22.6087V19.6921L82.6653 17.0243L82.2095 14.4017V11.7113H84.9671V22.6087H82.2095Z" fill="#020F3C"/>
<path d="M89.5248 22.6087V7.18952H92.2824V22.6087H89.5248ZM86.9495 14.153V11.7113H94.8805V14.153H86.9495Z" fill="#020F3C"/>
<path d="M101.72 22.8347C100.611 22.8347 99.6083 22.5936 98.7119 22.1113C97.8307 21.6139 97.1318 20.9356 96.6152 20.0765C96.0987 19.2173 95.8404 18.2452 95.8404 17.16C95.8404 16.0898 96.0911 15.1252 96.5924 14.266C97.109 13.4069 97.8003 12.7287 98.6663 12.2313C99.5324 11.7339 100.497 11.4852 101.561 11.4852C102.594 11.4852 103.505 11.7188 104.296 12.186C105.101 12.6533 105.731 13.3014 106.187 14.1304C106.643 14.9443 106.871 15.8713 106.871 16.9113C106.871 17.1072 106.856 17.3031 106.825 17.4991C106.81 17.695 106.78 17.906 106.734 18.1321L97.618 18.1547V16.0295H105.389L104.318 16.8887C104.288 16.2255 104.159 15.6753 103.931 15.2382C103.718 14.786 103.414 14.4469 103.019 14.2208C102.624 13.9797 102.13 13.8591 101.538 13.8591C100.915 13.8591 100.376 13.9947 99.9198 14.266C99.4792 14.5223 99.1298 14.8916 98.8715 15.3739C98.6284 15.8562 98.5068 16.4365 98.5068 17.1147C98.5068 17.7779 98.636 18.3658 98.8942 18.8782C99.1677 19.3756 99.54 19.76 100.011 20.0313C100.497 20.2875 101.067 20.4156 101.72 20.4156C102.267 20.4156 102.776 20.3252 103.247 20.1443C103.718 19.9484 104.121 19.662 104.455 19.2852L106.142 20.9582C105.595 21.5762 104.941 22.0434 104.182 22.36C103.422 22.6765 102.601 22.8347 101.72 22.8347Z" fill="#020F3C"/>
<path d="M114.103 22.6087V6.73735H116.109L122.672 17.3182H121.442L128.005 6.73735H130.011V22.6087H127.162V11.666L127.755 11.8243L123.037 19.4434H121.077L116.36 11.8243L116.952 11.666V22.6087H114.103Z" fill="#020F3C"/>
<path d="M133.286 22.6087V11.7113H136.043V22.6087H133.286ZM134.653 9.85735C134.213 9.85735 133.84 9.70662 133.537 9.40517C133.233 9.08865 133.081 8.7043 133.081 8.25213C133.081 7.79996 133.233 7.42314 133.537 7.12169C133.84 6.82025 134.213 6.66952 134.653 6.66952C135.124 6.66952 135.504 6.82025 135.793 7.12169C136.097 7.42314 136.249 7.79996 136.249 8.25213C136.249 8.7043 136.097 9.08865 135.793 9.40517C135.504 9.70662 135.124 9.85735 134.653 9.85735Z" fill="#020F3C"/>
<path d="M146.441 22.6087V16.346C146.441 15.6527 146.22 15.0875 145.78 14.6504C145.354 14.2133 144.8 13.9947 144.116 13.9947C143.645 13.9947 143.227 14.1002 142.863 14.3113C142.513 14.5072 142.24 14.786 142.042 15.1478C141.845 15.4944 141.746 15.8939 141.746 16.346L140.675 15.7808C140.675 14.9368 140.857 14.1982 141.222 13.5652C141.601 12.9171 142.11 12.4121 142.749 12.0504C143.402 11.6736 144.146 11.4852 144.982 11.4852C145.787 11.4852 146.509 11.6887 147.147 12.0956C147.785 12.5026 148.287 13.0376 148.651 13.7008C149.016 14.3489 149.198 15.0272 149.198 15.7356V22.6087H146.441ZM138.988 22.6087V11.7113H141.746V22.6087H138.988Z" fill="#020F3C"/>
<path d="M156.506 22.8347C155.503 22.8347 154.599 22.586 153.794 22.0887C152.989 21.5913 152.351 20.9205 151.88 20.0765C151.424 19.2173 151.196 18.2527 151.196 17.1826C151.196 16.0973 151.424 15.1327 151.88 14.2887C152.351 13.4295 152.981 12.7513 153.771 12.2539C154.577 11.7414 155.488 11.4852 156.506 11.4852C157.311 11.4852 158.033 11.6585 158.671 12.0052C159.325 12.3368 159.841 12.7965 160.221 13.3843C160.601 13.9721 160.798 14.6429 160.814 15.3965V18.9008C160.798 19.6544 160.601 20.3327 160.221 20.9356C159.841 21.5234 159.325 21.9907 158.671 22.3373C158.033 22.6689 157.311 22.8347 156.506 22.8347ZM156.962 20.28C157.555 20.28 158.071 20.1518 158.512 19.8956C158.952 19.6243 159.294 19.255 159.537 18.7878C159.78 18.3205 159.902 17.7779 159.902 17.16C159.902 16.542 159.78 15.9994 159.537 15.5321C159.294 15.0649 158.952 14.7031 158.512 14.4469C158.071 14.1756 157.562 14.04 156.985 14.04C156.392 14.04 155.876 14.1756 155.435 14.4469C154.994 14.7031 154.645 15.0724 154.387 15.5547C154.144 16.022 154.022 16.5571 154.022 17.16C154.022 17.7779 154.144 18.3205 154.387 18.7878C154.645 19.255 154.994 19.6243 155.435 19.8956C155.891 20.1518 156.4 20.28 156.962 20.28ZM162.5 22.6087H159.742V19.6921L160.198 17.0243L159.742 14.4017V6.28517H162.5V22.6087Z" fill="#020F3C"/>
</svg>
