<svg width="56" height="57" viewBox="0 0 56 57" fill="none" xmlns="http://www.w3.org/2000/svg">
<path d="M0 12.2573C0 5.62991 5.37258 0.257324 12 0.257324H44C50.6274 0.257324 56 5.62991 56 12.2573V44.2573C56 50.8847 50.6274 56.2573 44 56.2573H12C5.37258 56.2573 0 50.8847 0 44.2573V12.2573Z" fill="#3D61D6"/>
<path d="M22 23.7573V20.7573C22 18.7573 23.2 14.7573 28 14.7573C32.8 14.7573 34 18.7573 34 20.7573V23.7573M22 23.7573H17.5V41.7573H38.5V23.7573H34M22 23.7573H34M32.5001 29.7573L26.5001 35.7574L23.5 32.7573" stroke="white" stroke-width="1.5" stroke-linecap="round" stroke-linejoin="round"/>
</svg>
