<svg width="206" height="82" viewBox="0 0 206 82" fill="none" xmlns="http://www.w3.org/2000/svg">
<path d="M72.6646 44.3028V56.2788C72.6646 57.9108 72.1126 59.1828 71.0566 60.1428C69.9766 61.1028 68.3206 61.5828 66.0646 61.5828C64.3126 61.5828 62.8966 61.1988 61.8406 60.4308C60.7606 59.6628 60.1846 58.5828 60.1126 57.1668H63.5206C63.6646 57.7668 63.9766 58.2228 64.4566 58.5348C64.9366 58.8708 65.5606 59.0148 66.3286 59.0148C67.2886 59.0148 68.0326 58.7748 68.5606 58.2948C69.0886 57.8148 69.3526 57.1188 69.3526 56.1588V54.8628C68.4406 56.0148 67.1686 56.5668 65.5366 56.5668C64.4326 56.5668 63.4726 56.3268 62.6086 55.7988C61.7446 55.2948 61.0486 54.5748 60.5686 53.6388C60.0886 52.7028 59.8486 51.5988 59.8486 50.3508C59.8486 49.1268 60.0886 48.0468 60.5686 47.0868C61.0486 46.1508 61.7446 45.4308 62.6086 44.9028C63.4726 44.3988 64.4566 44.1348 65.5606 44.1348C67.1686 44.1348 68.4406 44.7588 69.4006 46.0068L69.6886 44.3028H72.6646ZM68.5126 52.8948C69.0406 52.2708 69.3286 51.4308 69.3286 50.3988C69.3286 49.3668 69.0406 48.5268 68.5126 47.8548C67.9606 47.2068 67.2406 46.8708 66.3286 46.8708C65.4166 46.8708 64.6726 47.2068 64.1206 47.8548C63.5686 48.5028 63.3046 49.3428 63.3046 50.3748C63.3046 51.4308 63.5686 52.2708 64.1206 52.8948C64.6726 53.5428 65.4166 53.8548 66.3286 53.8548C67.2406 53.8548 67.9606 53.5428 68.5126 52.8948Z" fill="#001A72"/>
<path d="M59.0195 53.7822V56.6382H57.2915C55.7315 56.6382 54.9635 55.9662 55.0115 54.6222C54.5555 55.3422 54.0035 55.8702 53.3555 56.2302C52.6835 56.6142 51.8915 56.7822 50.9795 56.7822C49.5875 56.7822 48.4835 56.4702 47.6435 55.8462C46.8035 55.2222 46.3955 54.3102 46.3955 53.1582C46.3955 51.8622 46.8755 50.8542 47.8355 50.1342C48.7955 49.4142 50.2115 49.0542 52.0595 49.0542H54.5075V48.4542C54.5075 47.9022 54.2915 47.4702 53.8835 47.1342C53.4515 46.7982 52.8995 46.6302 52.2035 46.6302C51.5795 46.6302 51.0515 46.7742 50.6675 47.0382C50.2595 47.3262 50.0195 47.6862 49.9475 48.1422H46.6835C46.7795 46.8942 47.3555 45.9102 48.3635 45.2142C49.3715 44.5182 50.6915 44.1582 52.3715 44.1582C54.0995 44.1582 55.4435 44.5422 56.4035 45.3102C57.3635 46.0782 57.8435 47.2062 57.8435 48.6462V52.9902C57.8435 53.3022 57.8915 53.5182 58.0355 53.6142C58.1555 53.7342 58.3475 53.7822 58.6355 53.7822H59.0195ZM54.5075 51.3102H52.0355C51.3155 51.3102 50.7635 51.4542 50.3795 51.7422C49.9955 52.0302 49.8035 52.4142 49.8035 52.9182C49.8035 53.3502 49.9475 53.7102 50.2835 53.9502C50.6195 54.2142 51.0515 54.3342 51.6275 54.3342C52.4915 54.3342 53.1875 54.0942 53.7155 53.5902C54.2195 53.0862 54.4835 52.4142 54.5075 51.5502V51.3102Z" fill="#001A72"/>
<path d="M38.9091 39.8389C40.1091 39.8389 41.1891 40.0789 42.1251 40.5349C43.0611 40.9909 43.7811 41.6389 44.3091 42.4789C44.8131 43.3429 45.0771 44.3269 45.0771 45.4309C45.0771 46.5109 44.8131 47.4709 44.3091 48.2869C43.7811 49.1029 43.0851 49.7269 42.1971 50.1589L45.5091 56.6389H41.5251L38.7171 50.9989H35.6691V56.6389H32.0691V39.8389H38.9091ZM35.6691 47.9989H38.6211C39.4611 47.9989 40.1331 47.7829 40.6371 47.3029C41.1411 46.8469 41.4051 46.2229 41.4051 45.4309C41.4051 44.6389 41.1411 44.0149 40.6371 43.5349C40.1331 43.0789 39.4611 42.8389 38.6211 42.8389H35.6691V47.9989Z" fill="#001A72"/>
<path d="M166.529 32.3475V20.1273H173.931V21.4541H167.891V31.0207H173.896V32.3475H166.529ZM167.158 26.7262V25.3995H172.953V26.7262H167.158Z" fill="#001A72"/>
<path d="M156.113 32.3475L151.382 20.1273H152.918L155.955 28.0879C156.095 28.4487 156.217 28.7687 156.322 29.0481C156.427 29.3274 156.52 29.5951 156.601 29.8511C156.694 30.0955 156.782 30.3399 156.863 30.5843C156.945 30.8287 157.032 31.0964 157.125 31.3874L156.671 31.4048C156.788 31.0091 156.898 30.6425 157.003 30.305C157.119 29.9675 157.236 29.6242 157.352 29.275C157.48 28.9142 157.637 28.4952 157.823 28.0181L160.844 20.1273H162.38L157.509 32.3475H156.113Z" fill="#001A72"/>
<path d="M142.49 32.3475V31.0557H144.463V21.4192H142.49V20.1273H147.797V21.4192H145.824V31.0557H147.797V32.3475H142.49Z" fill="#001A72"/>
<path d="M133.85 32.3475V21.4541H130.358V20.1273H138.843V21.4541H135.212V32.3475H133.85Z" fill="#001A72"/>
<path d="M117.474 32.3475L122.153 20.1273H123.706L128.35 32.3475H126.866L123.881 24.4218C123.799 24.2007 123.706 23.9447 123.602 23.6537C123.508 23.3511 123.404 23.0427 123.287 22.7285C123.183 22.4026 123.078 22.0884 122.973 21.7858C122.88 21.4832 122.793 21.2155 122.711 20.9827H123.06C122.967 21.2737 122.868 21.5705 122.764 21.8731C122.671 22.164 122.572 22.4608 122.467 22.7634C122.362 23.0544 122.257 23.3453 122.153 23.6363C122.048 23.9272 121.943 24.2182 121.838 24.5091L118.871 32.3475H117.474ZM119.464 28.9782L119.97 27.6515H125.749L126.307 28.9782H119.464Z" fill="#001A72"/>
<path d="M103.174 32.3475V20.1273H104.414L112.409 30.7065L112.165 31.0207C112.13 30.8345 112.101 30.5552 112.078 30.1828C112.066 29.8104 112.049 29.3914 112.025 28.9259C112.014 28.4487 112.002 27.9541 111.99 27.442C111.979 26.9299 111.967 26.4294 111.955 25.9406C111.955 25.4518 111.955 25.0096 111.955 24.6139V20.1273H113.317V32.3475H112.043L104.082 21.908L104.292 21.5414C104.327 22.0069 104.356 22.4666 104.379 22.9205C104.414 23.3744 104.437 23.8108 104.449 24.2298C104.472 24.6488 104.49 25.0329 104.501 25.382C104.513 25.7312 104.519 26.0279 104.519 26.2723C104.53 26.5167 104.536 26.6913 104.536 26.7961V32.3475H103.174Z" fill="#001A72"/>
<path d="M87.1453 32.3475V21.4541H83.6538V20.1273H92.1381V21.4541H88.5069V32.3475H87.1453Z" fill="#001A72"/>
<path d="M76.273 32.5221C75.4001 32.5221 74.5971 32.3708 73.8638 32.0682C73.1306 31.754 72.4963 31.3175 71.961 30.7589C71.4256 30.1886 71.0066 29.5194 70.7041 28.7513C70.4131 27.9832 70.2676 27.1452 70.2676 26.2374C70.2676 25.3413 70.4131 24.5208 70.7041 23.7759C71.0066 23.0194 71.4314 22.3619 71.9784 21.8032C72.5254 21.233 73.1597 20.7965 73.8813 20.4939C74.6029 20.1913 75.3943 20.04 76.2555 20.04C76.8258 20.04 77.3902 20.1331 77.9489 20.3194C78.5075 20.4939 79.0196 20.7383 79.4851 21.0526C79.9623 21.3668 80.3522 21.7276 80.6548 22.1349L79.7121 23.1125C79.4211 22.7634 79.0836 22.4608 78.6995 22.2048C78.3271 21.9487 77.9314 21.7509 77.5124 21.6112C77.0935 21.4715 76.6745 21.4017 76.2555 21.4017C75.6038 21.4017 74.9928 21.5239 74.4225 21.7683C73.8638 22.0011 73.3809 22.3328 72.9735 22.7634C72.5662 23.194 72.2461 23.7061 72.0134 24.2996C71.7922 24.8932 71.6817 25.5391 71.6817 26.2374C71.6817 26.959 71.7922 27.6224 72.0134 28.2276C72.2461 28.8328 72.572 29.3565 72.991 29.7987C73.4216 30.2293 73.922 30.5669 74.4923 30.8113C75.0742 31.044 75.7201 31.1604 76.4301 31.1604C76.8491 31.1604 77.268 31.1022 77.687 30.9858C78.106 30.8578 78.4901 30.6832 78.8392 30.4621C79.1884 30.241 79.4851 29.9908 79.7295 29.7114L80.4278 30.8462C80.1601 31.172 79.7994 31.463 79.3455 31.719C78.9032 31.9634 78.4144 32.1613 77.879 32.3126C77.3437 32.4523 76.8083 32.5221 76.273 32.5221Z" fill="#001A72"/>
<path d="M56.5231 32.3475L61.2016 20.1273H62.7553L67.399 32.3475H65.9151L62.9299 24.4218C62.8484 24.2007 62.7553 23.9447 62.6506 23.6537C62.5575 23.3511 62.4527 23.0427 62.3364 22.7285C62.2316 22.4026 62.1269 22.0884 62.0221 21.7858C61.929 21.4832 61.8417 21.2155 61.7603 20.9827H62.1094C62.0163 21.2737 61.9174 21.5705 61.8126 21.8731C61.7195 22.164 61.6206 22.4608 61.5159 22.7634C61.4111 23.0544 61.3064 23.3453 61.2016 23.6363C61.0969 23.9272 60.9921 24.2182 60.8874 24.5091L57.9196 32.3475H56.5231ZM58.5132 28.9782L59.0195 27.6515H64.7979L65.3565 28.9782H58.5132Z" fill="#001A72"/>
<path d="M45.514 32.3475V20.1273H52.9159V21.4541H46.8756V31.0207H52.881V32.3475H45.514ZM46.1424 26.7262V25.3995H51.9383V26.7262H46.1424Z" fill="#001A72"/>
<path d="M32.0691 32.3475V20.1273H36.8524C37.5624 20.1273 38.2025 20.2961 38.7727 20.6336C39.3546 20.9595 39.8144 21.4075 40.1519 21.9778C40.4894 22.5481 40.6581 23.194 40.6581 23.9156C40.6581 24.5906 40.4952 25.2016 40.1693 25.7486C39.8435 26.2956 39.4012 26.732 38.8426 27.0579C38.2839 27.3721 37.6555 27.5293 36.9572 27.5293H33.4308V32.3475H32.0691ZM39.5234 32.3475L36.4509 26.9706L37.7602 26.5167L41.1469 32.3475H39.5234ZM33.4308 26.2025H37.0794C37.51 26.2025 37.8882 26.1036 38.2141 25.9057C38.54 25.7079 38.796 25.4402 38.9822 25.1027C39.1684 24.7535 39.2615 24.3578 39.2615 23.9156C39.2615 23.4384 39.151 23.0136 38.9299 22.6412C38.7087 22.2688 38.4003 21.9778 38.0046 21.7683C37.6205 21.5588 37.1783 21.4541 36.6778 21.4541H33.4308V26.2025Z" fill="#001A72"/>
</svg>
