<svg width="265" height="82" viewBox="0 0 265 82" fill="none" xmlns="http://www.w3.org/2000/svg">
<path d="M32.9311 44.0525V43.3972L34.5997 42.1229C34.5997 42.1229 34.5997 40.8486 34.5997 40.703C34.5997 40.5573 34.5997 39.7563 34.5997 39.7563L34.288 39.2284C34.288 39.2284 37.2585 37.2078 37.4052 37.0803C37.5519 36.9347 39.789 35.6604 39.789 35.6604L41.531 35.1143C41.531 35.1143 43.5297 35.0233 43.8597 35.1143C44.1898 35.2053 47.032 35.2053 47.032 35.2053L47.9305 34.6956L51.0661 33.1847L54.5684 32.2381H57.1722L60.4544 32.8934H65.4237L69.6411 32.2381L71.108 31.4007L72.685 30.5997L71.1264 30.4177C71.1264 30.4177 71.4931 29.7805 71.5298 29.7259C71.5665 29.6713 72.52 29.1616 72.52 29.1616L73.6385 28.5244H72.2449C72.2449 28.5244 73.1434 27.7963 73.2351 27.6506C73.3268 27.505 73.9136 27.2683 73.9136 27.2683L74.9954 27.0499L76.609 26.2489L77.5992 24.8836C77.5992 24.8836 78.6994 24.5013 78.8828 24.5013C79.0662 24.5013 79.5062 24.5013 79.6896 24.5013C79.873 24.5013 80.8998 23.8096 80.8998 23.8096L81.78 24.5377L83.6687 25.4843L85.6674 27.0317L86.2908 28.215L88.8579 30.4359L89.5547 31.6373L89.0963 32.948L88.5279 33.1301L87.5744 33.3667L86.7492 32.8934L84.2921 32.3291L83.1552 31.6737L81.2666 31.5281L79.763 32.3837L78.186 36.516L77.9476 38.8643L77.5626 40.3753L76.9941 41.3219L81.89 42.9785L85.3923 45.436L88.1978 47.3657L88.2895 48.112L89.5547 49.095L89.8848 50.1873L87.8128 50.515L86.6209 48.4761L85.429 47.3474L82.0184 44.8535H80.3497L79.873 46.6921L78.021 48.9494H77.1225L75.3622 49.9506V48.1848L75.8389 47.7661H76.9758L77.9293 46.8741L78.4977 46.0732V44.8535L76.3157 44.1981L73.2351 44.9627L71.3648 44.6168L69.3477 45.4906C69.3477 45.4906 62.8015 44.2528 62.6548 44.1617C62.5081 44.0707 60.4728 43.4154 60.4728 43.4154L59.5743 43.5064H59.0609L60.1244 45.8183L61.5363 47.839L66.4322 50.2419L67.4407 50.8244L67.5874 51.2249L69.1093 51.8257L69.4211 52.3536L67.7524 53.0089L66.4139 52.1897C66.4139 52.1897 64.6719 51.2067 64.5435 51.1703C64.3968 51.1157 62.3615 49.8414 62.3615 49.8414C62.3615 49.8414 59.3909 49.2953 59.3909 49.1679C59.3909 49.0222 57.6306 46.8195 57.5389 46.6557C57.4472 46.4919 55.8153 44.3256 55.8153 44.3256L54.8067 43.743L53.7616 47.1836L51.5245 50.4785L51.6162 51.6982L53.3215 55.2298L54.7517 56.7408L54.33 57.2141H52.3313L51.4328 55.7031V54.9568L48.939 50.6606V49.714L49.4158 48.8948L50.516 46.4736L50.6993 44.9263C50.6993 44.9263 48.3706 42.3413 48.2239 42.1411C48.0772 41.959 47.2704 38.8461 47.2704 38.8461V36.9711C47.2704 36.9711 46.6103 36.9711 46.4636 36.9165C46.3169 36.8619 44.5749 37.6629 44.5749 37.6629C44.2815 37.6629 44.2815 37.6629 44.2815 37.6629L42.1911 38.1726L40.7058 39.0282L39.2022 40.1204L37.5886 39.8838L36.3967 40.9214L35.2048 42.9603L34.0863 43.9797L32.9311 44.0525Z" fill="#001A72"/>
<path fill-rule="evenodd" clip-rule="evenodd" d="M89.8848 57.8132H32.9311V57.2141H89.8848V57.8132Z" fill="#001A72"/>
<path d="M101.568 35.2509V24.0718H105.969C106.622 24.0718 107.211 24.2262 107.736 24.5349C108.272 24.833 108.695 25.2429 109.005 25.7646C109.316 26.2863 109.471 26.8772 109.471 27.5373C109.471 28.1548 109.321 28.7138 109.021 29.2142C108.721 29.7146 108.314 30.1138 107.8 30.4119C107.286 30.6994 106.708 30.8431 106.065 30.8431H102.821V35.2509H101.568ZM108.427 35.2509L105.6 30.3321L106.804 29.9169L109.921 35.2509H108.427ZM102.821 29.6294H106.178C106.574 29.6294 106.922 29.5389 107.222 29.3579C107.522 29.1769 107.758 28.932 107.929 28.6233C108.1 28.3039 108.186 27.9419 108.186 27.5373C108.186 27.1008 108.084 26.7122 107.881 26.3715C107.677 26.0308 107.393 25.7646 107.029 25.573C106.676 25.3813 106.269 25.2855 105.808 25.2855H102.821V29.6294Z" fill="#001A72"/>
<path d="M113.939 35.2509V24.0718H120.75V25.2855H115.192V34.0372H120.718V35.2509H113.939ZM114.518 30.1085V28.8948H119.851V30.1085H114.518Z" fill="#001A72"/>
<path d="M124.07 35.2509L128.375 24.0718H129.804L134.077 35.2509H132.712L129.965 28.0004C129.89 27.7982 129.804 27.5639 129.708 27.2978C129.622 27.0209 129.526 26.7388 129.419 26.4513C129.323 26.1532 129.226 25.8658 129.13 25.5889C129.044 25.3121 128.964 25.0673 128.889 24.8543H129.21C129.124 25.1205 129.033 25.392 128.937 25.6688C128.851 25.935 128.76 26.2065 128.664 26.4833C128.568 26.7494 128.471 27.0156 128.375 27.2818C128.278 27.548 128.182 27.8141 128.086 28.0803L125.355 35.2509H124.07ZM125.901 32.1686L126.367 30.9549H131.684L132.198 32.1686H125.901Z" fill="#001A72"/>
<path d="M142.243 35.4106C141.44 35.4106 140.701 35.2722 140.026 34.9954C139.352 34.7079 138.768 34.3086 138.275 33.7976C137.783 33.2759 137.397 32.6637 137.119 31.961C136.851 31.2583 136.717 30.4918 136.717 29.6613C136.717 28.8415 136.851 28.0909 137.119 27.4095C137.397 26.7175 137.788 26.116 138.291 25.6049C138.795 25.0832 139.378 24.684 140.042 24.4072C140.706 24.1303 141.435 23.9919 142.227 23.9919C142.752 23.9919 143.271 24.0771 143.785 24.2475C144.299 24.4072 144.77 24.6307 145.199 24.9182C145.638 25.2057 145.997 25.5357 146.275 25.9084L145.408 26.8027C145.14 26.4833 144.829 26.2065 144.476 25.9722C144.133 25.738 143.769 25.557 143.384 25.4292C142.998 25.3015 142.613 25.2376 142.227 25.2376C141.627 25.2376 141.065 25.3494 140.54 25.573C140.026 25.7859 139.582 26.0893 139.207 26.4833C138.832 26.8772 138.538 27.3457 138.323 27.8886C138.12 28.4316 138.018 29.0225 138.018 29.6613C138.018 30.3214 138.12 30.9283 138.323 31.4819C138.538 32.0356 138.838 32.5147 139.223 32.9192C139.619 33.3132 140.08 33.6219 140.605 33.8455C141.14 34.0584 141.734 34.1649 142.388 34.1649C142.773 34.1649 143.159 34.1117 143.544 34.0052C143.93 33.8881 144.283 33.7284 144.604 33.5261C144.926 33.3238 145.199 33.0949 145.424 32.8394L146.066 33.8775C145.82 34.1756 145.488 34.4417 145.07 34.676C144.663 34.8995 144.214 35.0805 143.721 35.2189C143.228 35.3467 142.736 35.4106 142.243 35.4106Z" fill="#001A72"/>
<path d="M152.247 35.2509V25.2855H149.035V24.0718H156.842V25.2855H153.5V35.2509H152.247Z" fill="#001A72"/>
<path d="M166.997 35.2509V24.0718H168.138L175.495 33.7497L175.27 34.0372C175.238 33.8668 175.211 33.6113 175.19 33.2706C175.179 32.9299 175.163 32.5466 175.141 32.1207C175.131 31.6842 175.12 31.2317 175.109 30.7633C175.099 30.2948 175.088 29.837 175.077 29.3898C175.077 28.9427 175.077 28.5381 175.077 28.1761V24.0718H176.33V35.2509H175.158L167.832 25.7007L168.025 25.3654C168.057 25.7912 168.084 26.2118 168.106 26.627C168.138 27.0422 168.159 27.4415 168.17 27.8248C168.191 28.2081 168.207 28.5594 168.218 28.8788C168.229 29.1982 168.234 29.4697 168.234 29.6933C168.245 29.9169 168.25 30.0766 168.25 30.1724V35.2509H166.997Z" fill="#001A72"/>
<path d="M180.155 35.2509L184.46 24.0718H185.89L190.163 35.2509H188.798L186.051 28.0004C185.976 27.7982 185.89 27.5639 185.794 27.2978C185.708 27.0209 185.612 26.7388 185.504 26.4513C185.408 26.1532 185.312 25.8658 185.215 25.5889C185.13 25.3121 185.049 25.0673 184.974 24.8543H185.296C185.21 25.1205 185.119 25.392 185.023 25.6688C184.937 25.935 184.846 26.2065 184.749 26.4833C184.653 26.7494 184.557 27.0156 184.46 27.2818C184.364 27.548 184.268 27.8141 184.171 28.0803L181.44 35.2509H180.155ZM181.986 32.1686L182.452 30.9549H187.769L188.283 32.1686H181.986Z" fill="#001A72"/>
<path d="M195.224 35.2509V25.2855H192.011V24.0718H199.818V25.2855H196.477V35.2509H195.224Z" fill="#001A72"/>
<path d="M203.174 35.2509V34.0691H204.989V25.2536H203.174V24.0718H208.058V25.2536H206.242V34.0691H208.058V35.2509H203.174Z" fill="#001A72"/>
<path d="M215.709 35.2509L211.356 24.0718H212.77L215.565 31.3542C215.693 31.6842 215.806 31.977 215.902 32.2325C215.999 32.4881 216.084 32.7329 216.159 32.9672C216.245 33.1907 216.325 33.4143 216.4 33.6379C216.475 33.8615 216.555 34.1064 216.641 34.3725L216.223 34.3885C216.331 34.0265 216.432 33.6911 216.529 33.3824C216.636 33.0736 216.743 32.7595 216.85 32.4401C216.968 32.1101 217.112 31.7268 217.284 31.2903L220.063 24.0718H221.476L216.995 35.2509H215.709Z" fill="#001A72"/>
<path d="M225.294 35.2509V24.0718H232.106V25.2855H226.547V34.0372H232.073V35.2509H225.294ZM225.873 30.1085V28.8948H231.206V30.1085H225.873Z" fill="#001A72"/>
<path d="M101.841 57.3913V42.1471H108.741C109.719 42.1471 110.603 42.3576 111.391 42.7786C112.195 43.1997 112.823 43.7804 113.275 44.5208C113.728 45.2467 113.954 46.0743 113.954 47.0035C113.954 47.9617 113.728 48.8255 113.275 49.595C112.823 50.3499 112.202 50.9452 111.413 51.3807C110.625 51.8163 109.734 52.0341 108.741 52.0341H105.389V57.3913H101.841ZM110.34 57.3913L106.441 50.5096L110.252 49.9652L114.59 57.3913H110.34ZM105.389 49.203H108.412C108.792 49.203 109.121 49.1231 109.398 48.9634C109.69 48.7892 109.909 48.5497 110.055 48.2448C110.216 47.9399 110.296 47.5914 110.296 47.1995C110.296 46.8075 110.209 46.4663 110.033 46.1759C109.858 45.871 109.602 45.6387 109.267 45.479C108.945 45.3193 108.551 45.2395 108.084 45.2395H105.389V49.203Z" fill="#001A72"/>
<path d="M121.963 57.6091C120.678 57.6091 119.561 57.355 118.612 56.8469C117.663 56.3242 116.925 55.6201 116.399 54.7345C115.874 53.8343 115.611 52.8108 115.611 51.6638C115.611 50.7782 115.757 49.9652 116.049 49.2248C116.341 48.4843 116.75 47.8455 117.276 47.3083C117.801 46.7566 118.422 46.3356 119.137 46.0452C119.868 45.7404 120.664 45.5879 121.525 45.5879C122.343 45.5879 123.088 45.7331 123.759 46.0235C124.446 46.3138 125.037 46.7203 125.534 47.243C126.03 47.7657 126.41 48.3827 126.673 49.0941C126.936 49.8055 127.053 50.5822 127.023 51.4243L127.001 52.3607H117.736L117.232 50.4007H124.154L123.781 50.8145V50.379C123.752 50.016 123.635 49.6966 123.431 49.4208C123.241 49.1304 122.985 48.9054 122.664 48.7457C122.343 48.586 121.978 48.5061 121.569 48.5061C120.999 48.5061 120.51 48.6222 120.101 48.8545C119.707 49.0723 119.408 49.399 119.203 49.8345C118.999 50.2556 118.897 50.7782 118.897 51.4025C118.897 52.0413 119.028 52.6003 119.291 53.0794C119.568 53.544 119.963 53.9069 120.474 54.1682C120.999 54.4296 121.62 54.5602 122.336 54.5602C122.832 54.5602 123.27 54.4876 123.65 54.3425C124.044 54.1973 124.468 53.9505 124.92 53.602L126.563 55.9104C126.111 56.3024 125.629 56.6218 125.118 56.8686C124.606 57.1155 124.081 57.2969 123.54 57.4131C123.015 57.5438 122.489 57.6091 121.963 57.6091Z" fill="#001A72"/>
<path d="M133.55 57.5873C132.571 57.5873 131.695 57.3332 130.921 56.8251C130.162 56.3024 129.556 55.591 129.103 54.6909C128.65 53.7762 128.424 52.7454 128.424 51.5985C128.424 50.4225 128.65 49.3845 129.103 48.4843C129.556 47.5842 130.176 46.8801 130.965 46.3719C131.754 45.8493 132.652 45.5879 133.659 45.5879C134.214 45.5879 134.718 45.6678 135.171 45.8275C135.638 45.9872 136.047 46.2122 136.397 46.5026C136.748 46.7784 137.047 47.1051 137.296 47.4826C137.544 47.8455 137.726 48.2375 137.843 48.6585L137.12 48.5714V45.8275H140.603V57.3913H137.055V54.6038L137.843 54.582C137.726 54.9885 137.537 55.3733 137.274 55.7362C137.011 56.0992 136.69 56.4186 136.31 56.6944C135.93 56.9703 135.507 57.1881 135.039 57.3478C134.572 57.5075 134.075 57.5873 133.55 57.5873ZM134.514 54.6473C135.054 54.6473 135.521 54.5239 135.916 54.2771C136.31 54.0303 136.617 53.6819 136.836 53.2318C137.055 52.7672 137.164 52.2228 137.164 51.5985C137.164 50.9742 137.055 50.437 136.836 49.987C136.617 49.5224 136.31 49.1667 135.916 48.9199C135.521 48.6585 135.054 48.5279 134.514 48.5279C133.988 48.5279 133.528 48.6585 133.134 48.9199C132.754 49.1667 132.455 49.5224 132.235 49.987C132.016 50.437 131.907 50.9742 131.907 51.5985C131.907 52.2228 132.016 52.7672 132.235 53.2318C132.455 53.6819 132.754 54.0303 133.134 54.2771C133.528 54.5239 133.988 54.6473 134.514 54.6473Z" fill="#001A72"/>
<path d="M143.696 57.3913V45.8275H147.025L147.135 48.1794L146.434 48.4408C146.595 47.9181 146.879 47.4463 147.288 47.0252C147.712 46.5897 148.216 46.2412 148.8 45.9799C149.384 45.7186 149.997 45.5879 150.64 45.5879C151.516 45.5879 152.253 45.7694 152.852 46.1324C153.451 46.4808 153.904 47.0107 154.21 47.7221C154.517 48.419 154.67 49.2756 154.67 50.2919V57.3913H151.144V50.575C151.144 50.1104 151.078 49.7256 150.946 49.4208C150.815 49.1159 150.611 48.8908 150.333 48.7457C150.07 48.586 149.742 48.5134 149.347 48.5279C149.041 48.5279 148.756 48.5787 148.493 48.6803C148.23 48.7674 148.004 48.9054 147.814 49.0941C147.624 49.2683 147.471 49.4716 147.354 49.7039C147.252 49.9362 147.201 50.1902 147.201 50.4661V57.3913H145.47C145.061 57.3913 144.711 57.3913 144.419 57.3913C144.127 57.3913 143.886 57.3913 143.696 57.3913Z" fill="#001A72"/>
<path d="M157.798 57.3913V45.8275H161.303V57.3913H157.798ZM159.55 43.5408C158.893 43.5408 158.375 43.3884 157.995 43.0835C157.63 42.7641 157.447 42.314 157.447 41.7333C157.447 41.2107 157.637 40.7824 158.017 40.4484C158.396 40.1145 158.908 39.9476 159.55 39.9476C160.207 39.9476 160.718 40.1073 161.083 40.4267C161.449 40.7315 161.631 41.1671 161.631 41.7333C161.631 42.2705 161.441 42.706 161.062 43.04C160.697 43.3739 160.193 43.5408 159.55 43.5408Z" fill="#001A72"/>
<path d="M164.574 57.3913V45.8275H167.903L168.013 47.9181L167.553 47.9399C167.728 47.5624 167.947 47.2285 168.21 46.9381C168.488 46.6478 168.794 46.4082 169.13 46.2195C169.481 46.0162 169.838 45.8638 170.203 45.7621C170.583 45.6605 170.963 45.6097 171.343 45.6097C171.912 45.6097 172.43 45.6968 172.898 45.871C173.365 46.0452 173.774 46.3284 174.124 46.7204C174.475 47.0978 174.752 47.6132 174.957 48.2665L174.409 48.223L174.585 47.8746C174.774 47.5261 175.015 47.214 175.307 46.9381C175.614 46.6478 175.95 46.4082 176.315 46.2195C176.68 46.0162 177.06 45.8638 177.454 45.7621C177.848 45.6605 178.228 45.6097 178.593 45.6097C179.513 45.6097 180.28 45.7912 180.893 46.1541C181.507 46.5026 181.967 47.0325 182.273 47.7439C182.595 48.4553 182.755 49.3191 182.755 50.3354V57.3913H179.228V50.6185C179.228 50.1539 179.163 49.7692 179.031 49.4643C178.9 49.1594 178.703 48.9344 178.44 48.7892C178.192 48.6295 177.878 48.5497 177.498 48.5497C177.191 48.5497 176.906 48.6005 176.644 48.7021C176.395 48.8037 176.176 48.9417 175.986 49.1159C175.811 49.2901 175.672 49.4933 175.57 49.7256C175.468 49.9579 175.417 50.2193 175.417 50.5096V57.3913H171.89V50.5967C171.89 50.1612 171.824 49.791 171.693 49.4861C171.562 49.1812 171.364 48.9489 171.102 48.7892C170.839 48.6295 170.532 48.5497 170.182 48.5497C169.875 48.5497 169.59 48.6005 169.327 48.7021C169.079 48.8037 168.86 48.9417 168.67 49.1159C168.495 49.2901 168.356 49.4933 168.254 49.7256C168.152 49.9579 168.101 50.212 168.101 50.4879V57.3913H164.574Z" fill="#001A72"/>
<path d="M189.96 57.5873C188.982 57.5873 188.105 57.3332 187.331 56.8251C186.572 56.3024 185.966 55.591 185.513 54.6909C185.061 53.7762 184.834 52.7454 184.834 51.5985C184.834 50.4225 185.061 49.3845 185.513 48.4843C185.966 47.5842 186.587 46.8801 187.375 46.3719C188.164 45.8493 189.062 45.5879 190.07 45.5879C190.625 45.5879 191.128 45.6678 191.581 45.8275C192.048 45.9872 192.457 46.2122 192.808 46.5026C193.158 46.7784 193.458 47.1051 193.706 47.4826C193.954 47.8455 194.137 48.2375 194.254 48.6585L193.531 48.5714V45.8275H197.014V57.3913H193.465V54.6038L194.254 54.582C194.137 54.9885 193.947 55.3733 193.684 55.7362C193.421 56.0992 193.1 56.4186 192.72 56.6944C192.34 56.9703 191.917 57.1881 191.45 57.3478C190.982 57.5075 190.486 57.5873 189.96 57.5873ZM190.924 54.6473C191.464 54.6473 191.932 54.5239 192.326 54.2771C192.72 54.0303 193.027 53.6819 193.246 53.2318C193.465 52.7672 193.574 52.2228 193.574 51.5985C193.574 50.9742 193.465 50.437 193.246 49.987C193.027 49.5224 192.72 49.1667 192.326 48.9199C191.932 48.6585 191.464 48.5279 190.924 48.5279C190.398 48.5279 189.938 48.6585 189.544 48.9199C189.164 49.1667 188.865 49.5224 188.646 49.987C188.427 50.437 188.317 50.9742 188.317 51.5985C188.317 52.2228 188.427 52.7672 188.646 53.2318C188.865 53.6819 189.164 54.0303 189.544 54.2771C189.938 54.5239 190.398 54.6473 190.924 54.6473Z" fill="#001A72"/>
<path d="M201.07 57.3913V42.9093H204.575V57.3913H201.07ZM199.011 48.8763V45.8275H206.831V48.8763H199.011Z" fill="#001A72"/>
<path d="M214.269 57.6091C212.984 57.6091 211.867 57.355 210.918 56.8469C209.968 56.3242 209.231 55.6201 208.705 54.7345C208.179 53.8343 207.917 52.8108 207.917 51.6638C207.917 50.7782 208.063 49.9652 208.355 49.2248C208.647 48.4843 209.056 47.8455 209.581 47.3083C210.107 46.7566 210.728 46.3356 211.443 46.0452C212.174 45.7404 212.969 45.5879 213.831 45.5879C214.649 45.5879 215.394 45.7331 216.065 46.0235C216.752 46.3138 217.343 46.7203 217.84 47.243C218.336 47.7657 218.716 48.3827 218.979 49.0941C219.242 49.8055 219.358 50.5822 219.329 51.4243L219.307 52.3607H210.041L209.538 50.4007H216.46L216.087 50.8145V50.379C216.058 50.016 215.941 49.6966 215.737 49.4208C215.547 49.1304 215.291 48.9054 214.97 48.7457C214.649 48.586 214.284 48.5061 213.875 48.5061C213.305 48.5061 212.816 48.6222 212.407 48.8545C212.013 49.0723 211.714 49.399 211.509 49.8345C211.305 50.2556 211.202 50.7782 211.202 51.4025C211.202 52.0413 211.334 52.6003 211.597 53.0794C211.874 53.544 212.268 53.9069 212.78 54.1682C213.305 54.4296 213.926 54.5602 214.642 54.5602C215.138 54.5602 215.576 54.4876 215.956 54.3425C216.35 54.1973 216.774 53.9505 217.226 53.602L218.869 55.9104C218.417 56.3024 217.935 56.6218 217.424 56.8686C216.912 57.1155 216.387 57.2969 215.846 57.4131C215.321 57.5438 214.795 57.6091 214.269 57.6091Z" fill="#001A72"/>
<path d="M225.965 57.6309C224.958 57.6309 224.059 57.3768 223.271 56.8686C222.497 56.346 221.884 55.6346 221.431 54.7345C220.978 53.8198 220.752 52.7817 220.752 51.6203C220.752 50.4588 220.978 49.428 221.431 48.5279C221.884 47.6132 222.504 46.8946 223.293 46.3719C224.081 45.8493 224.987 45.5879 226.009 45.5879C226.535 45.5879 227.039 45.6678 227.52 45.8275C228.002 45.9872 228.44 46.2049 228.835 46.4808C229.229 46.7566 229.55 47.076 229.799 47.439C230.047 47.7874 230.193 48.1504 230.237 48.5279L229.404 48.7239V41.276H232.931V57.3913H229.667L229.47 54.7562L230.171 54.8651C230.127 55.2281 229.981 55.5765 229.733 55.9104C229.499 56.2444 229.193 56.542 228.813 56.8033C228.433 57.0501 227.995 57.2461 227.499 57.3913C227.017 57.551 226.506 57.6309 225.965 57.6309ZM226.863 54.7345C227.404 54.7345 227.871 54.6038 228.265 54.3425C228.66 54.0811 228.959 53.7182 229.163 53.2536C229.382 52.789 229.492 52.2446 229.492 51.6203C229.492 50.9815 229.382 50.4298 229.163 49.9652C228.959 49.5006 228.66 49.1376 228.265 48.8763C227.871 48.615 227.404 48.4843 226.863 48.4843C226.323 48.4843 225.856 48.615 225.461 48.8763C225.082 49.1376 224.782 49.5006 224.563 49.9652C224.344 50.4298 224.235 50.9815 224.235 51.6203C224.235 52.2446 224.344 52.789 224.563 53.2536C224.782 53.7182 225.082 54.0811 225.461 54.3425C225.856 54.6038 226.323 54.7345 226.863 54.7345Z" fill="#001A72"/>
</svg>
