<svg width="64" height="35" viewBox="0 0 64 35" fill="none" xmlns="http://www.w3.org/2000/svg">
<g clip-path="url(#clip0_14741_23012)">
<path fill-rule="evenodd" clip-rule="evenodd" d="M0.0531006 0.0531616H53.755L63.9469 10.245V34.0714H10.2449L0.0531006 23.8796V0.0531616ZM0.849781 1.41318V23.5496L10.0116 32.7114V10.575L0.849781 1.41318ZM1.41312 0.849842L10.5749 10.0117H62.5869L53.425 0.849842H1.41312ZM63.1502 33.2747H10.8083V10.8083H63.1502V33.2747Z" fill="#020F3C" fill-opacity="0.8"/>
<path d="M20.2091 19.7046C20.2091 20.5012 19.678 21.1917 18.4033 21.1917C17.8456 21.1917 17.3942 21.0589 16.9958 20.8996V19.7842C17.4207 19.9967 17.9253 20.1295 18.3768 20.1295C18.8017 20.1295 19.0141 19.9967 19.0141 19.7577C19.0141 19.0141 16.9958 19.2531 16.9958 17.7394C16.9958 16.81 17.7394 16.2523 18.7751 16.2523C19.2 16.2523 19.5983 16.3585 20.0232 16.5975V17.7394C19.4656 17.3942 19.0672 17.288 18.7485 17.288C18.3768 17.288 18.1643 17.4208 18.1643 17.6598C18.1378 18.3502 20.2091 18.0847 20.2091 19.7046Z" fill="#020F3C" fill-opacity="0.8"/>
<path d="M21.2183 18.722C21.2183 17.3676 22.3336 16.2523 23.688 16.2523C25.0423 16.2523 26.1577 17.3676 26.1577 18.722C26.1577 20.0764 25.0423 21.1917 23.688 21.1917C22.3336 21.1652 21.2183 20.0764 21.2183 18.722ZM24.9361 18.722C24.9361 17.9784 24.3784 17.4208 23.688 17.4208C22.9975 17.4208 22.4398 17.9784 22.4398 18.722C22.4398 19.4656 22.9975 20.0232 23.688 20.0232C24.3784 20.0232 24.9361 19.4656 24.9361 18.722Z" fill="#020F3C" fill-opacity="0.8"/>
<path d="M28.9195 15.9602V16.3585H30.4863L29.9552 17.4739H28.946V21.0855H27.8041V17.4473H27.0074V16.332H27.8041V15.8805C27.8041 14.4465 28.5477 13.7295 29.7162 13.7295C30.0083 13.7295 30.2738 13.7826 30.5128 13.8357V14.951C30.3004 14.8714 30.0614 14.8448 29.8224 14.8448C29.185 14.8448 28.9195 15.2697 28.9195 15.9602Z" fill="#020F3C" fill-opacity="0.8"/>
<path d="M32.8763 17.4473V19.3328C32.8763 19.8373 33.1684 20.0498 33.6199 20.0498C33.912 20.0498 34.2041 19.9701 34.4431 19.8108V20.9793C34.1244 21.112 33.8323 21.1917 33.4074 21.1917C32.3717 21.1917 31.7344 20.634 31.7344 19.4921V17.4739H31.0439V16.3585H31.7344V15.1369L32.8763 14.8448V16.3585H34.4431V17.4739H32.8763V17.4473Z" fill="#020F3C" fill-opacity="0.8"/>
<path d="M42.702 16.3585L41.1883 21.0855H40.0464L39.0108 17.8456L37.9485 21.0855H36.8066L35.2929 16.3585H36.5942L37.4439 19.5187L38.4531 16.3585H39.595L40.6041 19.5187L41.4539 16.3585C41.4539 16.3585 42.702 16.3585 42.702 16.3585Z" fill="#020F3C" fill-opacity="0.8"/>
<path d="M43.2863 18.722C43.2863 17.3676 44.2689 16.2523 45.6232 16.2523C46.1544 16.2523 46.5793 16.4116 46.8979 16.6772V16.3585H48.0398V21.0855H46.9245V20.7137C46.6058 21.0058 46.1544 21.1917 45.5967 21.1917C44.2954 21.1652 43.2863 20.0764 43.2863 18.722ZM47.0042 18.722C47.0042 17.9784 46.4465 17.4208 45.756 17.4208C45.0656 17.4208 44.5079 17.9784 44.5079 18.722C44.5079 19.4656 45.0656 20.0232 45.756 20.0232C46.4465 20.0232 47.0042 19.4656 47.0042 18.722Z" fill="#020F3C" fill-opacity="0.8"/>
<path d="M49.6597 16.3585H50.7751V16.9959C51.1203 16.3585 51.7577 16.2523 52.3153 16.2523V17.6066C51.5187 17.3942 50.8016 17.8456 50.8016 18.8548V21.0589H49.6597V16.3585Z" fill="#020F3C" fill-opacity="0.8"/>
<path d="M55.927 20.0764C56.3784 20.0764 56.9095 19.9967 57.4406 19.7842L56.8564 20.9793C56.5909 21.0855 56.1925 21.1917 55.7145 21.1917C54.0415 21.1917 53.0323 20.156 53.0323 18.722C53.0323 17.3676 54.0415 16.2523 55.5021 16.2523C56.4846 16.2523 57.2813 16.7569 57.6 17.3942V19.1203H54.2539C54.4133 19.678 54.9709 20.0764 55.927 20.0764ZM54.2274 18.2174H56.6971C56.5377 17.6598 56.0597 17.3145 55.4489 17.3145C54.8647 17.3145 54.4133 17.6863 54.2274 18.2174Z" fill="#020F3C" fill-opacity="0.8"/>
<path d="M23.6083 25.0689V28.1759H22.4664V25.2548C22.4664 24.7502 22.0946 24.4581 21.7228 24.4581C21.3245 24.4581 20.9793 24.7502 20.9793 25.2548V28.1759H19.8374V25.2548C19.8374 24.7502 19.4656 24.4581 19.0938 24.4581C18.6954 24.4581 18.3502 24.7502 18.3502 25.2548V28.1759H17.2083V23.449H18.3237V23.7942C18.5892 23.4755 18.9345 23.3693 19.3859 23.3693C19.8905 23.3693 20.3154 23.5817 20.6075 23.9801C20.9793 23.5552 21.4573 23.3693 22.0415 23.3693C22.9179 23.3693 23.6083 24.0598 23.6083 25.0689Z" fill="#020F3C" fill-opacity="0.8"/>
<path d="M24.8033 25.8125C24.8033 24.4581 25.7859 23.3427 27.1402 23.3427C27.6713 23.3427 28.0962 23.5021 28.4149 23.7676V23.449H29.5568V28.1759H28.4415V27.8042C28.1228 28.0963 27.6713 28.2822 27.1137 28.2822C25.8124 28.2822 24.8033 27.1668 24.8033 25.8125ZM28.5211 25.8125C28.5211 25.0689 27.9634 24.5112 27.273 24.5112C26.5825 24.5112 26.0249 25.0689 26.0249 25.8125C26.0249 26.556 26.5825 27.1137 27.273 27.1137C27.9634 27.1137 28.5211 26.556 28.5211 25.8125Z" fill="#020F3C" fill-opacity="0.8"/>
<path d="M31.1237 23.449H32.239V23.7942C32.5842 23.449 33.0357 23.3427 33.4871 23.3427C34.4697 23.3427 35.2664 24.0863 35.2664 25.0954V28.1494H34.1245V25.361C34.1245 24.8564 33.7261 24.4581 33.2216 24.4581C32.717 24.4581 32.3187 24.8564 32.3187 25.361V28.1759H31.1768V23.449H31.1237Z" fill="#020F3C" fill-opacity="0.8"/>
<path d="M39.8606 26.795C39.8606 27.5917 39.3294 28.2822 38.0547 28.2822C37.4971 28.2822 37.0456 28.1494 36.6473 27.99V26.8747C37.0722 27.0871 37.5767 27.2199 38.0282 27.2199C38.4531 27.2199 38.6655 27.0871 38.6655 26.8481C38.6655 26.1046 36.6473 26.3436 36.6473 24.8299C36.6473 23.9004 37.3908 23.3427 38.4265 23.3427C38.8514 23.3427 39.2498 23.449 39.6747 23.688V24.8299C39.117 24.4847 38.7186 24.3784 38.4 24.3784C38.0282 24.3784 37.8157 24.5112 37.8157 24.7502C37.7892 25.4672 39.8606 25.2017 39.8606 26.795Z" fill="#020F3C" fill-opacity="0.8"/>
<path d="M42.3303 23.449V28.1759H41.1884V23.449H42.3303Z" fill="#020F3C" fill-opacity="0.8"/>
<path d="M43.5253 25.8125C43.5253 24.4581 44.6406 23.3427 45.995 23.3427C47.3493 23.3427 48.4647 24.4581 48.4647 25.8125C48.4647 27.1668 47.3493 28.2822 45.995 28.2822C44.6406 28.2822 43.5253 27.1668 43.5253 25.8125ZM47.2431 25.8125C47.2431 25.0689 46.6854 24.5112 45.995 24.5112C45.3045 24.5112 44.7468 25.0689 44.7468 25.8125C44.7468 26.556 45.3045 27.1137 45.995 27.1137C46.6854 27.1137 47.2431 26.556 47.2431 25.8125Z" fill="#020F3C" fill-opacity="0.8"/>
<path d="M49.6332 23.449H50.7485V23.7942C51.0938 23.449 51.5452 23.3427 51.9967 23.3427C52.9792 23.3427 53.7759 24.0863 53.7759 25.0954V28.1494H52.634V25.361C52.634 24.8564 52.2357 24.4581 51.7311 24.4581C51.2265 24.4581 50.8282 24.8564 50.8282 25.361V28.1759H49.6863V23.449H49.6332Z" fill="#020F3C" fill-opacity="0.8"/>
<path d="M56.0332 26.8747V27.0606H55.6348V28.1759H55.4224V27.0606H55.024V26.8747H56.0332Z" fill="#020F3C" fill-opacity="0.8"/>
<path d="M56.4846 26.8747L56.9095 27.9104L57.3079 26.8747H57.5734V28.1759H57.361V27.2199L56.9626 28.1759H56.7767L56.3784 27.2199V28.1759H56.166V26.8747H56.4846Z" fill="#020F3C" fill-opacity="0.8"/>
</g>
<defs>
<clipPath id="clip0_14741_23012">
<rect width="64" height="34.2573" fill="white"/>
</clipPath>
</defs>
</svg>
