<svg width="56" height="57" viewBox="0 0 56 57" fill="none" xmlns="http://www.w3.org/2000/svg">
<path d="M0 12.2573C0 5.62991 5.37258 0.257324 12 0.257324H44C50.6274 0.257324 56 5.62991 56 12.2573V44.2573C56 50.8847 50.6274 56.2573 44 56.2573H12C5.37258 56.2573 0 50.8847 0 44.2573V12.2573Z" fill="#3D61D6"/>
<path d="M28 22.2573V34.2573M22 25.2573V31.2573M34 25.2573V31.2573M41.5 28.2573C41.5 35.7132 35.4558 41.7573 28 41.7573C20.5442 41.7573 14.5 35.7132 14.5 28.2573C14.5 20.8015 20.5442 14.7573 28 14.7573C35.4558 14.7573 41.5 20.8015 41.5 28.2573Z" stroke="white" stroke-width="1.5" stroke-linecap="round" stroke-linejoin="round"/>
</svg>
