<svg width="24" height="25" viewBox="0 0 24 25" fill="none" xmlns="http://www.w3.org/2000/svg">
<g clip-path="url(#clip0_14741_22853)">
<path d="M12 0.540039C5.37321 0.540039 0 5.91325 0 12.54C0 19.1668 5.37321 24.54 12 24.54C18.6268 24.54 24 19.1668 24 12.54C24 5.91325 18.6268 0.540039 12 0.540039ZM17.767 9.58558C17.775 9.71147 17.775 9.84272 17.775 9.97129C17.775 13.9034 14.7804 18.4329 9.30804 18.4329C7.62054 18.4329 6.05625 17.9427 4.73839 17.099C4.97946 17.1258 5.20982 17.1365 5.45625 17.1365C6.84911 17.1365 8.12946 16.665 9.15 15.8668C7.84286 15.84 6.74464 14.9829 6.36964 13.8043C6.82768 13.8713 7.24018 13.8713 7.71161 13.7508C7.03855 13.614 6.43359 13.2485 5.99951 12.7162C5.56542 12.184 5.32898 11.5179 5.33036 10.8311V10.7936C5.72411 11.0159 6.1875 11.1525 6.67232 11.1713C6.26476 10.8997 5.93051 10.5317 5.69923 10.0999C5.46794 9.66821 5.34676 9.18607 5.34643 8.69629C5.34643 8.14182 5.49107 7.63557 5.75089 7.19629C6.49795 8.11594 7.43017 8.8681 8.48696 9.40388C9.54375 9.93965 10.7014 10.2471 11.8848 10.3061C11.4643 8.28379 12.975 6.64718 14.7911 6.64718C15.6482 6.64718 16.4196 7.00611 16.9634 7.58468C17.6357 7.45879 18.2786 7.207 18.8518 6.8695C18.6295 7.5579 18.1634 8.13915 17.5446 8.50611C18.1446 8.44182 18.7232 8.27575 19.2589 8.04272C18.8545 8.63736 18.3482 9.16504 17.767 9.58558Z" fill="#020F3C"/>
</g>
<defs>
<clipPath id="clip0_14741_22853">
<rect width="24" height="24" fill="white" transform="translate(0 0.540039)"/>
</clipPath>
</defs>
</svg>
