<svg width="24" height="25" viewBox="0 0 24 25" fill="none" xmlns="http://www.w3.org/2000/svg">
<g clip-path="url(#clip0_14741_22857)">
<path d="M23.4985 6.35643C23.2225 5.24784 22.4092 4.37474 21.3766 4.07845C19.505 3.54004 12 3.54004 12 3.54004C12 3.54004 4.49503 3.54004 2.62336 4.07845C1.59077 4.37479 0.777523 5.24784 0.501503 6.35643C0 8.36582 0 12.5582 0 12.5582C0 12.5582 0 16.7506 0.501503 18.76C0.777523 19.8686 1.59077 20.7053 2.62336 21.0016C4.49503 21.54 12 21.54 12 21.54C12 21.54 19.505 21.54 21.3766 21.0016C22.4092 20.7053 23.2225 19.8686 23.4985 18.76C24 16.7506 24 12.5582 24 12.5582C24 12.5582 24 8.36582 23.4985 6.35643ZM9.54544 16.3646V8.75184L15.8181 12.5583L9.54544 16.3646Z" fill="#020F3C"/>
</g>
<defs>
<clipPath id="clip0_14741_22857">
<rect width="24" height="24" fill="white" transform="translate(0 0.540039)"/>
</clipPath>
</defs>
</svg>
