<svg width="17" height="17" viewBox="0 0 17 17" fill="none" xmlns="http://www.w3.org/2000/svg">
<path d="M13.4582 4.25049C13.4581 3.75828 13.2515 3.27561 12.8657 2.91178C12.5267 2.59208 12.0745 2.38878 11.5864 2.34294L11.3748 2.33317C10.8779 2.3332 10.406 2.49666 10.0361 2.78239L9.88395 2.91178L3.18636 9.22852C2.52718 9.85025 2.16678 10.6828 2.16667 11.5397C2.16667 12.3968 2.52707 13.2299 3.18636 13.8517C3.8473 14.4751 4.75382 14.8331 5.70833 14.8332L5.88656 14.8291C6.77519 14.7876 7.61055 14.4362 8.23031 13.8517L14.9279 7.53499L14.993 7.47965C15.328 7.2223 15.8102 7.25533 16.1063 7.56917C16.4023 7.88306 16.4071 8.36635 16.1307 8.68571L16.0721 8.74756L9.3737 15.0643C8.45489 15.9307 7.23805 16.4346 5.96387 16.4941L5.70833 16.4998C4.34226 16.4998 3.02295 15.9885 2.04297 15.0643C1.06128 14.1384 0.5 12.8714 0.5 11.5397C0.500112 10.2082 1.06137 8.94172 2.04297 8.01595L8.74056 1.69922L8.87565 1.57796C9.56558 0.988564 10.4566 0.66654 11.3748 0.666504L11.5579 0.670573C12.4717 0.713213 13.3467 1.07453 14.0091 1.69922C14.7172 2.36706 15.1248 3.28372 15.1248 4.25049C15.1248 5.1569 14.7668 6.01941 14.1385 6.67399L14.0091 6.80257L7.3042 13.1193C6.8712 13.5276 6.29348 13.7492 5.70101 13.7492C5.1087 13.7491 4.53155 13.5274 4.09863 13.1193C3.66395 12.7093 3.40934 12.1418 3.40934 11.5397C3.40945 10.9378 3.66405 10.3708 4.09863 9.96094L10.286 4.13249C10.621 3.81691 11.1488 3.83248 11.4644 4.16748C11.7798 4.50249 11.7635 5.02953 11.4285 5.34505L5.24121 11.1743C5.1294 11.2801 5.07612 11.4125 5.07601 11.5397C5.07601 11.6672 5.1297 11.8008 5.24202 11.9067C5.35594 12.014 5.52024 12.0825 5.70101 12.0825C5.88196 12.0825 6.04683 12.0142 6.16081 11.9067V11.9059L12.8657 5.58919C13.2514 5.22533 13.4582 4.74269 13.4582 4.25049Z" fill="#020F3C"/>
</svg>
