<svg width="19" height="19" viewBox="0 0 19 19" fill="none" xmlns="http://www.w3.org/2000/svg">
<path d="M17 9.5C17 5.35786 13.6421 2 9.5 2C5.35786 2 2 5.35786 2 9.5C2 13.6421 5.35786 17 9.5 17H17V9.5ZM11 10.5C11.5523 10.5 12 10.9477 12 11.5C12 12.0523 11.5523 12.5 11 12.5H7C6.44772 12.5 6 12.0523 6 11.5C6 10.9477 6.44772 10.5 7 10.5H11ZM13 6.5C13.5523 6.5 14 6.94772 14 7.5C14 8.05228 13.5523 8.5 13 8.5H7C6.44772 8.5 6 8.05228 6 7.5C6 6.94772 6.44772 6.5 7 6.5H13ZM19 18C19 18.5523 18.5523 19 18 19H9.5C4.25329 19 0 14.7467 0 9.5C0 4.25329 4.25329 0 9.5 0C14.7467 0 19 4.25329 19 9.5V18Z" fill="#020F3C"/>
</svg>
