<svg width="15" height="14" viewBox="0 0 15 14" fill="none" xmlns="http://www.w3.org/2000/svg">
<path fill-rule="evenodd" clip-rule="evenodd" d="M13.9226 0.577574C14.248 0.903011 14.248 1.43065 13.9226 1.75609L8.67853 7.00013L13.9226 12.244C14.248 12.5695 14.248 13.0971 13.9226 13.4226C13.5971 13.748 13.0695 13.748 12.7441 13.4226L7.50001 8.17863L2.25592 13.4226C1.93048 13.748 1.40285 13.748 1.07741 13.4226C0.751981 13.0971 0.751988 12.5695 1.07743 12.244L6.3215 7.00012L1.07765 1.75615C0.75222 1.43071 0.752226 0.903076 1.07767 0.577643C1.40311 0.25221 1.93075 0.252216 2.25618 0.577657L7.50002 5.82162L12.7441 0.577574C13.0695 0.252137 13.5971 0.252137 13.9226 0.577574Z" fill="#020F3C"/>
</svg>
