<svg width="14" height="14" viewBox="0 0 14 14" fill="none" xmlns="http://www.w3.org/2000/svg">
<path fill-rule="evenodd" clip-rule="evenodd" d="M13.4226 0.577452C13.748 0.902889 13.748 1.43053 13.4226 1.75596L8.17856 7.00001L13.4226 12.2439C13.748 12.5694 13.748 13.097 13.4226 13.4224C13.0972 13.7479 12.5695 13.7479 12.2441 13.4224L7.00004 8.17851L1.75595 13.4225C1.43051 13.7479 0.902876 13.7479 0.577444 13.4224C0.252011 13.097 0.252018 12.5694 0.57746 12.2439L5.82153 7L0.577684 1.75603C0.252251 1.43059 0.252257 0.902954 0.577698 0.577521C0.903138 0.252088 1.43078 0.252094 1.75621 0.577535L7.00005 5.8215L12.2441 0.577452C12.5695 0.252015 13.0972 0.252015 13.4226 0.577452Z" fill="white"/>
</svg>
