<svg width="20" height="20" viewBox="0 0 20 20" fill="none" xmlns="http://www.w3.org/2000/svg">
<path d="M18 10C18 5.58172 14.4183 2 10 2C5.58172 2 2 5.58172 2 10C2 14.4183 5.58172 18 10 18C14.4183 18 18 14.4183 18 10ZM12.293 6.29297C12.6835 5.90248 13.3165 5.90248 13.707 6.29297C14.0975 6.68348 14.0975 7.3165 13.707 7.70703L11.4141 10L13.707 12.293L13.7754 12.3691C14.0958 12.7619 14.0732 13.3409 13.707 13.707C13.3409 14.0731 12.7619 14.0958 12.3691 13.7754L12.293 13.707L10 11.4141L7.70703 13.707C7.3165 14.0975 6.68346 14.0975 6.29297 13.707C5.9025 13.3165 5.90255 12.6835 6.29297 12.293L8.58594 10L6.29297 7.70703L6.22461 7.63086C5.90423 7.2381 5.92687 6.6591 6.29297 6.29297C6.65909 5.92684 7.23809 5.90423 7.63086 6.22461L7.70703 6.29297L10 8.58594L12.293 6.29297ZM20 10C20 15.5228 15.5228 20 10 20C4.47715 20 0 15.5228 0 10C0 4.47715 4.47715 0 10 0C15.5228 0 20 4.47715 20 10Z" fill="currentColor"/>
</svg>
