<svg width="15" height="16" viewBox="0 0 15 16" fill="none" xmlns="http://www.w3.org/2000/svg">
<path d="M0 8C0 7.53976 0.373096 7.16667 0.833333 7.16667C1.29357 7.16667 1.66667 7.53976 1.66667 8V13.8333H13.3333V8C13.3333 7.53976 13.7064 7.16667 14.1667 7.16667C14.6269 7.16667 15 7.53976 15 8V14.6667C15 15.1269 14.6269 15.5 14.1667 15.5H0.833333C0.373096 15.5 0 15.1269 0 14.6667V8ZM6.66667 1.33333C6.66667 0.873096 7.03976 0.5 7.5 0.5C7.96024 0.5 8.33333 0.873096 8.33333 1.33333V7.65495L9.41081 6.57747C9.73624 6.25204 10.2638 6.25204 10.5892 6.57747C10.9146 6.90291 10.9146 7.43042 10.5892 7.75586L8.08919 10.2559C7.93291 10.4121 7.72101 10.5 7.5 10.5C7.27899 10.5 7.06709 10.4121 6.91081 10.2559L4.41081 7.75586L4.35384 7.69238C4.08688 7.36507 4.10571 6.88257 4.41081 6.57747C4.7159 6.27238 5.1984 6.25355 5.52572 6.52051L5.58919 6.57747L6.66667 7.65495V1.33333Z" fill="#020F3C"/>
</svg>
