<svg width="15" height="12" viewBox="0 0 15 12" fill="none" xmlns="http://www.w3.org/2000/svg">
<path d="M6.83333 6C6.83333 5.63181 7.13181 5.33333 7.5 5.33333C7.86819 5.33333 8.16667 5.63181 8.16667 6V9.72396L9.02864 8.86198C9.28899 8.60163 9.711 8.60163 9.97135 8.86198C10.2317 9.12233 10.2317 9.54434 9.97135 9.80469L7.97135 11.8047C7.711 12.065 7.28899 12.065 7.02864 11.8047L5.02864 9.80469L4.98307 9.75391C4.7695 9.49206 4.78457 9.10606 5.02864 8.86198C5.27272 8.6179 5.65872 8.60284 5.92057 8.81641L5.97135 8.86198L6.83333 9.72396V6ZM13.3333 8.87175C13.0898 9.14773 12.6687 9.17379 12.3926 8.93034C12.1164 8.68681 12.0898 8.26573 12.3333 7.98958L13.3333 8.87175ZM12.8333 6.66667C12.8333 6.40402 12.7815 6.14369 12.681 5.90104C12.5805 5.65849 12.433 5.43825 12.2474 5.2526C12.1081 5.11326 11.9492 4.99555 11.776 4.903L11.599 4.81901C11.3563 4.7185 11.096 4.66667 10.8333 4.66667C10.4651 4.66667 10.1667 4.36819 10.1667 4C10.1667 3.64989 10.0975 3.30329 9.96354 2.97982C9.82953 2.65628 9.63304 2.36221 9.38542 2.11458C9.16877 1.89793 8.91699 1.71995 8.64062 1.58919L8.52018 1.53646C8.19671 1.4025 7.85011 1.33333 7.5 1.33333C7.14988 1.33333 6.80329 1.4025 6.47982 1.53646C6.15628 1.67047 5.86221 1.86696 5.61458 2.11458C5.36696 2.36221 5.17047 2.65628 5.03646 2.97982C4.9025 3.30329 4.83333 3.64989 4.83333 4C4.83333 4.36819 4.53486 4.66667 4.16667 4.66667C3.90402 4.66667 3.64369 4.7185 3.40104 4.81901C3.21909 4.8944 3.04948 4.99596 2.89779 5.12044L2.7526 5.2526C2.61326 5.39195 2.49555 5.5508 2.40299 5.72396L2.31901 5.90104C2.2185 6.14369 2.16667 6.40402 2.16667 6.66667C2.16667 6.92931 2.2185 7.18964 2.31901 7.43229L2.38867 7.58203C2.46421 7.72875 2.55745 7.86574 2.66667 7.98958C2.91018 8.26573 2.88355 8.68681 2.60742 8.93034C2.33133 9.17379 1.91021 9.14773 1.66667 8.87175C1.4542 8.63084 1.27776 8.36001 1.14258 8.06836L1.08724 7.94206C0.919757 7.53768 0.833332 7.10436 0.833332 6.66667C0.833332 6.22897 0.919757 5.79566 1.08724 5.39128L1.15364 5.24089C1.31708 4.8955 1.53913 4.58066 1.80989 4.3099L1.92838 4.19661C2.21161 3.93996 2.5374 3.73382 2.89127 3.58724C3.10307 3.49952 3.32271 3.43369 3.54687 3.39128C3.5955 3.07548 3.68185 2.76596 3.80469 2.4694C4.00571 1.9841 4.30044 1.54331 4.67187 1.17188C5.04331 0.800441 5.4841 0.505706 5.9694 0.304688C6.45469 0.10368 6.97473 0 7.5 0C8.02527 0 8.54531 0.10368 9.0306 0.304688L9.21029 0.384115C9.62499 0.580268 10.003 0.846793 10.3281 1.17188C10.6996 1.54331 10.9943 1.9841 11.1953 2.4694C11.3181 2.76593 11.4038 3.07551 11.4525 3.39128C11.6769 3.43369 11.8967 3.49944 12.1087 3.58724L12.2591 3.65365C12.6045 3.81708 12.9193 4.03913 13.1901 4.3099C13.4996 4.61943 13.7452 4.98686 13.9128 5.39128C14.0802 5.79566 14.1667 6.22897 14.1667 6.66667C14.1667 7.0496 14.1007 7.42925 13.972 7.78906L13.9128 7.94206C13.7719 8.28206 13.5761 8.59645 13.3333 8.87175L12.3333 7.98958C12.4789 7.82447 12.5965 7.63619 12.681 7.43229L12.7474 7.24675C12.8043 7.059 12.8333 6.86355 12.8333 6.66667Z" fill="#020F3C" fill-opacity="0.8"/>
</svg>
