<svg width="18" height="20" viewBox="0 0 18 20" fill="none" xmlns="http://www.w3.org/2000/svg">
<path fill-rule="evenodd" clip-rule="evenodd" d="M12.2929 0.292893C12.6834 -0.0976311 13.3166 -0.0976311 13.7071 0.292893L16.7071 3.29289C17.0976 3.68342 17.0976 4.31658 16.7071 4.70711L5.70711 15.7071C5.51957 15.8946 5.26522 16 5 16H2C1.44772 16 1 15.5523 1 15V12C1 11.7348 1.10536 11.4804 1.29289 11.2929L12.2929 0.292893ZM11.4142 4L13 5.58579L14.5858 4L13 2.41421L11.4142 4ZM11.5858 7L10 5.41421L3 12.4142V14H4.58579L11.5858 7ZM0 19C0 18.4477 0.447715 18 1 18H17C17.5523 18 18 18.4477 18 19C18 19.5523 17.5523 20 17 20H1C0.447715 20 0 19.5523 0 19Z" fill="#020F3C"/>
</svg>
