<svg width="24" height="24" viewBox="0 0 24 24" fill="none" xmlns="http://www.w3.org/2000/svg">
<path fill-rule="evenodd" clip-rule="evenodd" d="M4.08678 12C4.16152 12.164 4.26413 12.3778 4.39562 12.6267C4.71905 13.2392 5.21068 14.0523 5.88268 14.8608C7.23206 16.4843 9.22656 18 12 18C14.7734 18 16.7679 16.4843 18.1173 14.8608C18.7893 14.0523 19.2809 13.2392 19.6044 12.6267C19.7359 12.3778 19.8385 12.164 19.9132 12C19.8385 11.836 19.7359 11.6222 19.6044 11.3733C19.2809 10.7608 18.7893 9.9477 18.1173 9.1392C16.7679 7.51572 14.7734 6 12 6C9.22656 6 7.23206 7.51572 5.88268 9.1392C5.21068 9.9477 4.71905 10.7608 4.39562 11.3733C4.26413 11.6222 4.16152 11.836 4.08678 12ZM21 12C21.9358 11.6475 21.9357 11.6472 21.9355 11.6467L21.9352 11.6458L21.9342 11.6433L21.9317 11.6366L21.9235 11.6155C21.9167 11.5982 21.9073 11.5744 21.8951 11.5445C21.8707 11.4847 21.8355 11.4004 21.7891 11.2953C21.6963 11.0852 21.5584 10.7904 21.3729 10.4392C21.0031 9.73915 20.438 8.8023 19.6554 7.8608C18.0957 5.98428 15.5902 4 12 4C8.4098 4 5.9043 5.98428 4.3446 7.8608C3.56205 8.8023 2.99686 9.73915 2.62711 10.4392C2.44163 10.7904 2.30371 11.0852 2.21092 11.2953C2.16449 11.4004 2.12925 11.4847 2.10491 11.5445C2.09274 11.5744 2.08328 11.5982 2.07651 11.6155L2.06835 11.6366L2.06576 11.6433L2.06484 11.6458L2.06448 11.6467C2.06432 11.6472 2.06417 11.6475 3 12L2.06417 11.6475C1.97861 11.8747 1.97861 12.1253 2.06417 12.3525L3 12C2.06417 12.3525 2.06432 12.3528 2.06448 12.3533L2.06484 12.3542L2.06576 12.3567L2.06835 12.3634L2.07651 12.3845C2.08328 12.4018 2.09274 12.4256 2.10491 12.4555C2.12925 12.5153 2.16449 12.5996 2.21092 12.7047C2.30371 12.9149 2.44163 13.2096 2.62711 13.5608C2.99686 14.2608 3.56205 15.1977 4.3446 16.1392C5.9043 18.0157 8.4098 20 12 20C15.5902 20 18.0957 18.0157 19.6554 16.1392C20.438 15.1977 21.0031 14.2608 21.3729 13.5608C21.5584 13.2096 21.6963 12.9149 21.7891 12.7047C21.8355 12.5996 21.8707 12.5153 21.8951 12.4555C21.9073 12.4256 21.9167 12.4018 21.9235 12.3845L21.9317 12.3634L21.9342 12.3567L21.9352 12.3542L21.9355 12.3533C21.9357 12.3528 21.9358 12.3525 21 12ZM21 12L21.9358 12.3525C22.0214 12.1253 22.0214 11.8747 21.9358 11.6475L21 12ZM12 10C10.8954 10 10 10.8954 10 12C10 13.1046 10.8954 14 12 14C13.1046 14 14 13.1046 14 12C14 10.8954 13.1046 10 12 10ZM8 12C8 9.79086 9.79086 8 12 8C14.2091 8 16 9.79086 16 12C16 14.2091 14.2091 16 12 16C9.79086 16 8 14.2091 8 12Z" fill="currentColor"/>
</svg>
