<svg width="17" height="15" viewBox="0 0 17 15" fill="none" xmlns="http://www.w3.org/2000/svg">
<path d="M7.6665 0.5C7.94513 0.5 8.20531 0.639262 8.35986 0.871094L9.77913 3H15.9998L16.0853 3.00407C16.5054 3.04685 16.8332 3.40194 16.8332 3.83333V13.8333C16.8332 14.2936 16.4601 14.6667 15.9998 14.6667H0.999837C0.5396 14.6667 0.166504 14.2936 0.166504 13.8333V1.33333L0.170573 1.24788C0.213349 0.827776 0.56844 0.5 0.999837 0.5H7.6665ZM1.83317 13H15.1665V4.66667H9.33317C9.08928 4.66667 8.85963 4.55986 8.70247 4.37777L8.63981 4.29557L7.22054 2.16667H1.83317V13Z" fill="white"/>
</svg>
