<svg width="24" height="24" viewBox="0 0 24 24" fill="currentColor" xmlns="http://www.w3.org/2000/svg">
<path d="M20 3L20.1025 3.00488C20.6067 3.05621 21 3.48232 21 4V20C21 20.5523 20.5523 21 20 21H4C3.44772 21 3 20.5523 3 20V4L3.00488 3.89746C3.05621 3.39333 3.48232 3 4 3H20ZM9.64062 17.2686C9.25871 17.5868 8.70058 17.5757 8.33105 17.2432L5 14.2451V19H19V16.4443L14.9746 12.8223L9.64062 17.2686ZM5 11.5547L9.02441 15.1768L14.3594 10.7314L14.4336 10.6758C14.8109 10.4161 15.3226 10.4451 15.6689 10.7568L19 13.7539V5H5V11.5547ZM10 9C10 8.44772 9.55228 8 9 8C8.44772 8 8 8.44772 8 9C8 9.55228 8.44772 10 9 10C9.55228 10 10 9.55228 10 9ZM12 9C12 10.6569 10.6569 12 9 12C7.34315 12 6 10.6569 6 9C6 7.34315 7.34315 6 9 6C10.6569 6 12 7.34315 12 9Z" fill="currentColor"/>
</svg>
