<svg width="16" height="18" viewBox="0 0 16 18" fill="none" xmlns="http://www.w3.org/2000/svg">
<path d="M9.66667 13.4383H6.33333V13.9998C6.33333 14.9203 7.07952 15.6665 8 15.6665C8.92047 15.6665 9.66666 14.9203 9.66667 13.9998V13.4383ZM13 7.33317C13 4.57175 10.7614 2.33317 8 2.33317C7.39622 2.33317 6.81895 2.43951 6.28532 2.63428C5.85309 2.79195 5.37467 2.56999 5.21679 2.13786C5.05902 1.70559 5.28184 1.22722 5.71403 1.06934C6.42809 0.808709 7.19847 0.666504 8 0.666504C11.6819 0.666504 14.6667 3.65127 14.6667 7.33317C14.6667 8.10335 14.5355 8.8449 14.2939 9.53532C14.1419 9.96952 13.667 10.1982 13.2327 10.0464C12.7984 9.89446 12.5692 9.41951 12.7209 8.98519C12.9014 8.46923 13 7.9134 13 7.33317ZM11.3333 13.9998C11.3333 15.8408 9.84095 17.3332 8 17.3332C6.15905 17.3332 4.66667 15.8408 4.66666 13.9998V13.1063C2.67567 11.9543 1.33333 9.8017 1.33333 7.33317C1.33333 6.22606 1.60347 5.18026 2.08203 4.26025L0.744139 2.92236C0.418702 2.59693 0.418702 2.06941 0.744139 1.74398C1.06958 1.41854 1.59709 1.41854 1.92252 1.74398L15.2559 15.0773C15.5813 15.4027 15.5813 15.9303 15.2559 16.2557C14.9304 16.5811 14.4029 16.5811 14.0775 16.2557L11.3333 13.5116V13.9998ZM3 7.33317C3 9.26413 4.09596 10.9383 5.70182 11.7716H9.59342L5.44629 7.62451C5.32803 7.94084 5.02425 8.1665 4.66666 8.1665C4.20643 8.1665 3.83333 7.79341 3.83333 7.33317C3.83333 6.93209 3.89052 6.54341 3.99691 6.17513L3.33935 5.51758C3.12011 6.07992 3 6.69203 3 7.33317Z" fill="currentColor"/>
</svg>
