<svg width="14" height="18" viewBox="0 0 14 18" fill="none" xmlns="http://www.w3.org/2000/svg">
<path d="M8.66667 13.4386H5.33334V14.0001C5.33334 14.9206 6.07953 15.6667 7 15.6667C7.92048 15.6667 8.66667 14.9206 8.66667 14.0001V13.4386ZM2.83334 7.33342C2.83334 5.03223 4.69882 3.16675 7 3.16675C7.46024 3.16675 7.83334 3.53984 7.83334 4.00008C7.83334 4.46032 7.46024 4.83342 7 4.83342C5.61929 4.83342 4.5 5.9527 4.5 7.33342C4.5 7.79365 4.12691 8.16675 3.66667 8.16675C3.20643 8.16675 2.83334 7.79365 2.83334 7.33342ZM12 7.33342C12 4.57199 9.76143 2.33341 7 2.33341C4.23858 2.33341 2 4.57199 2 7.33342C2 9.26437 3.09596 10.9385 4.70183 11.7719H9.29818C10.904 10.9385 12 9.26437 12 7.33342ZM13.6667 7.33342C13.6667 9.80195 12.3243 11.9546 10.3333 13.1065V14.0001C10.3333 15.841 8.84095 17.3334 7 17.3334C5.15905 17.3334 3.66667 15.841 3.66667 14.0001V13.1065C1.67568 11.9546 0.333336 9.80195 0.333336 7.33342C0.333336 3.65152 3.3181 0.666748 7 0.666748C10.6819 0.666748 13.6667 3.65152 13.6667 7.33342Z" fill="currentColor"/>
</svg>
