<svg width="18" height="18" viewBox="0 0 18 18" fill="none" xmlns="http://www.w3.org/2000/svg">
<path d="M17 10C17.2652 10 17.5195 10.1054 17.707 10.293C17.8946 10.4805 18 10.7348 18 11V17C18 17.5523 17.5523 18 17 18H1C0.447716 18 2.41411e-08 17.5523 0 17V11L0.00488281 10.8975C0.0562148 10.3933 0.482324 10 1 10H17ZM2 16H16V12H2V16ZM17 0L17.0986 0.00488281C17.3276 0.0275729 17.5429 0.128826 17.707 0.292969C17.8946 0.480505 18 0.734784 18 1V7C18 7.55228 17.5523 8 17 8H1C0.447715 8 2.41411e-08 7.55228 0 7V1L0.00488281 0.897461C0.0562147 0.393332 0.482324 2.26284e-08 1 0H17ZM2 6H16V2H2V6Z" fill="#020F3C"/>
</svg>
