<svg width="2" height="12" viewBox="0 0 2 12" fill="none" xmlns="http://www.w3.org/2000/svg">
<path fill-rule="evenodd" clip-rule="evenodd" d="M0.162109 1.00419C0.162109 0.543949 0.535205 0.170853 0.995443 0.170853H1.00377C1.46401 0.170853 1.8371 0.543949 1.8371 1.00419C1.8371 1.46442 1.46401 1.83752 1.00377 1.83752H0.995443C0.535205 1.83752 0.162109 1.46442 0.162109 1.00419ZM0.162109 6.00419C0.162109 5.54395 0.535205 5.17085 0.995443 5.17085H1.00377C1.46401 5.17085 1.8371 5.54395 1.8371 6.00419C1.8371 6.46442 1.46401 6.83752 1.00377 6.83752H0.995443C0.535205 6.83752 0.162109 6.46442 0.162109 6.00419ZM0.162109 11.0042C0.162109 10.5439 0.535205 10.1709 0.995443 10.1709H1.00377C1.46401 10.1709 1.8371 10.5439 1.8371 11.0042C1.8371 11.4644 1.46401 11.8375 1.00377 11.8375H0.995443C0.535205 11.8375 0.162109 11.4644 0.162109 11.0042Z" fill="currentColor"/>
</svg>
