<svg width="13" height="22" viewBox="0 0 13 22" fill="none" xmlns="http://www.w3.org/2000/svg">
<path fill-rule="evenodd" clip-rule="evenodd" d="M3.92901 3.99276C3.43408 4.57018 3.16667 5.40265 3.16667 6.33337C3.16667 7.06975 2.56971 7.66671 1.83333 7.66671C1.09695 7.66671 0.5 7.06975 0.5 6.33337C0.5 4.93076 0.899256 3.4299 1.90432 2.25732C2.93877 1.05047 4.49462 0.333374 6.5 0.333374C8.50538 0.333374 10.0612 1.05047 11.0957 2.25732C12.1007 3.4299 12.5 4.93076 12.5 6.33337C12.5 8.59324 10.9309 10.1229 9.84609 11.1803C9.81865 11.2071 9.79151 11.2335 9.76472 11.2597L9.75478 11.2694C9.15068 11.8591 8.66739 12.3309 8.31539 12.8254C7.98151 13.2944 7.83333 13.695 7.83333 14.1112V15C7.83333 15.7364 7.23638 16.3334 6.5 16.3334C5.76362 16.3334 5.16667 15.7364 5.16667 15V14.1112C5.16667 12.9718 5.60182 12.039 6.14295 11.2789C6.63701 10.5848 7.27397 9.96381 7.81427 9.43702C7.8438 9.40823 7.87304 9.37972 7.90195 9.3515C9.14953 8.13362 9.83333 7.34966 9.83333 6.33337C9.83333 5.40266 9.56592 4.57018 9.07099 3.99276C8.60543 3.44961 7.82796 3.00004 6.5 3.00004C5.17204 3.00004 4.39457 3.44961 3.92901 3.99276ZM6.5 18.9884C7.23638 18.9884 7.83333 19.5853 7.83333 20.3217V20.3334C7.83333 21.0697 7.23638 21.6667 6.5 21.6667C5.76362 21.6667 5.16667 21.0697 5.16667 20.3334V20.3217C5.16667 19.5853 5.76362 18.9884 6.5 18.9884Z" fill="#020F3C"/>
</svg>
