<svg width="18" height="20" viewBox="0 0 18 20" fill="none" xmlns="http://www.w3.org/2000/svg">
<path fill-rule="evenodd" clip-rule="evenodd" d="M8.50974 0.128424C8.81415 -0.0428082 9.18585 -0.0428082 9.49026 0.128424L17.4903 4.62842C17.8051 4.80554 18 5.13873 18 5.5V14.5C18 14.8613 17.8051 15.1945 17.4903 15.3716L9.49026 19.8716C9.18585 20.0428 8.81415 20.0428 8.50974 19.8716L0.509739 15.3716C0.194862 15.1945 0 14.8613 0 14.5V5.5C0 5.13873 0.194862 4.80554 0.509739 4.62842L8.50974 0.128424ZM2 6.08485V13.9152L9 17.8527L16 13.9152V6.08485L9 2.14735L2 6.08485ZM9 8C7.89543 8 7 8.89543 7 10C7 11.1046 7.89543 12 9 12C10.1046 12 11 11.1046 11 10C11 8.89543 10.1046 8 9 8ZM5 10C5 7.79086 6.79086 6 9 6C11.2091 6 13 7.79086 13 10C13 12.2091 11.2091 14 9 14C6.79086 14 5 12.2091 5 10Z" fill="#020F3C"/>
</svg>
