<svg width="24" height="24" viewBox="0 0 24 24" fill="none" xmlns="http://www.w3.org/2000/svg">
<path d="M11 20V4C11 3.44772 11.4477 3 12 3C12.5523 3 13 3.44772 13 4V20C13 20.5523 12.5523 21 12 21C11.4477 21 11 20.5523 11 20ZM19 17V8C19 7.44772 19.4477 7 20 7C20.5523 7 21 7.44772 21 8V17C21 17.5523 20.5523 18 20 18C19.4477 18 19 17.5523 19 17ZM7 16V8C7 7.44772 7.44772 7 8 7C8.55228 7 9 7.44772 9 8V16C9 16.5523 8.55228 17 8 17C7.44772 17 7 16.5523 7 16ZM15 15V10C15 9.44772 15.4477 9 16 9C16.5523 9 17 9.44772 17 10V15C17 15.5523 16.5523 16 16 16C15.4477 16 15 15.5523 15 15ZM3 13V11C3 10.4477 3.44772 10 4 10C4.55228 10 5 10.4477 5 11V13C5 13.5523 4.55228 14 4 14C3.44772 14 3 13.5523 3 13Z" fill="currentColor"/>
</svg>
