<svg width="18" height="19" viewBox="0 0 18 19" fill="none" xmlns="http://www.w3.org/2000/svg">
<path fill-rule="evenodd" clip-rule="evenodd" d="M4 2C4 0.895431 4.89543 0 6 0H12C13.1046 0 14 0.89543 14 2V3H17C17.5523 3 18 3.44772 18 4C18 4.55228 17.5523 5 17 5H16V18C16 18.5523 15.5523 19 15 19H3C2.44772 19 2 18.5523 2 18V5H1C0.447715 5 0 4.55228 0 4C0 3.44772 0.447715 3 1 3H4V2ZM6 3V2H12V3H6ZM14 5H4V17H14V5ZM7 7C7.55228 7 8 7.44772 8 8V14C8 14.5523 7.55228 15 7 15C6.44772 15 6 14.5523 6 14V8C6 7.44772 6.44772 7 7 7ZM11 7C11.5523 7 12 7.44772 12 8V14C12 14.5523 11.5523 15 11 15C10.4477 15 10 14.5523 10 14V8C10 7.44772 10.4477 7 11 7Z" fill="currentColor"/>
</svg>
