<svg width="21" height="20" viewBox="0 0 21 20" fill="none" xmlns="http://www.w3.org/2000/svg">
<path d="M3 10C3 9.53976 3.3731 9.16667 3.83333 9.16667C4.29357 9.16667 4.66667 9.53976 4.66667 10V15.8333H16.3333V10C16.3333 9.53976 16.7064 9.16667 17.1667 9.16667C17.6269 9.16667 18 9.53976 18 10V16.6667C18 17.1269 17.6269 17.5 17.1667 17.5H3.83333C3.61232 17.5 3.40042 17.4121 3.24414 17.2559C3.08786 17.0996 3 16.8877 3 16.6667V10ZM9.66667 11.6667V5.34505L8.58919 6.42253C8.26376 6.74796 7.73624 6.74796 7.41081 6.42253C7.08537 6.09709 7.08537 5.56958 7.41081 5.24414L9.91081 2.74414L9.97184 2.6888C10.1201 2.56727 10.3066 2.5 10.5 2.5C10.721 2.5 10.9329 2.58786 11.0892 2.74414L13.5892 5.24414L13.6462 5.30762C13.9131 5.63493 13.8943 6.11743 13.5892 6.42253C13.2841 6.72762 12.8016 6.74645 12.4743 6.47949L12.4108 6.42253L11.3333 5.34505V11.6667C11.3333 12.1269 10.9602 12.5 10.5 12.5C10.0398 12.5 9.66667 12.1269 9.66667 11.6667Z" fill="currentColor"/>
</svg>
